<?xml version="1.0" encoding="utf-8"?>
<!-- Generator: Adobe Illustrator 21.0.0, SVG Export Plug-In . SVG Version: 6.00 Build 0)  -->
<svg version="1.1" id="Layer_1" xmlns="http://www.w3.org/2000/svg" xmlns:xlink="http://www.w3.org/1999/xlink" x="0px" y="0px"
	 viewBox="0 0 61 61" style="enable-background:new 0 0 61 61;" xml:space="preserve">
<style type="text/css">
	.st0{fill:#455A64;stroke:#424242;stroke-linecap:round;stroke-linejoin:round;stroke-miterlimit:10;}
	.st1{fill:none;stroke:#546E7A;stroke-linecap:round;stroke-linejoin:round;stroke-miterlimit:10;}
	.st2{fill:#546E7A;stroke:#424242;stroke-linecap:round;stroke-linejoin:round;stroke-miterlimit:10;}
	.st3{fill:none;stroke:#78909C;stroke-linecap:round;stroke-linejoin:round;stroke-miterlimit:10;}
	.st4{fill:none;stroke:#455A64;stroke-linecap:round;stroke-linejoin:round;stroke-miterlimit:10;}
	.st5{fill:#FFA726;stroke:#424242;stroke-linecap:round;stroke-linejoin:round;stroke-miterlimit:10;}
	.st6{fill:none;stroke:#FB8C00;stroke-linecap:round;stroke-linejoin:round;stroke-miterlimit:10;}
	.st7{fill:none;stroke:#FFCC80;stroke-linecap:round;stroke-linejoin:round;stroke-miterlimit:10;}
	.st8{fill:#CFD8DC;stroke:#424242;stroke-linecap:round;stroke-linejoin:round;stroke-miterlimit:10;}
	.st9{fill:none;stroke:#ECEFF1;stroke-linecap:round;stroke-linejoin:round;stroke-miterlimit:10;}
	.st10{fill:none;stroke:#B0BEC5;stroke-linecap:round;stroke-linejoin:round;stroke-miterlimit:10;}
	.st11{fill:none;stroke:#424242;stroke-linecap:round;stroke-linejoin:round;stroke-miterlimit:10;}
	.st12{fill:#EC407A;stroke:#424242;stroke-linecap:round;stroke-linejoin:round;stroke-miterlimit:10;}
	.st13{fill:none;stroke:#F48FB1;stroke-linecap:round;stroke-linejoin:round;stroke-miterlimit:10;}
	.st14{fill:none;stroke:#D81B60;stroke-linecap:round;stroke-linejoin:round;stroke-miterlimit:10;}
	.st15{fill:#ECEFF1;stroke:#424242;stroke-linecap:round;stroke-linejoin:round;stroke-miterlimit:10;}
	.st16{fill:#26C6DA;stroke:#424242;stroke-linecap:round;stroke-linejoin:round;stroke-miterlimit:10;}
	.st17{fill:none;stroke:#00ACC1;stroke-linecap:round;stroke-linejoin:round;stroke-miterlimit:10;}
	.st18{fill:none;stroke:#80DEEA;stroke-linecap:round;stroke-linejoin:round;stroke-miterlimit:10;}
	.st19{fill:#B0BEC5;stroke:#424242;stroke-linecap:round;stroke-linejoin:round;stroke-miterlimit:10;}
	.st20{fill:none;stroke:#CFD8DC;stroke-linecap:round;stroke-linejoin:round;stroke-miterlimit:10;}
	.st21{fill:#E0E0E0;stroke:#424242;stroke-linecap:round;stroke-linejoin:round;stroke-miterlimit:10;}
	.st22{fill:#F57F17;stroke:#424242;stroke-linecap:round;stroke-linejoin:round;stroke-miterlimit:10;}
	.st23{fill:none;stroke:#F57F17;stroke-linecap:round;stroke-linejoin:round;stroke-miterlimit:10;}
	.st24{fill:#FB8C00;stroke:#424242;stroke-miterlimit:10;}
	.st25{fill:none;stroke:#0097A7;stroke-linecap:round;stroke-linejoin:round;stroke-miterlimit:10;}
	.st26{fill:#26C6DA;stroke:#0097A7;stroke-linecap:round;stroke-linejoin:round;stroke-miterlimit:10;}
	.st27{fill:none;stroke:#90A4AE;stroke-linecap:round;stroke-linejoin:round;stroke-miterlimit:10;}
	.st28{fill:#CFD8DC;}
	.st29{fill:none;stroke:#424242;stroke-linecap:round;stroke-linejoin:round;}
	.st30{fill:none;stroke:#424242;stroke-linecap:round;stroke-linejoin:round;stroke-dasharray:4.0714,4.0714;}
	.st31{fill:#90A4AE;stroke:#424242;stroke-linecap:round;stroke-linejoin:round;stroke-miterlimit:10;}
	.st32{fill:none;stroke:#78909C;stroke-linecap:round;stroke-miterlimit:10;}
	.st33{fill:none;stroke:#455A64;stroke-linecap:round;stroke-miterlimit:10;}
	.st34{fill:#78909C;stroke:#424242;stroke-linecap:round;stroke-linejoin:round;stroke-miterlimit:10;}
	.st35{fill:none;stroke:#546E7A;stroke-linecap:round;stroke-miterlimit:10;}
	.st36{fill:none;stroke:#FFA726;stroke-linecap:round;stroke-linejoin:round;stroke-miterlimit:10;}
	.st37{fill:#4DD0E1;stroke:#424242;stroke-linecap:round;stroke-linejoin:round;stroke-miterlimit:10;}
	.st38{fill:#00ACC1;stroke:#424242;stroke-linecap:round;stroke-linejoin:round;stroke-miterlimit:10;}
	.st39{fill:#D81B60;stroke:#424242;stroke-linecap:round;stroke-linejoin:round;stroke-miterlimit:10;}
	.st40{fill:none;stroke:#C2185B;stroke-linecap:round;stroke-linejoin:round;stroke-miterlimit:10;}
	.st41{fill:#FB8C00;stroke:#424242;stroke-linecap:round;stroke-linejoin:round;stroke-miterlimit:10;}
	.st42{fill:none;stroke:#37474F;stroke-linecap:round;stroke-linejoin:round;stroke-miterlimit:10;}
	.st43{fill:#B0BEC5;stroke:#424242;stroke-miterlimit:10;}
	.st44{fill:#37474F;stroke:#424242;stroke-linecap:round;stroke-linejoin:round;stroke-miterlimit:10;}
	.st45{fill:#F5F5F5;stroke:#424242;stroke-linecap:round;stroke-linejoin:round;stroke-miterlimit:10;}
	.st46{fill:none;stroke:#FAFAFA;stroke-linecap:round;stroke-linejoin:round;stroke-miterlimit:10;}
	.st47{fill:#F06292;stroke:#424242;stroke-linecap:round;stroke-linejoin:round;stroke-miterlimit:10;}
	.st48{fill:#F48FB1;stroke:#424242;stroke-linecap:round;stroke-linejoin:round;stroke-miterlimit:10;}
</style>
<g id="Loudspeakers">
	<path class="st2" d="M52.5,60.5h-5c-1.7,0-3-1.3-3-3v-24c0-1.7,1.3-3,3-3h5c1.7,0,3,1.3,3,3v24C55.5,59.2,54.2,60.5,52.5,60.5z"/>
	<path class="st0" d="M37,60.5H14c-2.8,0-5-2.2-5-5v-50c0-2.8,2.2-5,5-5h23c2.8,0,5,2.2,5,5v50C42,58.3,39.8,60.5,37,60.5z"/>
	<path class="st35" d="M11,55.5v-50c0-1.7,1.3-3,3-3"/>
	<path class="st2" d="M44.5,60.5h-23c-2.8,0-5-2.2-5-5v-50c0-2.8,2.2-5,5-5h23c2.8,0,5,2.2,5,5v50C49.5,58.3,47.3,60.5,44.5,60.5z"
		/>
	<g>
		<circle class="st5" cx="33" cy="42.5" r="12"/>
		<circle class="st0" cx="33" cy="42.5" r="9"/>
		<circle class="st0" cx="33" cy="42.5" r="2.5"/>
	</g>
	<g>
		<circle class="st5" cx="33" cy="15.5" r="9"/>
		<circle class="st0" cx="33" cy="15.5" r="6"/>
		<circle class="st0" cx="33" cy="15.5" r="2"/>
	</g>
	<g>
		<ellipse transform="matrix(0.7071 -0.7071 0.7071 0.7071 2.4081 16.8137)" class="st0" cx="21.5" cy="5.5" rx="2" ry="2"/>
		<line class="st0" x1="22.9" y1="4.1" x2="20.1" y2="6.9"/>
	</g>
	<g>
		<ellipse transform="matrix(0.7071 -0.7071 0.7071 0.7071 9.1447 33.0772)" class="st0" cx="44.5" cy="5.5" rx="2" ry="2"/>
		<line class="st0" x1="45.9" y1="6.9" x2="43.1" y2="4.1"/>
	</g>
	<g>
		<ellipse transform="matrix(0.7071 -0.7071 0.7071 0.7071 -26.2107 47.7219)" class="st0" cx="44.5" cy="55.5" rx="2" ry="2"/>
		<line class="st0" x1="43.1" y1="56.9" x2="45.9" y2="54.1"/>
	</g>
	<g>
		<ellipse transform="matrix(0.7071 -0.7071 0.7071 0.7071 -32.9472 31.4584)" class="st0" cx="21.5" cy="55.5" rx="2" ry="2"/>
		<line class="st0" x1="20.1" y1="54.1" x2="22.9" y2="56.9"/>
	</g>
	<path class="st0" d="M8.5,60.5h-5c-1.7,0-3-1.3-3-3v-24c0-1.7,1.3-3,3-3h5c1.7,0,3,1.3,3,3v24C11.5,59.2,10.2,60.5,8.5,60.5z"/>
	<path class="st2" d="M13.5,60.5h-5c-1.7,0-3-1.3-3-3v-24c0-1.7,1.3-3,3-3h5c1.7,0,3,1.3,3,3v24C16.5,59.2,15.2,60.5,13.5,60.5z"/>
	<path class="st32" d="M7.5,53.5v-20"/>
	<path class="st35" d="M2.5,57.5v-24"/>
	<path class="st33" d="M14.5,53.5v-20"/>
	<path class="st8" d="M16.5,55.5h-11v2c0,1.7,1.3,3,3,3h5c1.7,0,3-1.3,3-3V55.5z"/>
	<path class="st2" d="M57.5,60.5h-5c-1.7,0-3-1.3-3-3v-24c0-1.7,1.3-3,3-3h5c1.7,0,3,1.3,3,3v24C60.5,59.2,59.2,60.5,57.5,60.5z"/>
	<path class="st8" d="M60.5,55.5h-11v2c0,1.7,1.3,3,3,3h5c1.7,0,3-1.3,3-3V55.5z"/>
	<path class="st32" d="M51.5,53.5v-20"/>
	<path class="st33" d="M58.5,53.5v-20"/>
	<line class="st32" x1="18.5" y1="8.5" x2="18.5" y2="52.5"/>
	<line class="st33" x1="47.5" y1="8.5" x2="47.5" y2="52.5"/>
</g>
</svg>
