<?xml version="1.0" encoding="iso-8859-1"?>
<!-- Generator: Adobe Illustrator 19.0.0, SVG Export Plug-In . SVG Version: 6.00 Build 0)  -->
<svg xmlns="http://www.w3.org/2000/svg" xmlns:xlink="http://www.w3.org/1999/xlink" version="1.1" id="Layer_1" x="0px" y="0px" viewBox="0 0 512 512" style="enable-background:new 0 0 512 512;" xml:space="preserve">
<circle style="fill:#74767F;" cx="224.734" cy="255.876" r="215.693"/>
<path style="fill:#565966;" d="M30.726,255.876c0-115.489,90.765-209.778,204.853-215.424c-3.591-0.178-7.204-0.271-10.842-0.271  c-119.124,0-215.695,96.57-215.695,215.696c0,122.943,102.777,221.552,226.537,215.424  C121.49,465.653,30.726,371.366,30.726,255.876z"/>
<path style="fill:#D2D6CE;" d="M224.738,125.601c-71.833,0-130.276,58.442-130.276,130.276c0,71.835,58.442,130.276,130.276,130.276  s130.278-58.441,130.278-130.276C355.014,184.042,296.572,125.601,224.738,125.601z"/>
<path style="fill:#BCC1B8;" d="M116.44,255.876c0-68.132,52.577-124.209,119.286-129.808  c-76.471-6.389-141.265,54.12-141.265,129.808c0,71.835,58.442,130.276,130.276,130.276c3.701,0,7.365-0.163,10.989-0.468  C169.017,380.086,116.44,324.009,116.44,255.876z"/>
<path style="fill:#6387EA;" d="M224.738,219.585c-20.042,0-36.291,16.248-36.291,36.29s16.249,36.292,36.291,36.292  c20.044,0,36.292-16.25,36.292-36.292S244.782,219.585,224.738,219.585z M224.738,267.709c-6.535,0-11.833-5.299-11.833-11.836  c0-6.532,5.297-11.832,11.833-11.832c6.536,0,11.835,5.299,11.835,11.832C236.572,262.411,231.274,267.709,224.738,267.709z"/>
<path style="fill:#87A1FF;" d="M225.134,267.688c-0.879,8.166-1.289,16.099-1.23,24.458c0.277,0.006,0.555,0.021,0.834,0.021  c20.044,0,36.292-16.25,36.292-36.292c0-16.304-10.752-30.095-25.552-34.674c-2.641,7.675-4.857,15.549-6.622,23.592  C240.937,249.283,238.07,267.26,225.134,267.688z"/>
<path style="fill:#61626D;" d="M240.764,206.186c0,7.399-6,13.4-13.401,13.4h-5.248c-7.4,0-13.401-6-13.401-13.4v-65.818  c0-7.4,6-13.4,13.401-13.4h5.248c7.4,0,13.401,5.999,13.401,13.4V206.186z"/>
<path style="fill:#464856;" d="M224.738,206.186v-65.818c0-5.483,3.297-10.189,8.014-12.265c-3.15-1.387-5.156-1.136-10.638-1.136  c-7.4,0-13.401,5.999-13.401,13.4v65.818c0,7.399,6,13.4,13.401,13.4c5.474,0,7.478,0.251,10.638-1.136  C228.034,216.374,224.738,211.667,224.738,206.186z"/>
<path style="fill:#61626D;" d="M182.072,227.177c7.038,2.287,10.892,9.847,8.605,16.885l-1.624,4.992  c-2.286,7.038-9.846,10.889-16.885,8.603l-62.596-20.338c-7.039-2.289-10.89-9.849-8.605-16.887l1.623-4.99  c2.287-7.039,9.845-10.891,16.885-8.606L182.072,227.177z"/>
<path style="fill:#464856;" d="M175.985,243.377l-63.252-20.552c-4.715-1.532-8-5.41-9.016-9.92  c-0.877,1.53-0.999,2.145-2.749,7.526c-2.285,7.038,1.565,14.598,8.605,16.887l62.596,20.338c7.039,2.285,14.599-1.564,16.885-8.603  l1.624-4.992c0.621-1.915,0.775-3.867,0.549-5.741C187.891,243.035,181.764,245.253,175.985,243.377z"/>
<path style="fill:#61626D;" d="M267.283,227.177c-7.039,2.287-10.891,9.847-8.604,16.885l1.623,4.992  c2.286,7.038,9.846,10.889,16.884,8.603l62.597-20.338c7.04-2.289,10.892-9.849,8.605-16.887l-1.622-4.99  c-2.287-7.039-9.849-10.891-16.886-8.606L267.283,227.177z"/>
<path style="fill:#464856;" d="M271.083,242.421l63.563-20.652c5.292-1.718,10.87-0.015,14.354,3.884  c0.266-3.262-0.536-4.983-2.235-10.211c-2.287-7.039-9.849-10.891-16.886-8.606l-62.596,20.34  c-7.039,2.287-10.891,9.847-8.604,16.885l1.623,4.992c0.407,1.254,0.988,2.401,1.699,3.437  C262.994,247.917,266.31,243.972,271.083,242.421z"/>
<path style="fill:#61626D;" d="M180.75,284.771c4.351-5.988,12.73-7.313,18.718-2.966l4.246,3.086  c5.987,4.35,7.314,12.73,2.965,18.716l-38.686,53.249c-4.352,5.986-12.731,7.313-18.719,2.964l-4.247-3.084  c-5.986-4.352-7.313-12.73-2.963-18.716L180.75,284.771z"/>
<path style="fill:#464856;" d="M153.121,349.361l40.752-56.093c2.995-4.122,7.803-6.129,12.536-5.76  c-1.453-1.864-2.335-2.354-6.941-5.702c-5.988-4.348-14.367-3.022-18.718,2.966l-38.685,53.249  c-4.35,5.985-3.023,14.364,2.963,18.716l4.247,3.084c0.487,0.354,0.995,0.658,1.509,0.935  C149.925,356.934,150.638,352.779,153.121,349.361z"/>
<path style="fill:#61626D;" d="M269.251,284.771c-4.35-5.988-12.73-7.313-18.718-2.966l-4.246,3.086  c-5.986,4.35-7.314,12.73-2.965,18.716l38.688,53.249c4.35,5.986,12.73,7.313,18.718,2.964l4.246-3.084  c5.985-4.352,7.314-12.73,2.963-18.716L269.251,284.771z"/>
<path style="fill:#464856;" d="M296.036,349.404l-39.942-54.977c-3.248-4.47-3.416-10.229-0.928-14.775  c-3.11,0.774-4.429,2.007-8.878,5.239c-5.986,4.35-7.314,12.73-2.965,18.716l38.688,53.249c4.35,5.986,12.73,7.313,18.718,2.964  l4.246-3.084c0.685-0.498,1.303-1.055,1.863-1.65C302.699,354.966,298.658,353.012,296.036,349.404z"/>
<path style="fill:#E5E5E5;" d="M224.738,267.709c-6.535,0-11.833-5.299-11.833-11.836c0-6.532,5.297-11.832,11.833-11.832  c6.536,0,11.835,5.299,11.835,11.832C236.572,262.411,231.274,267.709,224.738,267.709z"/>
<g>
	<path style="fill:#DBDBDB;" d="M224.738,412.765c-86.509,0-156.891-70.379-156.891-156.889S138.228,98.988,224.738,98.988   c86.51,0,156.89,70.378,156.89,156.888S311.247,412.765,224.738,412.765z M224.738,126.903   c-71.115,0-128.974,57.859-128.974,128.974c0,71.117,57.858,128.974,128.974,128.974c71.117,0,128.975-57.855,128.975-128.974   C353.711,184.76,295.855,126.903,224.738,126.903z"/>
	<path style="fill:#DBDBDB;" d="M98.158,231.118c11.18-70.209,69.097-125.036,140.756-131.485   C146.754,91.35,67.847,164.11,67.847,255.876c0,86.51,70.381,156.889,156.891,156.889c4.779,0,9.505-0.229,14.177-0.649   C143.569,403.54,82.348,312.057,98.158,231.118z"/>
</g>
<path style="fill:#F5F5F5;" d="M381.627,255.876c0-56.602-30.131-106.294-75.194-133.892c-7.749,6.041-15.069,12.608-21.913,19.641  c41.096,21.59,69.192,64.697,69.192,114.251c0,64.283-47.275,117.728-108.882,127.406c4.267,8.899,9.13,17.457,14.541,25.623  C329.271,393.094,381.627,330.488,381.627,255.876z"/>
<path style="fill:#5C5F6D;" d="M504.617,449.449V62.524c0-12.239-9.922-22.159-22.159-22.159H344.985  c-12.238,0-22.16,9.921-22.16,22.159v386.925c0,12.239,9.923,22.159,22.16,22.159h137.472  C494.695,471.609,504.617,461.688,504.617,449.449z"/>
<path style="fill:#70727F;" d="M482.457,40.364H344.985c-12.238,0-22.16,9.921-22.16,22.159v268.081  C364.162,391.6,429.15,435.255,504.617,448.418V62.524C504.617,50.284,494.695,40.364,482.457,40.364z"/>
<path d="M242.454,255.985c0-10.658-8.673-19.329-19.331-19.329c-10.658,0-19.329,8.672-19.329,19.329  c0,10.661,8.672,19.333,19.329,19.333C233.782,275.318,242.454,266.645,242.454,255.985z M218.794,255.985  c0-2.387,1.941-4.328,4.328-4.328c2.388,0,4.33,1.941,4.33,4.328c0,2.389-1.942,4.332-4.33,4.332  C220.736,260.317,218.794,258.374,218.794,255.985z"/>
<path d="M504.5,105.797c4.143,0,7.5-3.357,7.5-7.5V62.524c0-16.355-13.306-29.66-29.66-29.66H344.868  c-13.173,0-24.36,8.634-28.219,20.536c-5.617-2.592-11.344-4.947-17.162-7.06c-0.017-0.006-0.033-0.015-0.05-0.021  c-0.021-0.007-0.041-0.012-0.062-0.019c-12.06-4.372-24.499-7.715-37.154-9.966c-0.118-0.027-0.232-0.06-0.352-0.081  c-0.178-0.032-0.355-0.048-0.532-0.067c-12.596-2.188-25.391-3.323-38.213-3.323c-59.599,0-115.629,23.208-157.773,65.351  C23.208,140.357,0,196.388,0,255.987s23.208,115.63,65.351,157.773c68.169,68.168,168.785,82.889,251.298,44.815  c3.858,11.903,15.046,20.536,28.219,20.536H482.34c16.355,0,29.66-13.306,29.66-29.66V124.296c0-4.143-3.357-7.5-7.5-7.5  s-7.5,3.357-7.5,7.5v325.154c0,8.083-6.575,14.659-14.659,14.659h-6.506V47.864h6.506c8.083,0,14.659,6.575,14.659,14.659v35.773  C496.999,102.439,500.356,105.797,504.5,105.797z M392.431,47.864h12.801v416.244h-12.801V47.864z M377.43,464.108h-12.799V47.864  h12.799V464.108z M420.232,47.864h12.8v416.244h-12.8V47.864z M314.009,336.412c-1.112-2.155,2.051,2.37-40.317-55.949  c-2.566-3.531-6.165-6.123-10.217-7.497c1.05-2.485,1.869-5.088,2.447-7.781c7.816,2.119,8.877,0.715,49.284-12.414v82.272  C314.811,335.502,314.411,335.958,314.009,336.412z M199.003,299.295l-38.672,53.228c-1.123,1.545-2.866,2.432-4.783,2.432  c-2.388,0-3.317-1.027-7.697-4.209c-2.629-1.911-3.214-5.605-1.305-8.234l38.672-53.232c1.777-2.444,5.087-3.171,7.745-1.605  c1.909,1.818,3.979,3.467,6.191,4.92C200.459,294.586,200.482,297.259,199.003,299.295z M172.889,250.634l-62.575-20.331  c-3.092-1.005-4.79-4.338-3.786-7.427l1.623-4.994c1.007-3.101,4.317-4.795,7.426-3.786c67.83,22.042,64.467,20.242,66.008,23.265  c0.491,0.963,0.697,2.018,0.625,3.07c-0.794,2.081-1.437,4.236-1.908,6.455C179.282,249.95,176.006,251.642,172.889,250.634z   M208.923,281.002c-1.552-1.537-1.964-1.757-6.496-5.049c-4.998-5.179-8.082-12.218-8.082-19.967c0-5.969,1.537-7.544,2.407-11.506  c9.957-22.731,42.18-23.082,52.548-0.427c0.353,1.795,0.506,2.088,2.251,7.457C255.274,275.257,229.723,292.857,208.923,281.002z   M220.499,212.208c-3.25,0-5.895-2.646-5.895-5.896v-65.795c0-3.251,2.645-5.896,5.895-5.896h5.247c3.251,0,5.896,2.646,5.896,5.896  v65.795c0,3.251-2.645,5.896-5.896,5.896H220.499z M315.207,236.997c-45.247,14.702-42.471,13.929-43.793,13.929  c-2.336,0-4.402-1.372-5.351-3.464c-0.505-2.547-1.237-5.011-2.164-7.379c-0.017-2.501,1.57-4.839,4.073-5.651l47.234-15.35v17.916  H315.207z M248.195,291.844c4.198-2.944,5.539-4.995,8.581-4.995c1.915,0,3.657,0.886,4.779,2.431l38.673,53.232  c1.909,2.629,1.324,6.323-1.303,8.232l-4.248,3.085c-2.602,1.892-6.289,1.369-8.233-1.304l-38.673-53.23  C246.095,296.99,246.339,293.867,248.195,291.844z M315.207,203.307c-55.993,18.196-55.712,17.218-60.564,22.343  c-3.229-3.353-6.982-6.194-11.133-8.389c1.973-3.189,3.133-6.933,3.133-10.951c0-71.723,0.142-66.805-0.353-69.53  c26.622,5.161,50.873,19.154,68.916,40.15V203.307z M202.736,217.262c-4.175,2.207-7.948,5.069-11.191,8.45  c-4.869-5.186-3.253-3.76-71.334-25.885c-1.389-0.451-2.813-0.74-4.252-0.893c16.962-31.732,47.605-55.091,83.998-62.151  c-0.489,2.699-0.353-2.374-0.353,69.528C199.604,210.329,200.763,214.073,202.736,217.262z M102.372,243.148  c1.047,0.554,2.142,1.043,3.306,1.421c68.147,22.141,64.543,21.356,69.033,21.356c1.933,0,3.81-0.278,5.604-0.775  c0.59,2.76,1.437,5.426,2.522,7.968c-3.864,1.411-7.288,3.944-9.758,7.342c-42.064,57.9-39.313,53.88-40.514,56.33  C110.412,311.99,98.643,278.486,102.372,243.148z M211.14,308.112c2.031-2.796,3.25-5.933,3.732-9.136  c5.824,1.116,11.572,1.018,17.012-0.091c0.473,3.234,1.699,6.405,3.75,9.229c42.102,57.949,39.289,54.407,41.68,56.533  c-33.717,16.865-73.831,17.152-108.033,0.161C171.815,362.605,169.079,366.003,211.14,308.112z M68.696,395.359l9.546-8.01  c3.173-2.662,3.587-7.394,0.924-10.567c-2.663-3.172-7.393-3.586-10.567-0.924l-9.554,8.017c-4.366-5.589-8.447-11.41-12.234-17.433  l10.821-6.247c3.587-2.071,4.816-6.658,2.745-10.246c-2.07-3.587-6.659-4.815-10.246-2.745l-10.842,6.259  c-3.328-6.25-6.344-12.689-9.033-19.297l11.794-4.292c3.893-1.416,5.899-5.72,4.483-9.613c-1.416-3.892-5.716-5.901-9.613-4.483  l-11.809,4.297c-2.18-6.719-4.028-13.587-5.522-20.584l12.381-2.182c4.079-0.719,6.804-4.608,6.084-8.689  c-0.718-4.079-4.603-6.805-8.689-6.084l-12.375,2.181c-0.967-6.973-1.587-14.056-1.843-21.23h12.549c4.143,0,7.5-3.357,7.5-7.5  s-3.357-7.5-7.5-7.5H15.151c0.255-7.174,0.875-14.257,1.843-21.23l12.373,2.181c0.44,0.078,0.878,0.115,1.311,0.115  c3.571,0,6.736-2.561,7.377-6.199c0.72-4.079-2.005-7.969-6.084-8.689l-12.381-2.182c1.494-6.997,3.342-13.865,5.522-20.584  l11.807,4.299c0.848,0.308,1.714,0.454,2.565,0.454c3.063,0,5.939-1.891,7.049-4.936c1.417-3.893-0.59-8.196-4.481-9.615  l-11.796-4.295c2.688-6.607,5.704-13.046,9.033-19.295c11.801,6.813,12.03,7.265,14.585,7.265c7.622,0,10.397-10.163,3.757-13.997  l-10.821-6.247c3.787-6.023,7.868-11.845,12.234-17.433c10.115,8.487,10.892,9.773,14.372,9.773c6.957,0,10.195-8.742,4.825-13.246  l-9.547-8.01c4.76-5.27,9.787-10.296,15.057-15.057c8.238,9.82,9.338,12.225,13.758,12.225c1.701,0,3.412-0.575,4.816-1.755  c3.174-2.662,3.588-7.393,0.925-10.566l-8.016-9.555c5.589-4.366,11.41-8.447,17.433-12.234l6.247,10.821  c1.39,2.406,3.91,3.751,6.502,3.751c1.272,0,2.563-0.324,3.743-1.006c3.587-2.071,4.816-6.658,2.745-10.246l-6.26-10.843  c6.25-3.328,12.69-6.344,19.297-9.033l4.292,11.794c1.108,3.046,3.984,4.937,7.049,4.937c0.851,0,1.718-0.146,2.564-0.454  c3.892-1.417,5.899-5.721,4.482-9.614l-4.297-11.807c6.719-2.18,13.586-4.028,20.583-5.522l2.183,12.382  c0.642,3.639,3.806,6.198,7.377,6.198c0.433,0,0.871-0.037,1.312-0.115c4.079-0.719,6.803-4.609,6.083-8.689l-2.182-12.372  c6.973-0.967,14.055-1.587,21.229-1.842v12.547c0,4.143,3.357,7.5,7.5,7.5c4.143,0,7.5-3.357,7.5-7.5V48.017  c7.108,0.258,14.196,0.877,21.228,1.857l-2.177,12.354c-0.809,4.587,2.72,8.804,7.395,8.804c3.571,0,6.736-2.561,7.377-6.199  l2.177-12.349c6.954,1.483,13.832,3.306,20.591,5.486l-4.299,11.812c-1.416,3.893,0.591,8.196,4.482,9.614  c3.904,1.418,8.201-0.599,9.614-4.482l4.299-11.812c4.705,1.903,9.347,3.959,13.896,6.205v50.645  c-6.026-4.091-12.31-7.792-18.807-11.043c-3.702-1.853-8.21-0.353-10.064,3.352c-1.854,3.704-0.353,8.21,3.352,10.064  c9.005,4.505,17.573,9.939,25.519,16.18v16.884c-25.025-22.961-57.674-35.829-92.084-35.829c-75.229,0-136.43,61.202-136.43,136.43  c0,75.23,61.202,136.432,136.43,136.432c34.409,0,67.059-12.868,92.084-35.83v16.884c-97.721,76.704-241.421,6.687-241.421-117.486  c0-100.149,97.366-172.432,193.41-142.701c3.958,1.224,8.158-0.991,9.384-4.947c1.225-3.957-0.99-8.157-4.947-9.384  C165.873,66.223,58.785,145.844,58.785,255.987c0,131.296,147.417,209.863,256.422,136.033v50.648  c-4.549,2.246-9.191,4.302-13.896,6.205l-4.3-11.814c-1.416-3.893-5.718-5.899-9.614-4.482c-3.892,1.417-5.899,5.721-4.482,9.614  l4.3,11.815c-6.759,2.18-13.636,4.003-20.591,5.486l-2.178-12.351c-0.72-4.08-4.608-6.803-8.689-6.083  c-4.079,0.719-6.803,4.609-6.083,8.689l2.178,12.353c-7.032,0.98-14.119,1.599-21.227,1.857v-12.544c0-4.143-3.357-7.5-7.5-7.5  c-4.143,0-7.5,3.357-7.5,7.5v12.547c-7.174-0.256-14.256-0.875-21.23-1.843l2.181-12.373c0.72-4.079-2.005-7.969-6.084-8.689  c-4.074-0.718-7.969,2.004-8.689,6.084l-2.182,12.381c-6.997-1.494-13.864-3.342-20.583-5.522l4.297-11.81  c1.416-3.892-0.591-8.196-4.483-9.613c-3.894-1.419-8.196,0.591-9.613,4.483l-4.292,11.795c-6.607-2.688-13.047-5.705-19.298-9.033  l6.259-10.843c2.071-3.588,0.842-8.175-2.745-10.246c-3.589-2.07-8.176-0.843-10.246,2.745l-6.246,10.821  c-6.023-3.787-11.844-7.867-17.432-12.233l8.017-9.557c2.662-3.173,2.248-7.904-0.926-10.567s-7.904-2.248-10.567,0.926  l-8.008,9.547C78.482,405.654,73.456,400.628,68.696,395.359z M330.208,449.449c0-25.833,0-374.509,0-386.925  c0-8.083,6.576-14.659,14.66-14.659h4.763v416.243h-4.763C336.784,464.108,330.208,457.533,330.208,449.449z M460.833,464.108h-12.8  V47.864h12.8V464.108z"/>
<g>
</g>
<g>
</g>
<g>
</g>
<g>
</g>
<g>
</g>
<g>
</g>
<g>
</g>
<g>
</g>
<g>
</g>
<g>
</g>
<g>
</g>
<g>
</g>
<g>
</g>
<g>
</g>
<g>
</g>
</svg>
