<?xml version="1.0" encoding="UTF-8" standalone="no"?>
<svg
   xmlns:dc="http://purl.org/dc/elements/1.1/"
   xmlns:cc="http://creativecommons.org/ns#"
   xmlns:rdf="http://www.w3.org/1999/02/22-rdf-syntax-ns#"
   xmlns:svg="http://www.w3.org/2000/svg"
   xmlns="http://www.w3.org/2000/svg"
   viewBox="0 0 1066.6667 800"
   height="800"
   width="1066.6667"
   xml:space="preserve"
   id="svg2"
   version="1.1"><metadata
     id="metadata8"><rdf:RDF><cc:Work
         rdf:about=""><dc:format>image/svg+xml</dc:format><dc:type
           rdf:resource="http://purl.org/dc/dcmitype/StillImage" /></cc:Work></rdf:RDF></metadata><defs
     id="defs6"><clipPath
       id="clipPath24"
       clipPathUnits="userSpaceOnUse"><path
         id="path22"
         d="M 0,600 H 800 V 0 H 0 Z" /></clipPath><clipPath
       id="clipPath612"
       clipPathUnits="userSpaceOnUse"><path
         id="path610"
         d="m 446.026,414.634 -43.93,-61.996 C 382.757,337.747 360.007,316.256 343.18,299.645 v 0 l 12.325,-16.893 149.394,6.709 12.644,-29.433 32.315,0.479 10.198,102.49 -20.971,9.678 -58.483,49.13 z" /></clipPath><clipPath
       id="clipPath772"
       clipPathUnits="userSpaceOnUse"><path
         id="path770"
         d="M 0,600 H 800 V 0 H 0 Z" /></clipPath></defs><g
     transform="matrix(1.3333333,0,0,-1.3333333,0,800)"
     id="g10"><path
       id="path12"
       style="fill:#e4f9ff;fill-opacity:1;fill-rule:nonzero;stroke:none"
       d="M 109.557,124.038 H 690.444 V 468.391 H 109.557 Z" /><path
       id="path14"
       style="fill:#0e1f28;fill-opacity:1;fill-rule:nonzero;stroke:none"
       d="m 47.925,124.038 h 13.444 v 4.071 H 47.925 Z" /><path
       id="path16"
       style="fill:#0e1f28;fill-opacity:1;fill-rule:nonzero;stroke:none"
       d="m 118.823,124.038 h 13.444 v 4.071 h -13.444 z" /><g
       id="g18"><g
         clip-path="url(#clipPath24)"
         id="g20"><g
           transform="translate(67.7749,192.1094)"
           id="g26"><path
             id="path28"
             style="fill:#0e1f28;fill-opacity:1;fill-rule:nonzero;stroke:none"
             d="m 0,0 c -2.206,0 -4,-1.794 -4,-4 v -19.571 c 0,-2.206 1.794,-4 4,-4 h 44.643 c 2.205,0 4,1.794 4,4 V -4 c 0,2.206 -1.795,4 -4,4 z M 44.643,-29.571 H 0 c -3.309,0 -6,2.691 -6,6 V -4 c 0,3.309 2.691,6 6,6 h 44.643 c 3.308,0 6,-2.691 6,-6 v -19.571 c 0,-3.309 -2.692,-6 -6,-6" /></g><g
           transform="translate(35.4531,175.2168)"
           id="g30"><path
             id="path32"
             style="fill:#fcbf1e;fill-opacity:1;fill-rule:nonzero;stroke:none"
             d="m 0,0 v -39.143 c 0,-5.523 4.477,-10 10,-10 h 89.286 c 5.523,0 10,4.477 10,10 V 0 c 0,5.522 -4.477,10 -10,10 H 10 C 4.477,10 0,5.522 0,0" /></g><g
           transform="translate(33.5244,171.6455)"
           id="g34"><path
             id="path36"
             style="fill:#fcbf1e;fill-opacity:1;fill-rule:nonzero;stroke:none"
             d="m 0,0 v -4.357 c 0,-1.105 0.896,-2 2,-2 h 109.143 c 1.105,0 2,0.895 2,2 V 0 c 0,1.104 -0.895,2 -2,2 H 2 C 0.896,2 0,1.104 0,0" /></g><g
           transform="translate(35.4531,165.2881)"
           id="g38"><path
             id="path40"
             style="fill:#f99121;fill-opacity:1;fill-rule:nonzero;stroke:none"
             d="M 0,0 109.286,-5.786 V 0 Z" /></g><g
           transform="translate(70.0068,195.6094)"
           id="g42"><path
             id="path44"
             style="fill:#fcbf1e;fill-opacity:1;fill-rule:nonzero;stroke:none"
             d="m 0,0 v -4.357 c 0,-1.105 0.896,-2 2,-2 h 36.179 c 1.104,0 2,0.895 2,2 V 0 c 0,1.104 -0.896,2 -2,2 H 2 C 0.896,2 0,1.104 0,0" /></g><g
           transform="translate(47.9248,175.1807)"
           id="g46"><path
             id="path48"
             style="fill:#0e1f28;fill-opacity:1;fill-rule:nonzero;stroke:none"
             d="m 0,0 v -11.428 c 0,-1.105 0.896,-2 2,-2 h 3.5 c 1.104,0 2,0.895 2,2 V 0 c 0,1.104 -0.896,2 -2,2 H 2 C 0.896,2 0,1.104 0,0" /></g><g
           transform="translate(124.7671,175.1807)"
           id="g50"><path
             id="path52"
             style="fill:#0e1f28;fill-opacity:1;fill-rule:nonzero;stroke:none"
             d="m 0,0 v -11.428 c 0,-1.105 0.896,-2 2,-2 h 3.5 c 1.105,0 2,0.895 2,2 V 0 c 0,1.104 -0.895,2 -2,2 H 2 C 0.896,2 0,1.104 0,0" /></g><g
           transform="translate(64.5532,146.0742)"
           id="g54"><path
             id="path56"
             style="fill:#f99121;fill-opacity:1;fill-rule:nonzero;stroke:none"
             d="M 0,0 V -20 H 51.086 V 0 c 0,2.209 -1.791,4 -4,4 H 4 C 1.791,4 0,2.209 0,0" /></g><g
           transform="translate(64.5532,185.2168)"
           id="g58"><path
             id="path60"
             style="fill:#f99121;fill-opacity:1;fill-rule:nonzero;stroke:none"
             d="m 0,0 v -1.107 c 0,-2.209 1.791,-4 4,-4 h 43.086 c 2.209,0 4,1.791 4,4 V 0 Z" /></g><g
           transform="translate(456.5894,457.8828)"
           id="g62"><path
             id="path64"
             style="fill:#85dee0;fill-opacity:1;fill-rule:nonzero;stroke:none"
             d="M 0,0 C 0,-17.54 14.219,-31.76 31.76,-31.76 49.3,-31.76 63.52,-17.54 63.52,0 63.52,17.541 49.3,31.76 31.76,31.76 14.219,31.76 0,17.541 0,0" /></g><g
           transform="translate(471.2344,457.8828)"
           id="g66"><path
             id="path68"
             style="fill:#b0ebed;fill-opacity:1;fill-rule:nonzero;stroke:none"
             d="m 0,0 c 0,-9.452 7.663,-17.114 17.115,-17.114 9.452,0 17.115,7.662 17.115,17.114 0,9.452 -7.663,17.115 -17.115,17.115 C 7.663,17.115 0,9.452 0,0" /></g><g
           transform="translate(466.9507,457.8828)"
           id="g70"><path
             id="path72"
             style="fill:none;stroke:#b0ebed;stroke-width:1;stroke-linecap:butt;stroke-linejoin:miter;stroke-miterlimit:10;stroke-dasharray:none;stroke-opacity:1"
             d="m 0,0 c 0,-11.817 9.581,-21.398 21.398,-21.398 11.819,0 21.399,9.581 21.399,21.398 0,11.818 -9.58,21.398 -21.399,21.398 C 9.581,21.398 0,11.818 0,0 Z" /></g><g
           transform="translate(525.209,457.8828)"
           id="g74"><path
             id="path76"
             style="fill:#85dee0;fill-opacity:1;fill-rule:nonzero;stroke:none"
             d="M 0,0 C 0,-17.54 14.219,-31.76 31.76,-31.76 49.3,-31.76 63.52,-17.54 63.52,0 63.52,17.541 49.3,31.76 31.76,31.76 14.219,31.76 0,17.541 0,0" /></g><g
           transform="translate(539.8535,457.8828)"
           id="g78"><path
             id="path80"
             style="fill:#b0ebed;fill-opacity:1;fill-rule:nonzero;stroke:none"
             d="m 0,0 c 0,-9.452 7.663,-17.114 17.115,-17.114 9.452,0 17.115,7.662 17.115,17.114 0,9.452 -7.663,17.115 -17.115,17.115 C 7.663,17.115 0,9.452 0,0" /></g><g
           transform="translate(535.5703,457.8828)"
           id="g82"><path
             id="path84"
             style="fill:none;stroke:#b0ebed;stroke-width:1;stroke-linecap:butt;stroke-linejoin:miter;stroke-miterlimit:10;stroke-dasharray:none;stroke-opacity:1"
             d="m 0,0 c 0,-11.817 9.58,-21.398 21.398,-21.398 11.818,0 21.399,9.581 21.399,21.398 0,11.818 -9.581,21.398 -21.399,21.398 C 9.58,21.398 0,11.818 0,0 Z" /></g><g
           transform="translate(593.8281,457.8828)"
           id="g86"><path
             id="path88"
             style="fill:#85dee0;fill-opacity:1;fill-rule:nonzero;stroke:none"
             d="M 0,0 C 0,-17.54 14.219,-31.76 31.76,-31.76 49.3,-31.76 63.52,-17.54 63.52,0 63.52,17.541 49.3,31.76 31.76,31.76 14.219,31.76 0,17.541 0,0" /></g><g
           transform="translate(608.4731,457.8828)"
           id="g90"><path
             id="path92"
             style="fill:#b0ebed;fill-opacity:1;fill-rule:nonzero;stroke:none"
             d="m 0,0 c 0,-9.452 7.663,-17.114 17.115,-17.114 9.452,0 17.115,7.662 17.115,17.114 0,9.452 -7.663,17.115 -17.115,17.115 C 7.663,17.115 0,9.452 0,0" /></g><g
           transform="translate(604.1895,457.8828)"
           id="g94"><path
             id="path96"
             style="fill:none;stroke:#b0ebed;stroke-width:1;stroke-linecap:butt;stroke-linejoin:miter;stroke-miterlimit:10;stroke-dasharray:none;stroke-opacity:1"
             d="m 0,0 c 0,-11.817 9.581,-21.398 21.398,-21.398 11.819,0 21.399,9.581 21.399,21.398 0,11.818 -9.58,21.398 -21.399,21.398 C 9.581,21.398 0,11.818 0,0 Z" /></g><path
           id="path98"
           style="fill:#85dee0;fill-opacity:1;fill-rule:nonzero;stroke:none"
           d="M 437.153,124.038 H 450.01 V 487.714 H 437.153 Z" /><path
           id="path100"
           style="fill:#85dee0;fill-opacity:1;fill-rule:nonzero;stroke:none"
           d="m 663.927,124.038 h 12.857 v 363.676 h -12.857 z" /><path
           id="path102"
           style="fill:#85dee0;fill-opacity:1;fill-rule:nonzero;stroke:none"
           d="m 670.355,426.123 h -228.93 v -12.856 h 228.93 z" /><g
           transform="translate(456.5894,367.417)"
           id="g104"><path
             id="path106"
             style="fill:#85dee0;fill-opacity:1;fill-rule:nonzero;stroke:none"
             d="M 0,0 C 0,-17.541 14.219,-31.76 31.76,-31.76 49.3,-31.76 63.52,-17.541 63.52,0 63.52,17.54 49.3,31.76 31.76,31.76 14.219,31.76 0,17.54 0,0" /></g><g
           transform="translate(471.2344,367.417)"
           id="g108"><path
             id="path110"
             style="fill:#b0ebed;fill-opacity:1;fill-rule:nonzero;stroke:none"
             d="m 0,0 c 0,-9.453 7.663,-17.115 17.115,-17.115 9.452,0 17.115,7.662 17.115,17.115 0,9.452 -7.663,17.114 -17.115,17.114 C 7.663,17.114 0,9.452 0,0" /></g><g
           transform="translate(466.9507,367.417)"
           id="g112"><path
             id="path114"
             style="fill:none;stroke:#b0ebed;stroke-width:1;stroke-linecap:butt;stroke-linejoin:miter;stroke-miterlimit:10;stroke-dasharray:none;stroke-opacity:1"
             d="m 0,0 c 0,-11.818 9.581,-21.398 21.398,-21.398 11.819,0 21.399,9.58 21.399,21.398 0,11.817 -9.58,21.398 -21.399,21.398 C 9.581,21.398 0,11.817 0,0 Z" /></g><g
           transform="translate(525.209,367.417)"
           id="g116"><path
             id="path118"
             style="fill:#85dee0;fill-opacity:1;fill-rule:nonzero;stroke:none"
             d="M 0,0 C 0,-17.541 14.219,-31.76 31.76,-31.76 49.3,-31.76 63.52,-17.541 63.52,0 63.52,17.54 49.3,31.76 31.76,31.76 14.219,31.76 0,17.54 0,0" /></g><g
           transform="translate(539.8535,367.417)"
           id="g120"><path
             id="path122"
             style="fill:#b0ebed;fill-opacity:1;fill-rule:nonzero;stroke:none"
             d="m 0,0 c 0,-9.453 7.663,-17.115 17.115,-17.115 9.452,0 17.115,7.662 17.115,17.115 0,9.452 -7.663,17.114 -17.115,17.114 C 7.663,17.114 0,9.452 0,0" /></g><g
           transform="translate(535.5703,367.417)"
           id="g124"><path
             id="path126"
             style="fill:#b0ebed;fill-opacity:1;fill-rule:nonzero;stroke:none"
             d="m 0,0 c 0,-11.818 9.58,-21.398 21.398,-21.398 11.818,0 21.399,9.58 21.399,21.398 0,11.817 -9.581,21.398 -21.399,21.398 C 9.58,21.398 0,11.817 0,0" /></g><path
           id="path128"
           style="fill:#85dee0;fill-opacity:1;fill-rule:nonzero;stroke:none"
           d="M 670.355,335.657 H 441.425 V 322.8 h 228.93 z" /><g
           transform="translate(525.209,276.9502)"
           id="g130"><path
             id="path132"
             style="fill:#85dee0;fill-opacity:1;fill-rule:nonzero;stroke:none"
             d="M 0,0 C 0,-17.541 14.219,-31.76 31.76,-31.76 49.3,-31.76 63.52,-17.541 63.52,0 63.52,17.54 49.3,31.76 31.76,31.76 14.219,31.76 0,17.54 0,0" /></g><g
           transform="translate(539.8535,276.9502)"
           id="g134"><path
             id="path136"
             style="fill:#b0ebed;fill-opacity:1;fill-rule:nonzero;stroke:none"
             d="m 0,0 c 0,-9.452 7.663,-17.115 17.115,-17.115 9.452,0 17.115,7.663 17.115,17.115 0,9.452 -7.663,17.115 -17.115,17.115 C 7.663,17.115 0,9.452 0,0" /></g><g
           transform="translate(535.5703,276.9502)"
           id="g138"><path
             id="path140"
             style="fill:none;stroke:#b0ebed;stroke-width:1;stroke-linecap:butt;stroke-linejoin:miter;stroke-miterlimit:10;stroke-dasharray:none;stroke-opacity:1"
             d="m 0,0 c 0,-11.818 9.58,-21.398 21.398,-21.398 11.818,0 21.399,9.58 21.399,21.398 0,11.818 -9.581,21.398 -21.399,21.398 C 9.58,21.398 0,11.818 0,0 Z" /></g><g
           transform="translate(593.8281,276.9502)"
           id="g142"><path
             id="path144"
             style="fill:#85dee0;fill-opacity:1;fill-rule:nonzero;stroke:none"
             d="M 0,0 C 0,-17.541 14.219,-31.76 31.76,-31.76 49.3,-31.76 63.52,-17.541 63.52,0 63.52,17.54 49.3,31.76 31.76,31.76 14.219,31.76 0,17.54 0,0" /></g><g
           transform="translate(608.4731,276.9502)"
           id="g146"><path
             id="path148"
             style="fill:#b0ebed;fill-opacity:1;fill-rule:nonzero;stroke:none"
             d="m 0,0 c 0,-9.452 7.663,-17.115 17.115,-17.115 9.452,0 17.115,7.663 17.115,17.115 0,9.452 -7.663,17.115 -17.115,17.115 C 7.663,17.115 0,9.452 0,0" /></g><g
           transform="translate(604.1895,276.9502)"
           id="g150"><path
             id="path152"
             style="fill:none;stroke:#b0ebed;stroke-width:1;stroke-linecap:butt;stroke-linejoin:miter;stroke-miterlimit:10;stroke-dasharray:none;stroke-opacity:1"
             d="m 0,0 c 0,-11.818 9.581,-21.398 21.398,-21.398 11.819,0 21.399,9.58 21.399,21.398 0,11.818 -9.58,21.398 -21.399,21.398 C 9.581,21.398 0,11.818 0,0 Z" /></g><path
           id="path154"
           style="fill:#85dee0;fill-opacity:1;fill-rule:nonzero;stroke:none"
           d="m 670.355,245.19 h -228.93 v -12.857 h 228.93 z" /><path
           id="path156"
           style="fill:#85dee0;fill-opacity:1;fill-rule:nonzero;stroke:none"
           d="M 308.7,124.038 H 267.274 V 344.95 H 308.7 Z" /><path
           id="path158"
           style="fill:#b0ebed;fill-opacity:1;fill-rule:nonzero;stroke:none"
           d="m 308.7,124.038 h -4.991 V 344.95 h 4.991 z" /><g
           transform="translate(308.6997,344.9502)"
           id="g160"><path
             id="path162"
             style="fill:#0fabbc;fill-opacity:1;fill-rule:nonzero;stroke:none"
             d="m 0,0 v -11.181 l -41.426,-7.684 V 0 Z" /></g><path
           id="path164"
           style="fill:#85dee0;fill-opacity:1;fill-rule:nonzero;stroke:none"
           d="m 326.135,333.77 h -76.296 v 11.181 h 76.296 z" /><g
           transform="translate(172.6455,481.1777)"
           id="g166"><path
             id="path168"
             style="fill:#0fabbc;fill-opacity:1;fill-rule:nonzero;stroke:none"
             d="m 0,0 -9.917,-0.846 4.959,-17.276 z" /></g><g
           transform="translate(133.2144,411.7861)"
           id="g170"><path
             id="path172"
             style="fill:#0fabbc;fill-opacity:1;fill-rule:nonzero;stroke:none"
             d="m 0,0 c 6.206,20.169 39.431,69.392 39.431,69.392 0,0 124.561,11.879 155.064,3.609 30.503,-8.27 78.939,-58.575 78.939,-58.575 0,0 45.873,-5.439 68.702,-12.079 22.829,-6.641 27.647,-15.597 27.647,-15.597 l 0.84,-24.8 7.122,-3.413 C 376.71,-55 369.595,-70.849 369.595,-70.849 H 326.955 243.343 87.936 4.324 -1.551 c -6.206,8.791 -8.447,25.34 -8.447,25.34 0,0 3.792,25.34 9.998,45.509" /></g><g
           transform="translate(133.2144,411.7861)"
           id="g174"><path
             id="path176"
             style="fill:#b0ebed;fill-opacity:1;fill-rule:nonzero;stroke:none"
             d="m 0,0 c 6.206,20.169 39.431,69.392 39.431,69.392 0,0 124.561,11.879 155.064,3.609 30.503,-8.27 78.939,-58.575 78.939,-58.575 0,0 45.873,-5.439 68.702,-12.079 22.829,-6.641 27.647,-15.597 27.647,-15.597 l 0.84,-24.8 7.122,-3.413 c -1.035,-13.537 -8.15,-29.386 -8.15,-29.386 h -42.64 v 4.784 c 0,23.087 -18.717,41.805 -41.806,41.805 v 0 c -23.088,0 -41.806,-18.718 -41.806,-41.805 v -4.784 H 87.936 v 4.784 c 0,23.087 -18.718,41.805 -41.806,41.805 h -0.001 c -23.088,0 -41.805,-18.718 -41.805,-41.805 v -4.784 h -5.875 c -6.206,8.791 -8.447,25.34 -8.447,25.34 0,0 3.792,25.34 9.998,45.509" /></g><g
           transform="translate(324.373,480.1279)"
           id="g178"><path
             id="path180"
             style="fill:#0fabbc;fill-opacity:1;fill-rule:nonzero;stroke:none"
             d="m 0,0 c 19.38,-5.021 71.845,-60.561 71.845,-60.561 l -216.874,9.74 -16.615,15.038 c 0,0 19.138,24.843 35.542,31.515 C -109.697,2.405 -18.087,4.686 0,0" /></g><g
           transform="translate(437.2285,344.9502)"
           id="g182"><path
             id="path184"
             style="fill:#b0ebed;fill-opacity:1;fill-rule:nonzero;stroke:none"
             d="m 0,0 c 0,-10.419 -8.446,-18.865 -18.865,-18.865 -10.419,0 -18.865,8.446 -18.865,18.865 0,10.419 8.446,18.864 18.865,18.864 C -8.446,18.864 0,10.419 0,0" /></g><g
           transform="translate(433.0771,344.9502)"
           id="g186"><path
             id="path188"
             style="fill:none;stroke:#0fabbc;stroke-width:1;stroke-linecap:butt;stroke-linejoin:miter;stroke-miterlimit:10;stroke-dasharray:none;stroke-opacity:1"
             d="m 0,0 c 0,-8.126 -6.587,-14.714 -14.713,-14.714 -8.127,0 -14.714,6.588 -14.714,14.714 0,8.126 6.587,14.714 14.714,14.714 C -6.587,14.714 0,8.126 0,0 Z" /></g><g
           transform="translate(428.5967,344.9502)"
           id="g190"><path
             id="path192"
             style="fill:#85dee0;fill-opacity:1;fill-rule:nonzero;stroke:none"
             d="m 0,0 c 0,-5.651 -4.582,-10.233 -10.233,-10.233 -5.652,0 -10.233,4.582 -10.233,10.233 0,5.651 4.581,10.232 10.233,10.232 C -4.582,10.232 0,5.651 0,0" /></g><g
           transform="translate(198.209,344.9502)"
           id="g194"><path
             id="path196"
             style="fill:#b0ebed;fill-opacity:1;fill-rule:nonzero;stroke:none"
             d="m 0,0 c 0,-10.419 -8.446,-18.865 -18.865,-18.865 -10.419,0 -18.865,8.446 -18.865,18.865 0,10.419 8.446,18.864 18.865,18.864 C -8.446,18.864 0,10.419 0,0" /></g><g
           transform="translate(194.0576,344.9502)"
           id="g198"><path
             id="path200"
             style="fill:none;stroke:#0fabbc;stroke-width:1;stroke-linecap:butt;stroke-linejoin:miter;stroke-miterlimit:10;stroke-dasharray:none;stroke-opacity:1"
             d="m 0,0 c 0,-8.126 -6.587,-14.714 -14.714,-14.714 -8.126,0 -14.713,6.588 -14.713,14.714 0,8.126 6.587,14.714 14.713,14.714 C -6.587,14.714 0,8.126 0,0 Z" /></g><g
           transform="translate(189.5767,344.9502)"
           id="g202"><path
             id="path204"
             style="fill:#85dee0;fill-opacity:1;fill-rule:nonzero;stroke:none"
             d="m 0,0 c 0,-5.651 -4.581,-10.233 -10.233,-10.233 -5.651,0 -10.232,4.582 -10.232,10.233 0,5.651 4.581,10.232 10.232,10.232 C -4.581,10.232 0,5.651 0,0" /></g><g
           transform="translate(199.1265,473.7598)"
           id="g206"><path
             id="path208"
             style="fill:#e4f9ff;fill-opacity:1;fill-rule:nonzero;stroke:none"
             d="m 0,0 c 9.98,4.06 51.383,6.572 84.019,6.572 19.952,0 34.772,-0.875 40.659,-2.399 12.132,-3.144 38.486,-27.618 55.386,-44.302 l -7.79,-10.679 -191.139,8.585 -14.43,13.06 C -28.761,-23.589 -13.267,-5.396 0,0" /></g><g
           transform="translate(270.1235,486.7803)"
           id="g210"><path
             id="path212"
             style="fill:#b0ebed;fill-opacity:1;fill-rule:nonzero;stroke:none"
             d="m 0,0 4.804,-72.219 h -15.307 l 1.606,71.023 z" /></g><g
           transform="translate(472.2856,385.8535)"
           id="g214"><path
             id="path216"
             style="fill:#0fabbc;fill-opacity:1;fill-rule:nonzero;stroke:none"
             d="m 0,0 c -3.402,3.646 -6.453,11.909 -6.453,11.909 l 37.164,0.774 0.644,-18.991 C 22.707,-5.349 2.658,-2.847 0,0" /></g><g
           transform="translate(495.7505,384.752)"
           id="g218"><path
             id="path220"
             style="fill:#ffffff;fill-opacity:1;fill-rule:nonzero;stroke:none"
             d="m 0,0 c 0,0 -13.982,-0.99 -21.186,-0.151 -1.084,0.407 -1.88,0.826 -2.279,1.253 -3.402,3.645 -6.452,11.909 -6.452,11.909 L 0,9.368 Z" /></g><g
           transform="translate(500.7197,360.6318)"
           id="g222"><path
             id="path224"
             style="fill:#85dee0;fill-opacity:1;fill-rule:nonzero;stroke:none"
             d="m 0,0 -24.283,3.183 c 0,0 -3.925,-8.582 -2.093,-15.387 h 23.46 c 0,0 1.944,6.425 2.916,12.204" /></g><g
           transform="translate(479.0903,360.6318)"
           id="g226"><path
             id="path228"
             style="fill:#0fabbc;fill-opacity:1;fill-rule:nonzero;stroke:none"
             d="M 0,0 14.217,-1.685 12.88,-10.382 H -1.094 c 0,0 -0.486,3.874 1.094,10.382" /></g><g
           transform="translate(478.9312,359.9375)"
           id="g230"><path
             id="path232"
             style="fill:#ffffff;fill-opacity:1;fill-rule:nonzero;stroke:none"
             d="M 0,0 8.357,-0.99 7.021,-9.688 h -7.956 c 0,0 -0.445,3.604 0.935,9.688" /></g><g
           transform="translate(510.959,370.3232)"
           id="g234"><path
             id="path236"
             style="fill:#1f96aa;fill-opacity:1;fill-rule:nonzero;stroke:none"
             d="m 0,0 h -63.948 l -1.678,1.678 58.504,1.735 z" /></g><g
           transform="translate(305.9937,412.8057)"
           id="g238"><path
             id="path240"
             style="fill:#85dee0;fill-opacity:1;fill-rule:nonzero;stroke:none"
             d="m 0,0 -31.066,1.756 1.369,-4.208 c 0.432,-1.329 1.632,-2.258 3.027,-2.344 l 21.194,-1.303 c 1.336,-0.082 2.596,0.627 3.22,1.812 z" /></g><g
           transform="translate(207.2661,417.8115)"
           id="g242"><path
             id="path244"
             style="fill:#85dee0;fill-opacity:1;fill-rule:nonzero;stroke:none"
             d="m 0,0 -31.066,1.756 1.369,-4.209 c 0.432,-1.328 1.633,-2.258 3.027,-2.343 l 21.194,-1.303 c 1.336,-0.082 2.596,0.627 3.22,1.811 z" /></g><g
           transform="translate(386.7397,436.7617)"
           id="g246"><path
             id="path248"
             style="fill:none;stroke:#0fabbc;stroke-width:1;stroke-linecap:butt;stroke-linejoin:miter;stroke-miterlimit:10;stroke-dasharray:none;stroke-opacity:1"
             d="m 0,0 c 0,0 -1.458,-44.225 -14.582,-86.512 h -105.002 l -1.625,134.272 c 0,0 51.755,1.38 60.6,-1.922 C -51.765,42.536 0,0 0,0 Z" /></g><g
           transform="translate(265.5303,484.5215)"
           id="g250"><path
             id="path252"
             style="fill:none;stroke:#0fabbc;stroke-width:1;stroke-linecap:butt;stroke-linejoin:miter;stroke-miterlimit:10;stroke-dasharray:none;stroke-opacity:1"
             d="m 0,0 c 0,0 -57.416,-1.123 -69.811,-6.818 -12.394,-5.696 -25.517,-18.786 -37.547,-34.661 0,0 3.289,-39.933 7.659,-53.057 0,0 47.751,12.394 59.052,-39.735 H 1.625 Z" /></g><g
           transform="translate(140.3096,415.6367)"
           id="g254"><path
             id="path256"
             style="fill:#85dee0;fill-opacity:1;fill-rule:nonzero;stroke:none"
             d="m 0,0 -11.613,-20.924 c 0,0 -3.698,14.29 -2.24,16.993 C -12.395,-1.227 0,0 0,0" /></g><g
           transform="translate(164.4316,317.373)"
           id="g258"><path
             id="path260"
             style="fill:#929aab;fill-opacity:1;fill-rule:nonzero;stroke:none"
             d="m 0,0 -4.544,3.744 0.962,5.76 5.514,2.063 L 6.476,7.824 5.514,2.063 Z M 9.904,1.108 C 9.935,1.168 9.97,1.225 10,1.285 c 0.102,0.206 0.192,0.417 0.28,0.631 0.07,0.168 0.136,0.339 0.197,0.512 0.063,0.179 0.126,0.358 0.178,0.544 0.095,0.322 0.172,0.651 0.235,0.988 0.008,0.047 0.025,0.09 0.032,0.137 10e-4,0.007 0.002,0.015 0.003,0.023 10e-4,0.008 0.004,0.015 0.005,0.023 0.008,0.046 0.007,0.093 0.014,0.139 0.05,0.339 0.083,0.677 0.099,1.012 0.01,0.192 0.009,0.382 0.008,0.572 -10e-4,0.184 -0.008,0.366 -0.02,0.548 -0.013,0.231 -0.03,0.46 -0.059,0.688 -0.009,0.066 -0.024,0.131 -0.034,0.198 -0.14,0.925 -0.406,1.811 -0.785,2.646 -0.001,0.002 -0.002,0.005 -0.004,0.007 -0.628,1.384 -1.546,2.623 -2.716,3.602 L 7.425,13.508 C 6.093,14.622 4.463,15.414 2.626,15.721 0.79,16.027 -1.01,15.809 -2.632,15.188 l 0.008,0.046 C -4.048,14.69 -5.318,13.816 -6.363,12.713 -6.365,12.711 -6.368,12.708 -6.37,12.705 -7,12.039 -7.54,11.288 -7.972,10.459 -8.003,10.399 -8.038,10.343 -8.068,10.282 -8.17,10.077 -8.26,9.865 -8.348,9.651 -8.418,9.483 -8.483,9.313 -8.545,9.14 -8.608,8.96 -8.67,8.781 -8.723,8.597 -8.817,8.274 -8.896,7.944 -8.958,7.607 -8.966,7.561 -8.982,7.518 -8.99,7.471 -8.992,7.463 -8.992,7.455 -8.993,7.447 -8.994,7.439 -8.997,7.433 -8.998,7.425 -9.006,7.378 -9.005,7.332 -9.012,7.285 -9.062,6.946 -9.096,6.609 -9.111,6.273 -9.121,6.082 -9.121,5.892 -9.12,5.701 -9.118,5.518 -9.111,5.336 -9.1,5.154 -9.085,4.923 -9.07,4.693 -9.04,4.467 -9.031,4.399 -9.016,4.334 -9.006,4.268 -8.867,3.343 -8.6,2.457 -8.221,1.622 -8.22,1.619 -8.219,1.617 -8.218,1.614 c 0.63,-1.384 1.547,-2.623 2.717,-3.6 l 0.007,0.046 c 1.333,-1.114 2.963,-1.907 4.8,-2.213 C 1.143,-4.46 2.942,-4.24 4.564,-3.62 L 4.556,-3.667 c 1.424,0.545 2.694,1.418 3.739,2.521 0.002,0.003 0.004,0.005 0.007,0.008 0.63,0.666 1.169,1.418 1.602,2.246" /></g><g
           transform="translate(156.7437,271.4707)"
           id="g262"><path
             id="path264"
             style="fill:#929aab;fill-opacity:1;fill-rule:nonzero;stroke:none"
             d="M 0,0 C -0.731,0.122 -1.225,0.814 -1.103,1.546 -0.981,2.277 -0.289,2.771 0.442,2.648 1.174,2.526 1.667,1.835 1.545,1.104 1.423,0.372 0.731,-0.122 0,0 M 2.444,45.456 -4.776,2.237 c -0.463,-2.766 1.406,-5.384 4.173,-5.846 2.767,-0.463 5.385,1.406 5.847,4.172 l 7.22,43.219 z" /></g><g
           transform="translate(160.166,306.6289)"
           id="g266"><path
             id="path268"
             style="fill:#76839b;fill-opacity:1;fill-rule:nonzero;stroke:none"
             d="m 0,0 -4.115,-24.634 c -0.222,-1.327 0.674,-2.583 2.001,-2.804 1.327,-0.222 2.583,0.674 2.805,2.001 L 4.807,-0.803 C 5.028,0.524 4.132,1.78 2.805,2.002 1.478,2.224 0.222,1.327 0,0" /></g><g
           transform="translate(98.4878,284.1982)"
           id="g270"><path
             id="path272"
             style="fill:#929aab;fill-opacity:1;fill-rule:nonzero;stroke:none"
             d="M 0,0 C -0.801,-0.205 -1.616,0.278 -1.82,1.079 -2.025,1.881 -1.542,2.695 -0.74,2.9 0.061,3.104 0.875,2.621 1.08,1.82 1.285,1.019 0.801,0.204 0,0 M -17.96,47.461 -5.878,0.133 c 0.774,-3.03 3.857,-4.861 6.887,-4.086 3.031,0.773 4.86,3.856 4.086,6.887 L -6.987,50.262 Z" /></g><g
           transform="translate(86.1387,321.5918)"
           id="g274"><path
             id="path276"
             style="fill:#76839b;fill-opacity:1;fill-rule:nonzero;stroke:none"
             d="m 0,0 6.887,-26.977 c 0.371,-1.454 1.85,-2.331 3.303,-1.96 1.454,0.372 2.331,1.85 1.96,3.303 L 5.263,1.344 C 4.892,2.797 3.413,3.674 1.96,3.303 0.506,2.933 -0.371,1.453 0,0" /></g><g
           transform="translate(87.5923,349.8555)"
           id="g278"><path
             id="path280"
             style="fill:#929aab;fill-opacity:1;fill-rule:nonzero;stroke:none"
             d="m 0,0 2.621,-10.268 -11.014,-2.811 -3.016,11.815 c -0.091,-0.101 -4.952,-5.525 -3.789,-10.081 1.174,-4.599 8.181,-7.081 8.181,-7.081 l 6.182,-1.282 5.206,2.543 c 0,0 5.389,3.855 4.215,8.455 C 7.423,-4.154 0.138,-0.077 0,0" /></g><g
           transform="translate(179.8896,393.7012)"
           id="g282"><path
             id="path284"
             style="fill:#ffcfb6;fill-opacity:1;fill-rule:nonzero;stroke:none"
             d="m 0,0 24.242,-49.847 33.707,-48.348 -10.22,-7.703 c 0,0 -23.08,19.406 -38.298,37.862 -5.503,6.675 -24.846,45.356 -24.846,45.356 0,0 0.048,13.857 15.415,22.68" /></g><g
           transform="translate(253.4805,296.4414)"
           id="g286"><path
             id="path288"
             style="fill:#ffada5;fill-opacity:1;fill-rule:nonzero;stroke:none"
             d="m 0,0 18.178,-12.154 c 0,0 -5.216,-1.151 -8.839,-0.973 -3.623,0.179 -19.884,4.488 -19.884,4.488 l -5.097,7.703 z" /></g><g
           transform="translate(237.8389,295.5059)"
           id="g290"><path
             id="path292"
             style="fill:#ffcfb6;fill-opacity:1;fill-rule:nonzero;stroke:none"
             d="M 0,0 C 0,0 13.855,1.023 15.642,0.936 17.428,0.849 37.297,-9.69 37.297,-9.69 c 0,0 -1.471,-1.447 -4.508,-1.527 -3.037,-0.081 -17.147,4.385 -18.576,4.385 -1.429,0 -10.061,-3.751 -12.89,-3.751 -2.829,0 -11.543,2.88 -11.543,2.88 z" /></g><g
           transform="translate(237.8389,295.5059)"
           id="g294"><path
             id="path296"
             style="fill:#ffcfb6;fill-opacity:1;fill-rule:nonzero;stroke:none"
             d="m 0,0 c 0,0 4.21,-4.511 7.425,-7.011 3.215,-2.501 11.597,-5.894 11.597,-5.894 0,0 -4.251,-2.501 -6.942,-2.501 -2.69,0 -10.757,1.965 -10.757,1.965 0,0 -7.417,2.366 -11.543,5.738 z" /></g><g
           transform="translate(182.3818,394.0918)"
           id="g298"><path
             id="path300"
             style="fill:#ff0f16;fill-opacity:1;fill-rule:nonzero;stroke:none"
             d="m 0,0 c 0,0 18.773,-41.386 24.658,-52.117 3.132,-5.712 7.573,-12.591 11.043,-17.777 3.05,-4.558 5.351,-7.809 5.351,-7.809 0,0 -5.835,-9.827 -14.613,-12.36 0,0 -14.91,13.718 -20.536,19.544 -5.627,5.826 -24.986,46.629 -24.986,46.629 0,0 2.195,19.458 19.083,23.89" /></g><g
           transform="translate(207.0396,341.9746)"
           id="g302"><path
             id="path304"
             style="fill:none;stroke:#0e1f28;stroke-width:0.5;stroke-linecap:butt;stroke-linejoin:miter;stroke-miterlimit:10;stroke-dasharray:none;stroke-opacity:1"
             d="m 0,0 c 0,0 -12.325,3.011 -16.433,-10.855 0,0 5.765,5.836 14.939,9.828" /></g><g
           transform="translate(218.083,324.1982)"
           id="g306"><path
             id="path308"
             style="fill:#d10514;fill-opacity:1;fill-rule:nonzero;stroke:none"
             d="m 0,0 h 2.889 c 0,0 5.661,-9.315 5.956,-13.043 0,0 -8.316,-7.656 -16.156,-10.515 l -9.615,7.681 -0.002,2.834 c 0,0 18.684,6.234 16.928,13.043" /></g><g
           transform="translate(172.1284,385.7236)"
           id="g310"><path
             id="path312"
             style="fill:#d10514;fill-opacity:1;fill-rule:nonzero;stroke:none"
             d="m 0,0 -3.768,-1.977 c -4.269,-6.554 -5.062,-13.544 -5.062,-13.544 0,0 19.36,-40.804 24.986,-46.629 0.877,-0.909 1.98,-2.008 3.216,-3.218 C 7.232,-41.307 0,0 0,0" /></g><g
           transform="translate(79.8926,140.6504)"
           id="g314"><path
             id="path316"
             style="fill:#0e1f28;fill-opacity:1;fill-rule:nonzero;stroke:none"
             d="m 0,0 c 0,0 -4.499,-4.568 -7.268,-8.029 -2.769,-3.461 -3.737,-8.583 -3.737,-8.583 h 27.55 c 0,0 3.323,7.752 -1.384,16.612 z" /></g><g
           transform="translate(99.8213,331.0693)"
           id="g318"><path
             id="path320"
             style="fill:#ffcfb6;fill-opacity:1;fill-rule:nonzero;stroke:none"
             d="m 0,0 -19.989,-190.419 15.221,0.026 c 0,0 28.146,131.289 37.154,190.443 C 32.386,0.05 14.101,0 0,0" /></g><g
           transform="translate(69.6309,126.7686)"
           id="g322"><path
             id="path324"
             style="fill:#ffffff;fill-opacity:1;fill-rule:nonzero;stroke:none"
             d="m 0,0 c -0.522,-1.576 -0.744,-2.73 -0.744,-2.73 h 27.551 c 0,0 0.432,1.021 0.764,2.73 z" /></g><g
           transform="translate(69.1284,124.0381)"
           id="g326"><path
             id="path328"
             style="fill:#ffffff;fill-opacity:1;fill-rule:nonzero;stroke:none"
             d="m 0,0 h 21.409 c 0.192,0.814 0.304,1.659 0.304,2.532 0,6.08 -4.929,11.009 -11.009,11.009 -1.167,0 -2.291,-0.186 -3.347,-0.521 C 6.066,11.615 4.636,10.007 3.497,8.583 1.278,5.81 0.217,1.976 -0.118,0.56 -0.084,0.371 -0.043,0.185 0,0" /></g><g
           transform="translate(82.4697,165.7715)"
           id="g330"><path
             id="path332"
             style="fill:#ffffff;fill-opacity:1;fill-rule:nonzero;stroke:none"
             d="m 0,0 -2.637,-25.121 15.221,0.026 c 0,0 2.523,12.534 5.306,25.095 z" /></g><g
           transform="translate(79.8325,140.6504)"
           id="g334"><path
             id="path336"
             style="fill:#0e1f28;fill-opacity:1;fill-rule:nonzero;stroke:none"
             d="M 0,0 C 0,0 3.509,8.976 11.009,0 Z" /></g><g
           transform="translate(138.7485,140.6504)"
           id="g338"><path
             id="path340"
             style="fill:#0e1f28;fill-opacity:1;fill-rule:nonzero;stroke:none"
             d="m 0,0 c 0,0 -5.902,-8.481 -3.92,-16.612 h 47.624 c 0,0 1.522,6.796 -6.507,8.632 C 19.628,-3.961 17,0 17,0 Z" /></g><g
           transform="translate(126.2764,331.0693)"
           id="g342"><path
             id="path344"
             style="fill:#ffcfb6;fill-opacity:1;fill-rule:nonzero;stroke:none"
             d="m 0,0 7.46,-106.757 4.96,-83.662 17.052,0.026 c 0,0 4.241,131.289 2.906,190.443 C 32.378,0.05 14.101,0 0,0" /></g><g
           transform="translate(134.8281,124.0381)"
           id="g346"><path
             id="path348"
             style="fill:#ffffff;fill-opacity:1;fill-rule:nonzero;stroke:none"
             d="m 0,0 h 47.624 c 0,0 0.261,1.203 -0.022,2.73 H -0.376 C -0.332,1.824 -0.222,0.91 0,0" /></g><g
           transform="translate(175.9458,132.6699)"
           id="g350"><path
             id="path352"
             style="fill:#ffffff;fill-opacity:1;fill-rule:nonzero;stroke:none"
             d="m 0,0 c -2.297,0.525 -4.333,1.05 -6.147,1.564 -1.925,-1.982 -3.116,-4.682 -3.116,-7.664 0,-0.873 0.113,-1.717 0.305,-2.532 H 6.506 c 0,0 1.522,6.796 -6.506,8.632" /></g><g
           transform="translate(136.2314,165.7715)"
           id="g354"><path
             id="path356"
             style="fill:#ffffff;fill-opacity:1;fill-rule:nonzero;stroke:none"
             d="m 0,0 2.465,-25.121 17.052,0.026 c 0,0 0.315,9.741 0.745,25.095 z" /></g><g
           transform="translate(148.3716,140.665)"
           id="g358"><path
             id="path360"
             style="fill:#0e1f28;fill-opacity:1;fill-rule:nonzero;stroke:none"
             d="M 0,0 C 0,0 0.929,4.649 7.594,4.649 L 7.377,0.012 Z" /></g><g
           transform="translate(139.125,419.3574)"
           id="g362"><path
             id="path364"
             style="fill:#ff0f16;fill-opacity:1;fill-rule:nonzero;stroke:none"
             d="m 0,0 c 0,0 -15.747,1.44 -28.54,0.093 0,0 -13.672,-45.42 -16.476,-88.38 0,0 42.122,-10.811 67.242,0.049 l 21.031,62.972 c 0,0 -7.561,8.975 -16.777,16.794 z" /></g><g
           transform="translate(154.9189,442.7178)"
           id="g366"><path
             id="path368"
             style="fill:#ffcfb6;fill-opacity:1;fill-rule:nonzero;stroke:none"
             d="m 0,0 -15.794,-23.36 16.831,-20.9 5.168,-0.125 4.481,12.553 4.78,17.914 z" /></g><g
           transform="translate(170.3853,428.7998)"
           id="g370"><path
             id="path372"
             style="fill:#ffada5;fill-opacity:1;fill-rule:nonzero;stroke:none"
             d="M 0,0 -15.466,13.918 -22.519,3.486 c 1.063,-3.586 2.674,-6.985 5.105,-8.577 4.31,-2.821 11.148,-3.477 15.092,-3.609 z" /></g><g
           transform="translate(167.3511,465.5508)"
           id="g374"><path
             id="path376"
             style="fill:#ffcfb6;fill-opacity:1;fill-rule:nonzero;stroke:none"
             d="m 0,0 c 21.876,-3.907 18.617,-4.579 16.831,-19.943 -0.613,-5.274 -2.32,-8.951 -3.059,-12.816 -1.414,-7.397 -3.337,-12.868 -7.792,-12.042 -8.648,1.603 -17.536,5.531 -20.165,12.497 -1.565,4.148 -3.135,18.516 1.946,25.716 C -8.503,-1.295 -3.42,0.611 0,0" /></g><g
           transform="translate(182.8281,448.1377)"
           id="g378"><path
             id="path380"
             style="fill:#0e1f28;fill-opacity:1;fill-rule:nonzero;stroke:none"
             d="m 0,0 c -0.493,0.087 -0.992,-0.406 -1.115,-1.103 -0.123,-0.696 0.178,-1.331 0.671,-1.418 0.493,-0.086 0.992,0.408 1.114,1.104 C 0.793,-0.722 0.493,-0.087 0,0" /></g><g
           transform="translate(175.7739,432.9434)"
           id="g382"><path
             id="path384"
             style="fill:none;stroke:#ffada5;stroke-width:0.5;stroke-linecap:butt;stroke-linejoin:miter;stroke-miterlimit:10;stroke-dasharray:none;stroke-opacity:1"
             d="M 0,0 C 0,0 -5.166,-1.375 -10.169,4.158" /></g><g
           transform="translate(154.9189,442.7178)"
           id="g386"><path
             id="path388"
             style="fill:#0e1f28;fill-opacity:1;fill-rule:nonzero;stroke:none"
             d="m 0,0 c 0,0 2.938,5.568 4.222,10.562 0,0 5.334,1.689 5.385,8.364 0,0 17.707,-5.479 22.699,-4.789 4.993,0.689 3.611,9.707 3.611,9.707 0,0 -6.895,-0.104 -10.243,-0.019 C 22.327,23.911 5.007,34.176 -5.612,18.059 -14.07,5.224 -4.294,-6.343 -4.294,-6.343 Z" /></g><g
           transform="translate(170.4941,449.9336)"
           id="g390"><path
             id="path392"
             style="fill:#0e1f28;fill-opacity:1;fill-rule:nonzero;stroke:none"
             d="m 0,0 c -0.493,0.087 -0.992,-0.407 -1.115,-1.104 -0.122,-0.695 0.178,-1.33 0.671,-1.417 0.493,-0.086 0.992,0.407 1.115,1.103 C 0.793,-0.722 0.493,-0.087 0,0" /></g><g
           transform="translate(165.2983,452.5566)"
           id="g394"><path
             id="path396"
             style="fill:#0e1f28;fill-opacity:1;fill-rule:nonzero;stroke:none"
             d="m 0,0 c 0,0 4.054,2.227 10.174,1.783 0,0 -0.221,2.911 -2.544,3.11 C 5.309,5.09 0.586,4.019 0,0" /></g><g
           transform="translate(180.7656,453.2314)"
           id="g398"><path
             id="path400"
             style="fill:#0e1f28;fill-opacity:1;fill-rule:nonzero;stroke:none"
             d="m 0,0 c 0,0 2.724,-0.334 4.467,-2.22 0,0 0.646,2.079 -1.14,3.553 C 1.541,2.808 0.603,2.819 0,0" /></g><g
           transform="translate(180.8267,441.6836)"
           id="g402"><path
             id="path404"
             style="fill:#ffada5;fill-opacity:1;fill-rule:nonzero;stroke:none"
             d="m 0,0 c 0.243,-2.608 -0.081,-6.333 -1.538,-6.009 -1.457,0.324 -3.331,3.266 -3.331,3.266 0,0 -1.526,-0.096 -1.364,1.436 0.162,1.532 1.364,2.26 1.364,2.26 l 2.587,5.722 c 0,0 2.039,-4.066 2.282,-6.675" /></g><g
           transform="translate(184.1816,445.6074)"
           id="g406"><path
             id="path408"
             style="fill:#ffcfb6;fill-opacity:1;fill-rule:nonzero;stroke:none"
             d="m 0,0 c 0,0 0.47,-2.519 0.279,-6.626 -0.19,-4.108 -6.72,-10.895 -6.72,-10.895 z" /></g><g
           transform="translate(158.0708,444.3477)"
           id="g410"><path
             id="path412"
             style="fill:#ffcfb6;fill-opacity:1;fill-rule:nonzero;stroke:none"
             d="M 0,0 C 0,0 -7.574,11.519 -9.729,5.911 -11.884,0.304 -2.906,-9.325 0.777,-7.354 Z" /></g><g
           transform="translate(156.0586,443.6553)"
           id="g414"><path
             id="path416"
             style="fill:#ffada5;fill-opacity:1;fill-rule:nonzero;stroke:none"
             d="M 0,0 C 0,0 -3.713,5.456 -5.075,4.614 -7.243,3.274 1.154,-9.27 0,0" /></g><g
           transform="translate(112.7612,416.8525)"
           id="g418"><path
             id="path420"
             style="fill:#ffcfb6;fill-opacity:1;fill-rule:nonzero;stroke:none"
             d="m 0,0 -31.81,-18.382 9.734,37.76 c 0,0 -4.142,6.025 -11.769,6.934 0,0 -27.989,-56.921 -26.095,-67.562 1.132,-6.361 20.013,-7.106 56.036,8.175 0,0 8.581,19.072 3.904,33.075" /></g><g
           transform="translate(94.1089,331.0703)"
           id="g422"><path
             id="path424"
             style="fill:#ff0f16;fill-opacity:1;fill-rule:nonzero;stroke:none"
             d="m 0,0 -14.712,-92.768 c 0,0 -8.144,-48.321 -10.387,-66.54 -2.242,-18.219 9.565,-31.55 9.565,-31.55 l 18.825,-0.33 c 0,0 5.408,8.936 11.042,25.889 3.582,10.778 27.79,165.348 27.79,165.348 z" /></g><g
           transform="translate(161.3506,331.1191)"
           id="g426"><path
             id="path428"
             style="fill:#ff0f16;fill-opacity:1;fill-rule:nonzero;stroke:none"
             d="m 0,0 c 0,0 3.352,-45.341 4.515,-93.014 1.163,-47.673 -1.859,-90.331 -9.382,-97.229 l -20.252,-0.058 c 0,0 -13.255,9.874 -12.633,29.276 0.621,19.401 0.784,114.65 -0.22,132.869 C -38.977,-9.938 -40.405,0 -40.405,0 Z" /></g><g
           transform="translate(103.0439,389.7852)"
           id="g430"><path
             id="path432"
             style="fill:#d10514;fill-opacity:1;fill-rule:nonzero;stroke:none"
             d="m 0,0 c -3.669,-16.521 -7.577,-37.907 -8.935,-58.715 l -14.712,-92.767 c 0,0 -8.145,-48.322 -10.387,-66.54 -2.241,-18.22 9.565,-31.551 9.565,-31.551 l 10.39,-0.183 c -5.378,14.124 -13.892,44.259 -9.039,84.877 6.85,57.337 22.882,104.317 22.882,104.317 C -3.369,-34.3 0,0 0,0" /></g><g
           transform="translate(155.9561,398.458)"
           id="g434"><path
             id="path436"
             style="fill:#d10514;fill-opacity:1;fill-rule:nonzero;stroke:none"
             d="m 0,0 c 0,0 -0.953,10.335 -2.643,13.037 -1.689,2.701 -9.789,14.369 -9.789,14.369 0,0 -4.538,-2.502 -7.485,-6.414 l 3.126,-25.348 c 0,0 7.15,9.431 9.31,9.976 C -5.321,6.165 0,0 0,0" /></g><g
           transform="translate(161.1235,398.333)"
           id="g438"><path
             id="path440"
             style="fill:#d10514;fill-opacity:1;fill-rule:nonzero;stroke:none"
             d="m 0,0 3.352,9.989 1.899,5.449 c 0,0 1.62,-2.813 2.186,-5.48 0.567,-2.667 3.018,-13.293 3.018,-13.293 0,0 -4.567,7.545 -5.652,7.545 C 3.717,4.21 0,0 0,0" /></g><g
           transform="translate(155.9561,398.458)"
           id="g442"><path
             id="path444"
             style="fill:#ffffff;fill-opacity:1;fill-rule:nonzero;stroke:none"
             d="M 0,0 0.643,-14.681 5.167,-0.125 Z" /></g><g
           transform="translate(136.2314,140.8184)"
           id="g446"><path
             id="path448"
             style="fill:#d10514;fill-opacity:1;fill-rule:nonzero;stroke:none"
             d="m 0,0 15.203,0.043 c -28.224,40.421 -16.48,176.944 -16.48,176.944 -3.496,-25.169 -10.89,-62.945 -10.89,-62.946 0.118,-33.434 -0.09,-73.014 -0.466,-84.766 C -13.255,9.874 0,0 0,0" /></g><g
           transform="translate(169.9199,356.7783)"
           id="g450"><path
             id="path452"
             style="fill:none;stroke:#0e1f28;stroke-width:0.5;stroke-linecap:butt;stroke-linejoin:miter;stroke-miterlimit:10;stroke-dasharray:none;stroke-opacity:1"
             d="M 0,0 C 0,0 7.556,22.495 10.728,32.12" /></g><g
           transform="translate(92.25,294.3496)"
           id="g454"><path
             id="path456"
             style="fill:#0e1f28;fill-opacity:1;fill-rule:nonzero;stroke:none"
             d="m 0,0 c 17.978,13.235 22.396,27.059 22.396,27.059 l -5.132,3.151 c 0,0 -11.626,-20.121 -20.392,-26.016 z" /></g><g
           transform="translate(163.6904,293.0273)"
           id="g458"><path
             id="path460"
             style="fill:#0e1f28;fill-opacity:1;fill-rule:nonzero;stroke:none"
             d="m 0,0 c -4.697,6.653 -7.207,28.003 -7.207,28.003 l 5.485,1.112 z" /></g><g
           transform="translate(80.4419,456.5967)"
           id="g462"><path
             id="path464"
             style="fill:#ffcfb6;fill-opacity:1;fill-rule:nonzero;stroke:none"
             d="m 0,0 c 0,0 0.925,14.214 1.189,19.365 0,0 4.887,-1.321 5.548,-6.208 C 7.397,8.27 6.05,0.936 6.05,0.936 Z" /></g><g
           transform="translate(87.3047,468.3906)"
           id="g466"><path
             id="path468"
             style="fill:#ffada5;fill-opacity:1;fill-rule:nonzero;stroke:none"
             d="m 0,0 c -2.533,-1.242 -4.728,-2.992 -6.401,-4.584 -0.25,-3.956 -0.462,-7.21 -0.462,-7.21 l 6.051,0.936 c 0,0 1.112,6.08 0.812,10.858" /></g><g
           transform="translate(79.1831,440.7695)"
           id="g470"><path
             id="path472"
             style="fill:#ffcfb6;fill-opacity:1;fill-rule:nonzero;stroke:none"
             d="m 0,0 c 0,0 -0.855,14.836 0,20.749 0,0 9.514,4.104 12.479,3.703 2.966,-0.399 8.66,-5.46 9.015,-7.26 0.356,-1.798 -1.305,-3.713 -1.305,-3.713 0,0 1.643,-2.42 1.355,-3.693 -0.287,-1.272 -2.897,-2.954 -2.897,-2.954 0,0 1.424,-2.548 1.186,-3.398 -0.237,-0.852 -2.49,-2.605 -2.49,-2.605 0,0 0.711,-2.28 0.118,-3.466 -0.593,-1.186 -7.71,-1.902 -7.71,-1.902 0,0 -0.676,0.976 0.848,2.804 z" /></g><g
           transform="translate(99.3726,454.248)"
           id="g474"><path
             id="path476"
             style="fill:#ffada5;fill-opacity:1;fill-rule:nonzero;stroke:none"
             d="M 0,0 -5.986,6.421 0.701,1.029 Z" /></g><g
           transform="translate(97.8306,447.6016)"
           id="g478"><path
             id="path480"
             style="fill:#ffada5;fill-opacity:1;fill-rule:nonzero;stroke:none"
             d="M 0,0 -4.621,6.485 1.216,0.897 Z" /></g><g
           transform="translate(96.5259,441.5986)"
           id="g482"><path
             id="path484"
             style="fill:#ffada5;fill-opacity:1;fill-rule:nonzero;stroke:none"
             d="M 0,0 -3.799,7.883 0.933,0.781 Z" /></g><g
           transform="translate(110.5854,419.4502)"
           id="g486"><path
             id="path488"
             style="fill:#ff0f16;fill-opacity:1;fill-rule:nonzero;stroke:none"
             d="m 0,0 -26.346,-17.696 1.632,15.8 c 0,0 -9.043,3.001 -17.261,3.196 0,0 -21.256,-41.156 -15.882,-50.548 C -50.692,-61.769 0,-37.854 0,-37.854 0,-37.854 13.932,-7.653 0,0" /></g><g
           transform="translate(86.6738,420.667)"
           id="g490"><path
             id="path492"
             style="fill:#d10514;fill-opacity:1;fill-rule:nonzero;stroke:none"
             d="m 0,0 c 0,0 -13.535,4.828 -19.64,3.757 0,0 -5.73,-10.292 -7.435,-12.38 l 2.223,-3.387 c 0,0 14.879,3.244 23.248,-1.479 L 0,-11.448 c 0,0 1.988,6.441 0,11.448" /></g><g
           transform="translate(59.5986,412.0439)"
           id="g494"><path
             id="path496"
             style="fill:none;stroke:#0e1f28;stroke-width:0.5;stroke-linecap:butt;stroke-linejoin:miter;stroke-miterlimit:10;stroke-dasharray:none;stroke-opacity:1"
             d="M 0,0 C 0,0 14.595,5.368 27.075,-2.825" /></g><g
           transform="translate(100.416,377.208)"
           id="g498"><path
             id="path500"
             style="fill:none;stroke:#0e1f28;stroke-width:0.5;stroke-linecap:butt;stroke-linejoin:miter;stroke-miterlimit:10;stroke-dasharray:none;stroke-opacity:1"
             d="m 0,0 c 0,0 10.705,7.164 13.027,18.974 2.322,11.809 -0.682,21.69 -0.682,21.69" /></g><g
           transform="translate(84.2397,401.7539)"
           id="g502"><path
             id="path504"
             style="fill:none;stroke:#0e1f28;stroke-width:0.5;stroke-linecap:butt;stroke-linejoin:miter;stroke-miterlimit:10;stroke-dasharray:none;stroke-opacity:1"
             d="m 0,0 c 0,0 -0.897,-16.638 -3.798,-24.045 0,0 8.656,12.423 5.43,23.05" /></g><g
           transform="translate(156.5991,383.7773)"
           id="g506"><path
             id="path508"
             style="fill:none;stroke:#0e1f28;stroke-width:0.5;stroke-linecap:butt;stroke-linejoin:miter;stroke-miterlimit:10;stroke-dasharray:none;stroke-opacity:1"
             d="M 0,0 C 0,0 -2.877,-35.875 -16.274,-60.935" /></g><g
           transform="translate(247.0366,324.7236)"
           id="g510"><path
             id="path512"
             style="fill:#0e1f28;fill-opacity:1;fill-rule:nonzero;stroke:none"
             d="m 0,0 -21.211,-64.217 h 4.678 L 2.691,-4.724 Z" /></g><g
           transform="translate(179.0034,382.6377)"
           id="g514"><path
             id="path516"
             style="fill:#40bad5;fill-opacity:1;fill-rule:nonzero;stroke:none"
             d="m 0,0 112.794,-112.795 8.907,18.439 c 0,0 -85.166,76.02 -98.862,86.575 C 9.143,2.774 0,0 0,0" /></g><g
           transform="translate(291.7979,269.8428)"
           id="g518"><path
             id="path520"
             style="fill:#1f96aa;fill-opacity:1;fill-rule:nonzero;stroke:none"
             d="m 0,0 8.906,18.438 c -12.028,1.901 -23.304,3.135 -31.219,3.875 z" /></g><g
           transform="translate(669.9429,374.8662)"
           id="g522"><path
             id="path524"
             style="fill:#1f96aa;fill-opacity:1;fill-rule:nonzero;stroke:none"
             d="M 0,0 15.689,-1.338 7.845,-28.669 Z" /></g><g
           transform="translate(732.3247,265.0859)"
           id="g526"><path
             id="path528"
             style="fill:#098491;fill-opacity:1;fill-rule:nonzero;stroke:none"
             d="m 0,0 c -9.818,31.908 -62.382,109.78 -62.382,109.78 0,0 -197.059,18.793 -245.316,5.71 -48.257,-13.083 -124.885,-92.667 -124.885,-92.667 0,0 -72.573,-8.604 -108.689,-19.11 -36.117,-10.506 -43.739,-24.675 -43.739,-24.675 l -1.329,-39.234 -11.266,-5.4 c 1.636,-21.416 12.892,-46.49 12.892,-46.49 h 67.458 132.277 245.861 132.278 9.295 c 9.817,13.909 13.362,40.09 13.362,40.09 0,0 -5.999,40.089 -15.817,71.996" /></g><g
           transform="translate(609.3457,174.0381)"
           id="g530"><path
             id="path532"
             style="fill:#0e1f28;fill-opacity:1;fill-rule:nonzero;stroke:none"
             d="m 0,0 c 0,-27.614 22.386,-50 50,-50 27.614,0 50,22.386 50,50 C 100,27.614 77.614,50 50,50 22.386,50 0,27.614 0,0" /></g><g
           transform="translate(632.4014,174.0381)"
           id="g534"><path
             id="path536"
             style="fill:#c8dad3;fill-opacity:1;fill-rule:nonzero;stroke:none"
             d="m 0,0 c 0,-14.881 12.063,-26.944 26.944,-26.944 14.882,0 26.945,12.063 26.945,26.944 0,14.881 -12.063,26.944 -26.945,26.944 C 12.063,26.944 0,14.881 0,0" /></g><g
           transform="translate(732.3247,265.0859)"
           id="g538"><path
             id="path540"
             style="fill:#40bad5;fill-opacity:1;fill-rule:nonzero;stroke:none"
             d="m 0,0 c -9.818,31.908 -62.382,109.78 -62.382,109.78 0,0 -197.059,18.793 -245.316,5.71 -48.257,-13.083 -124.885,-92.667 -124.885,-92.667 0,0 -72.573,-8.604 -108.689,-19.11 -36.117,-10.506 -43.739,-24.675 -43.739,-24.675 l -1.329,-39.234 -11.266,-5.4 c 1.636,-21.416 12.892,-46.49 12.892,-46.49 h 67.458 v 7.567 c 0,36.528 29.611,66.139 66.139,66.139 36.527,0 66.138,-29.611 66.138,-66.139 v -7.567 h 245.861 v 7.567 c 0,36.528 29.612,66.139 66.139,66.139 v 0 c 36.528,0 66.139,-29.611 66.139,-66.139 v -7.567 h 9.295 c 9.817,13.909 13.362,40.09 13.362,40.09 0,0 -5.999,40.089 -15.817,71.996" /></g><g
           transform="translate(429.9043,373.2061)"
           id="g542"><path
             id="path544"
             style="fill:#098491;fill-opacity:1;fill-rule:nonzero;stroke:none"
             d="m 0,0 c -30.66,-7.942 -113.661,-95.81 -113.661,-95.81 l 343.102,15.409 26.287,23.79 c 0,0 -30.278,39.303 -56.231,49.86 C 173.545,3.805 28.615,7.412 0,0" /></g><g
           transform="translate(231.2075,174.0381)"
           id="g546"><path
             id="path548"
             style="fill:#0e1f28;fill-opacity:1;fill-rule:nonzero;stroke:none"
             d="m 0,0 c 0,-27.614 22.386,-50 50,-50 27.614,0 50,22.386 50,50 C 100,27.614 77.614,50 50,50 22.386,50 0,27.614 0,0" /></g><g
           transform="translate(254.2632,174.0381)"
           id="g550"><path
             id="path552"
             style="fill:#c8dad3;fill-opacity:1;fill-rule:nonzero;stroke:none"
             d="m 0,0 c 0,-14.881 12.063,-26.944 26.944,-26.944 14.881,0 26.945,12.063 26.945,26.944 0,14.881 -12.064,26.944 -26.945,26.944 C 12.063,26.944 0,14.881 0,0" /></g><g
           transform="translate(628.0493,363.1309)"
           id="g554"><path
             id="path556"
             style="fill:#ffffff;fill-opacity:1;fill-rule:nonzero;stroke:none"
             d="m 0,0 c -15.789,6.422 -81.29,10.397 -132.921,10.397 -31.566,0 -55.011,-1.383 -64.325,-3.795 -19.192,-4.973 -60.886,-43.694 -87.623,-70.087 l 12.325,-16.894 302.39,13.58 22.827,20.661 C 45.501,-37.319 20.988,-8.537 0,0" /></g><g
           transform="translate(515.729,383.7295)"
           id="g558"><path
             id="path560"
             style="fill:#40bad5;fill-opacity:1;fill-rule:nonzero;stroke:none"
             d="M 0,0 -7.6,-114.252 H 16.617 L 14.076,-1.893 Z" /></g><g
           transform="translate(195.9009,224.0605)"
           id="g562"><path
             id="path564"
             style="fill:#1f96aa;fill-opacity:1;fill-rule:nonzero;stroke:none"
             d="m 0,0 c 5.383,5.768 10.208,18.84 10.208,18.84 l -58.795,1.223 -1.018,-30.042 C -35.923,-8.462 -4.205,-4.505 0,0" /></g><g
           transform="translate(158.7783,222.3174)"
           id="g566"><path
             id="path568"
             style="fill:#ffffff;fill-opacity:1;fill-rule:nonzero;stroke:none"
             d="m 0,0 c 0,0 22.121,-1.566 33.517,-0.24 1.715,0.644 2.975,1.307 3.606,1.983 5.382,5.768 10.208,18.84 10.208,18.84 L 0,14.82 Z" /></g><g
           transform="translate(150.9165,184.1592)"
           id="g570"><path
             id="path572"
             style="fill:#1f96aa;fill-opacity:1;fill-rule:nonzero;stroke:none"
             d="m 0,0 38.417,5.035 c 0,0 6.209,-13.578 3.312,-24.344 H 4.614 C 4.614,-19.309 1.538,-9.144 0,0" /></g><g
           transform="translate(185.1353,184.1592)"
           id="g574"><path
             id="path576"
             style="fill:#098491;fill-opacity:1;fill-rule:nonzero;stroke:none"
             d="m 0,0 -22.492,-2.665 2.115,-13.76 H 1.73 c 0,0 0.769,6.128 -1.73,16.425" /></g><g
           transform="translate(185.3872,183.0605)"
           id="g578"><path
             id="path580"
             style="fill:#ffffff;fill-opacity:1;fill-rule:nonzero;stroke:none"
             d="m 0,0 -13.221,-1.566 2.115,-13.76 H 1.479 c 0,0 0.704,5.701 -1.479,15.326" /></g><g
           transform="translate(229.9839,202.3994)"
           id="g582"><path
             id="path584"
             style="fill:#1f96aa;fill-opacity:1;fill-rule:nonzero;stroke:none"
             d="M 0,0 -84,2.49 -95.266,-2.909 H -2.237 C -1.516,-1.92 -0.774,-0.947 0,0" /></g><g
           transform="translate(458.981,266.6992)"
           id="g586"><path
             id="path588"
             style="fill:#1f96aa;fill-opacity:1;fill-rule:nonzero;stroke:none"
             d="M 0,0 49.148,2.778 46.982,-3.88 C 46.298,-5.981 44.4,-7.452 42.194,-7.587 L 8.664,-9.648 C 6.55,-9.778 4.556,-8.656 3.57,-6.782 Z" /></g><g
           transform="translate(615.1719,274.6182)"
           id="g590"><path
             id="path592"
             style="fill:#1f96aa;fill-opacity:1;fill-rule:nonzero;stroke:none"
             d="M 0,0 49.148,2.778 46.982,-3.88 C 46.298,-5.981 44.399,-7.452 42.194,-7.587 L 8.663,-9.648 C 6.549,-9.778 4.556,-8.656 3.57,-6.782 Z" /></g><g
           transform="translate(331.2378,304.5977)"
           id="g594"><path
             id="path596"
             style="fill:none;stroke:#005560;stroke-width:1;stroke-linecap:butt;stroke-linejoin:miter;stroke-miterlimit:10;stroke-dasharray:none;stroke-opacity:1"
             d="m 0,0 c 0,0 2.307,-69.964 23.069,-136.863 h 166.118 l 2.571,212.422 c 0,0 -81.879,2.183 -95.871,-3.04 C 81.894,67.295 0,0 0,0 Z" /></g><g
           transform="translate(522.9961,380.1562)"
           id="g598"><path
             id="path600"
             style="fill:none;stroke:#005560;stroke-width:1;stroke-linecap:butt;stroke-linejoin:miter;stroke-miterlimit:10;stroke-dasharray:none;stroke-opacity:1"
             d="m 0,0 c 0,0 90.834,-1.776 110.442,-10.787 19.609,-9.011 40.371,-29.72 59.403,-54.833 0,0 -5.204,-63.178 -12.118,-83.94 0,0 -75.544,19.609 -93.422,-62.862 H -2.571 Z" /></g><g
           transform="translate(721.1001,271.1777)"
           id="g602"><path
             id="path604"
             style="fill:#ff0f16;fill-opacity:1;fill-rule:nonzero;stroke:none"
             d="m 0,0 18.373,-33.103 c 0,0 5.849,22.608 3.542,26.885 C 19.608,-1.94 0,0 0,0" /></g></g></g><g
       id="g606"><g
         clip-path="url(#clipPath612)"
         id="g608"><g
           transform="translate(442.2432,343.4404)"
           id="g614"><path
             id="path616"
             style="fill:#fcbf1e;fill-opacity:1;fill-rule:nonzero;stroke:none"
             d="m 0,0 c 0,0 -7.588,-5.908 -15.555,-19.485 -7.966,-13.578 -17.314,-22.76 -17.314,-22.76 0,0 5.418,-16.218 23.28,-22.54 0,0 11.61,12.613 15.718,26.276 0,0 1.138,28.702 -6.129,38.509" /></g><g
           transform="translate(419.8018,286.2725)"
           id="g618"><path
             id="path620"
             style="fill:#f99121;fill-opacity:1;fill-rule:nonzero;stroke:none"
             d="m 0,0 c 3.302,-2.958 7.519,-5.729 12.852,-7.617 0,0 11.61,12.613 15.719,26.276 0,0 0.497,12.626 -1.286,23.991 l -6.88,1.77 C 20.405,44.42 17.311,18.604 0,0" /></g><g
           transform="translate(442.2432,343.4404)"
           id="g622"><path
             id="path624"
             style="fill:#fcbf1e;fill-opacity:1;fill-rule:nonzero;stroke:none"
             d="M 0,0 C 0,0 11.336,7.307 32.503,6.87 54.565,6.416 68.165,-3.15 68.165,-3.15 l -11.04,-89.964 c 0,0 -36.17,-4.073 -64.571,6.913 0,0 0.691,53.71 7.446,86.201" /></g><g
           transform="translate(473.542,358.1123)"
           id="g626"><path
             id="path628"
             style="fill:#f99121;fill-opacity:1;fill-rule:nonzero;stroke:none"
             d="m 0,0 c 0,0 -9.704,-0.937 -13.15,-2.723 -3.446,-1.786 -10.591,-18.397 -10.591,-18.397 0,0 5.616,5.373 9.149,5.991 3.533,0.618 8.836,-3.763 8.836,-3.763 z" /></g><g
           transform="translate(483.1816,375.5127)"
           id="g630"><path
             id="path632"
             style="fill:#ffcfb6;fill-opacity:1;fill-rule:nonzero;stroke:none"
             d="m 0,0 c 0,0 -0.914,-19.408 0,-26.553 0,0 -10.952,-9.56 -15.396,-9.739 0,0 -3.784,4.632 -5.201,10.185 0,0 4.479,13.665 5.315,19.202 0,0 4.901,4.7 15.282,6.905" /></g><g
           transform="translate(460.3921,405.3057)"
           id="g634"><path
             id="path636"
             style="fill:#8e3e23;fill-opacity:1;fill-rule:nonzero;stroke:none"
             d="m 0,0 c 0,0 -6.04,0.345 -7.154,-5.767 -1.115,-6.112 2.163,-11.653 2.163,-11.653 z" /></g><g
           transform="translate(465.7954,359.9053)"
           id="g638"><path
             id="path640"
             style="fill:#ffada5;fill-opacity:1;fill-rule:nonzero;stroke:none"
             d="m 0,0 c 4.175,-0.371 10.598,-0.039 17.022,3.82 0.103,6.248 0.364,11.787 0.364,11.787 C 7.005,13.402 2.104,8.702 2.104,8.702 1.784,6.584 0.931,3.277 0,0" /></g><g
           transform="translate(474.8115,406.8535)"
           id="g642"><path
             id="path644"
             style="fill:#ffcfb6;fill-opacity:1;fill-rule:nonzero;stroke:none"
             d="m 0,0 c -11.571,1.759 -19.779,-1.158 -20.688,-16.599 -0.909,-15.441 1.914,-24.705 5.884,-27.589 3.971,-2.883 16.613,1.253 21.521,8.294 4.908,7.041 8.719,19.21 5.074,27.234 C 8.146,-0.637 0,0 0,0" /></g><g
           transform="translate(471.9082,391.7285)"
           id="g646"><path
             id="path648"
             style="fill:#6d2614;fill-opacity:1;fill-rule:nonzero;stroke:none"
             d="M 0,0 C 0.5,0 0.906,-0.573 0.906,-1.279 0.906,-1.986 0.5,-2.56 0,-2.56 c -0.5,0 -0.907,0.574 -0.907,1.281 C -0.907,-0.573 -0.5,0 0,0" /></g><g
           transform="translate(458.4849,393.0088)"
           id="g650"><path
             id="path652"
             style="fill:#6d2614;fill-opacity:1;fill-rule:nonzero;stroke:none"
             d="M 0,0 C 0.5,0 0.906,-0.573 0.906,-1.28 0.906,-1.987 0.5,-2.56 0,-2.56 c -0.501,0 -0.907,0.573 -0.907,1.28 C -0.907,-0.573 -0.501,0 0,0" /></g><g
           transform="translate(477.0376,393.9658)"
           id="g654"><path
             id="path656"
             style="fill:#8e3e23;fill-opacity:1;fill-rule:nonzero;stroke:none"
             d="m 0,0 -7.594,2.745 c 0,0 1.063,2.701 2.374,2.507 C -3.908,5.059 0.592,2.405 0,0" /></g><g
           transform="translate(462.0576,397.6631)"
           id="g658"><path
             id="path660"
             style="fill:#8e3e23;fill-opacity:1;fill-rule:nonzero;stroke:none"
             d="m 0,0 c 0,0 -2.625,0.768 -5.311,0 0,0 0.615,1.685 1.738,2.207 C -2.451,2.729 0.051,3.874 0,0" /></g><g
           transform="translate(482.9761,370.1279)"
           id="g662"><path
             id="path664"
             style="fill:#8e3e23;fill-opacity:1;fill-rule:nonzero;stroke:none"
             d="m 0,0 c 0,0 8.443,11.52 10.245,18.659 1.802,7.141 -1.802,7.81 -1.802,7.81 0,0 1.576,6.314 -3.916,9.988 -5.491,3.674 -11.372,11.163 -21.813,10.965 -14.089,-0.269 -7.457,-14.539 -7.457,-14.539 12.835,1.508 21.05,-1.769 21.05,-1.769 0,0 -0.645,-6.122 3.899,-10.188 0,0 -0.912,-8.688 1.397,-11.908 C 1.603,9.018 -1.12,4.2 0,0" /></g><g
           transform="translate(485.7856,381.4922)"
           id="g666"><path
             id="path668"
             style="fill:#ffcfb6;fill-opacity:1;fill-rule:nonzero;stroke:none"
             d="M 0,0 C 0,0 6.2,9.088 7.348,3.191 8.497,-2.705 -2.016,-10.628 -5.301,-8.049 Z" /></g><g
           transform="translate(485.0376,377.5303)"
           id="g670"><path
             id="path672"
             style="fill:#ffada5;fill-opacity:1;fill-rule:nonzero;stroke:none"
             d="M 0,0 C 0,0 4.823,7.22 5.149,5.653 5.475,4.087 -2.409,-5.192 0,0" /></g><g
           transform="translate(484.5791,388.7871)"
           id="g674"><path
             id="path676"
             style="fill:#8e3e23;fill-opacity:1;fill-rule:nonzero;stroke:none"
             d="m 0,0 c 0,0 -3.162,-7.229 -6.2,-10.791 -3.038,-3.561 -6.757,-2.333 -6.757,-2.333 -3.836,5.986 -9.038,6.038 -9.038,6.038 h -2.78 c 0,0 -3.243,0.02 -5.328,-5.733 l -0.185,1.573 c 0,0 -3.241,-11.47 -1.285,-15.006 0.946,-1.71 4.477,-4.166 7.386,-4.363 7.48,-0.509 20.061,2.301 20.986,7.176 0.437,2.302 1.33,7.1 1.33,7.1 0.309,3.305 3.468,13.078 3.468,13.078 z" /></g><g
           transform="translate(462.9507,390.2549)"
           id="g678"><path
             id="path680"
             style="fill:#ffada5;fill-opacity:1;fill-rule:nonzero;stroke:none"
             d="m 0,0 c 0,0 -0.902,-4.363 -2.028,-5.349 -1.127,-0.985 -4.009,-1.191 -2.438,-2.892 1.57,-1.7 3.318,-2.311 5.579,-0.279 C 2.229,-7.516 0,0 0,0" /></g><g
           transform="translate(467.7861,339.2207)"
           id="g682"><path
             id="path684"
             style="fill:#f99121;fill-opacity:1;fill-rule:nonzero;stroke:none"
             d="m 0,0 c 0,0 1.743,6.925 5.097,8.332 3.354,1.407 9.969,6.23 9.969,6.23 l -0.075,6.006 c 0,0 2.62,-0.982 3.399,-2.422 0.778,-1.441 2.641,-8.539 2.641,-8.539 0,0 -6.092,-10.954 -7.014,-14.253 -0.922,-3.298 -1.319,-7.154 -1.319,-7.154 0,0 -4.886,12.43 -5.996,13.144 C 5.593,2.059 0,0 0,0" /></g><g
           transform="translate(510.4077,340.29)"
           id="g686"><path
             id="path688"
             style="fill:#fcbf1e;fill-opacity:1;fill-rule:nonzero;stroke:none"
             d="m 0,0 c 0,0 7.805,-6.513 12.627,-15.087 4.823,-8.573 15.004,-25.979 15.004,-25.979 0,0 12.128,-30.643 -1.081,-34.573 -13.208,-3.929 -17.271,4.237 -17.271,4.237 l -19.515,27.149 c 0,0 -0.181,29.256 10.236,44.253" /></g><g
           transform="translate(538.0391,299.2236)"
           id="g690"><path
             id="path692"
             style="fill:#0e1f28;fill-opacity:1;fill-rule:nonzero;stroke:none"
             d="m 0,0 c 0,0 -0.154,0.264 -0.43,0.735 -10.432,14.231 -20.468,-20.482 -17.923,-31.071 0,0 4.063,-8.166 17.272,-4.236 C 12.127,-30.643 0,0 0,0" /></g><g
           transform="translate(539.0254,335.7803)"
           id="g694"><path
             id="path696"
             style="fill:#ffcfb6;fill-opacity:1;fill-rule:nonzero;stroke:none"
             d="m 0,0 c 0,0 -15.139,-46.105 -15.902,-54.468 -0.764,-8.362 7.614,-14.757 13.922,-11.607 6.308,3.149 9.658,16.259 9.606,22.846 -0.052,6.589 2.314,42.024 2.314,42.024 z" /></g><g
           transform="translate(550.9258,346.3135)"
           id="g698"><path
             id="path700"
             style="fill:#ffcfb6;fill-opacity:1;fill-rule:nonzero;stroke:none"
             d="m 0,0 c 0,0 2.025,12.256 2.819,16.684 0,0 -4.413,-0.156 -5.94,-4.177 C -4.648,8.486 -4.955,1.99 -4.955,1.99 Z" /></g><g
           transform="translate(547.4277,357.6875)"
           id="g702"><path
             id="path704"
             style="fill:#ffada5;fill-opacity:1;fill-rule:nonzero;stroke:none"
             d="m 0,0 c 1.907,-1.556 3.425,-3.477 4.532,-5.158 -0.57,-3.41 -1.034,-6.216 -1.034,-6.216 l -4.955,1.99 c 0,0 0.258,5.385 1.457,9.384" /></g><g
           transform="translate(548.8662,332.6201)"
           id="g706"><path
             id="path708"
             style="fill:#ffcfb6;fill-opacity:1;fill-rule:nonzero;stroke:none"
             d="m 0,0 c 0,0 3.659,12.434 4.102,17.625 0,0 -7.27,5.366 -9.868,5.612 -2.598,0.247 -8.435,-2.925 -9.093,-4.383 -0.658,-1.458 0.374,-3.414 0.374,-3.414 0,0 -1.873,-1.73 -1.881,-2.868 -0.007,-1.138 1.877,-3.082 1.877,-3.082 0,0 -1.713,-1.883 -1.679,-2.652 0.033,-0.771 1.601,-2.705 1.601,-2.705 0,0 -1.056,-1.796 -0.787,-2.921 0.27,-1.125 6.174,-3.14 6.174,-3.14 0,0 0.767,0.696 -0.166,2.549 z" /></g><g
           transform="translate(534.3813,348.0605)"
           id="g710"><path
             id="path712"
             style="fill:#ffada5;fill-opacity:1;fill-rule:nonzero;stroke:none"
             d="M 0,0 6.354,4.271 -0.392,1.013 Z" /></g><g
           transform="translate(534.3774,342.1104)"
           id="g714"><path
             id="path716"
             style="fill:#ffada5;fill-opacity:1;fill-rule:nonzero;stroke:none"
             d="M 0,0 5.207,4.595 -0.855,1.003 Z" /></g><g
           transform="translate(534.2988,336.7529)"
           id="g718"><path
             id="path720"
             style="fill:#ffada5;fill-opacity:1;fill-rule:nonzero;stroke:none"
             d="M 0,0 4.786,5.945 -0.638,0.849 Z" /></g><g
           transform="translate(456.9077,375.9678)"
           id="g722"><path
             id="path724"
             style="fill:#ffffff;fill-opacity:1;fill-rule:nonzero;stroke:none"
             d="M 0,0 10.309,1.137 C 10.309,1.137 6.437,-7.733 0,0" /></g><g
           transform="translate(383.7983,317.3877)"
           id="g726"><path
             id="path728"
             style="fill:#ffcfb6;fill-opacity:1;fill-rule:nonzero;stroke:none"
             d="m 0,0 c 0,0 18.882,-16.303 29.741,-24.42 9.286,-6.941 15.366,-12.764 15.366,-12.764 0,0 -13.67,-10.522 -19.531,-7.269 -18.96,10.523 -35.544,42.94 -35.544,42.94 z" /></g><g
           transform="translate(371.7163,315.9355)"
           id="g730"><path
             id="path732"
             style="fill:#ffada5;fill-opacity:1;fill-rule:nonzero;stroke:none"
             d="m 0,0 c 0,0 2.202,4.649 10.522,8.904 0,0 2.324,0.192 1.591,-4.372 0,0 3.364,-0.228 1.794,-4.981 0,0 2.928,-2.093 0.418,-6.131 0,0 0.956,-1.645 1.017,-4.636 0.061,-2.991 -2.389,-7.548 -2.389,-7.548 0,0 -3.741,0.419 -5.58,1.367 -1.84,0.947 -4.839,10.966 -4.839,10.966 z" /></g><g
           transform="translate(393.7378,308.1836)"
           id="g734"><path
             id="path736"
             style="fill:#ffcfb6;fill-opacity:1;fill-rule:nonzero;stroke:none"
             d="m 0,0 c 0,0 -4.108,9.214 -6.073,11 -1.965,1.786 -11.61,7.442 -11.61,7.442 0,0 -2.06,-6.781 7.454,-9.791 0,0 1.052,-3.932 1.175,-8.651 0.123,-4.719 5.66,-11.329 5.66,-11.329 0,0 4.71,3.285 3.394,11.329" /></g><g
           transform="translate(388.5415,308.3057)"
           id="g738"><path
             id="path740"
             style="fill:#93b5b3;fill-opacity:1;fill-rule:nonzero;stroke:none"
             d="m 0,0 c -4.306,-1.566 -8.611,-3.134 -12.917,-4.701 2.453,-6.738 4.905,-13.477 7.357,-20.215 4.306,1.567 8.612,3.134 12.917,4.701 C 7.101,-12.868 4.525,-5.792 0,0" /></g><g
           transform="translate(387.395,301.8984)"
           id="g742"><path
             id="path744"
             style="fill:#93b5b3;fill-opacity:1;fill-rule:nonzero;stroke:none"
             d="m 0,0 -43.004,-15.652 3.507,-9.636 43.004,15.652 z" /></g><g
           transform="translate(384.3091,310.377)"
           id="g746"><path
             id="path748"
             style="fill:#c8dad3;fill-opacity:1;fill-rule:nonzero;stroke:none"
             d="m 0,0 -12.917,-4.701 9.679,-26.594 12.917,4.702 z" /></g><g
           transform="translate(374.8442,328.334)"
           id="g750"><path
             id="path752"
             style="fill:#0e1f28;fill-opacity:1;fill-rule:nonzero;stroke:none"
             d="m 0,0 v 0 c -2.139,-0.778 -3.241,-3.143 -2.463,-5.281 l 20.618,-56.647 c 0.778,-2.137 3.142,-3.24 5.281,-2.462 2.138,0.779 3.241,3.143 2.463,5.282 L 5.281,-2.463 C 4.503,-0.324 2.138,0.778 0,0" /></g><g
           transform="translate(467.7861,339.2207)"
           id="g754"><path
             id="path756"
             style="fill:none;stroke:#0e1f28;stroke-width:1;stroke-linecap:butt;stroke-linejoin:miter;stroke-miterlimit:10;stroke-dasharray:none;stroke-opacity:1"
             d="M 0,0 C 0,0 -3.172,-16 -3.41,-26.162" /></g><g
           transform="translate(504.0952,290.5791)"
           id="g758"><path
             id="path760"
             style="fill:none;stroke:#0e1f28;stroke-width:1;stroke-linecap:butt;stroke-linejoin:miter;stroke-miterlimit:10;stroke-dasharray:none;stroke-opacity:1"
             d="M 0,0 C 0,0 -5.144,7.348 -2.367,24.301 0.411,41.254 4.034,46.413 4.034,46.413" /></g><g
           transform="translate(441.5146,339.7256)"
           id="g762"><path
             id="path764"
             style="fill:none;stroke:#0e1f28;stroke-width:1;stroke-linecap:butt;stroke-linejoin:miter;stroke-miterlimit:10;stroke-dasharray:none;stroke-opacity:1"
             d="M 0,0 C 0,0 -3.777,-18.835 -5.849,-57.482" /></g></g></g><g
       id="g766"><g
         clip-path="url(#clipPath772)"
         id="g768"><g
           transform="translate(766.7144,124.0381)"
           id="g774"><path
             id="path776"
             style="fill:none;stroke:#0e1f28;stroke-width:1;stroke-linecap:butt;stroke-linejoin:miter;stroke-miterlimit:10;stroke-dasharray:none;stroke-opacity:1"
             d="M 0,0 H -733.429" /></g></g></g></g></svg>