<svg xmlns="http://www.w3.org/2000/svg" version="1.1" xmlns:xlink="http://www.w3.org/1999/xlink" xmlns:svgjs="http://svgjs.dev/svgjs" viewBox="0 0 13.407166753721011 4.659388610404264"><g transform="matrix(1,0,0,1,5.822013094799046,1.183581477077132)"><g><path d=" M 0.7275 0.7635000000000001 C 0.729 0.7635000000000001 0.7335 0.7635000000000001 0.7365 0.7620000000000001 C 0.732 0.7605000000000002 0.732 0.7590000000000001 0.732 0.7560000000000001 C 0.732 0.7530000000000001 0.7335 0.7500000000000001 0.7335 0.7470000000000001 C 0.7335 0.7455000000000002 0.7335 0.7440000000000002 0.7305 0.7440000000000002 L 0.7245 0.7440000000000002 C 0.723 0.7440000000000002 0.72 0.7440000000000002 0.72 0.7425000000000002 C 0.72 0.7410000000000001 0.72 0.7395000000000002 0.7215 0.7380000000000002 C 0.7005 0.7335000000000002 0.6915 0.7305000000000001 0.6525 0.7290000000000001 C 0.639 0.6075000000000002 0.5925 0.20550000000000013 0.5595 0.12900000000000023 C 0.555 0.12750000000000017 0.552 0.12750000000000017 0.5505 0.12300000000000022 C 0.546 0.12300000000000022 0.5445 0.1200000000000001 0.5415 0.1200000000000001 C 0.5415 0.12750000000000017 0.5475 0.13350000000000017 0.5475 0.13650000000000007 C 0.5415 0.13350000000000017 0.5415 0.12750000000000017 0.531 0.12750000000000017 C 0.531 0.12300000000000022 0.5295 0.12300000000000022 0.5265 0.1200000000000001 C 0.5265 0.12300000000000022 0.5295 0.12750000000000017 0.5295 0.12750000000000017 C 0.528 0.1260000000000001 0.534 0.14250000000000007 0.537 0.14700000000000002 C 0.531 0.14700000000000002 0.5295 0.14100000000000001 0.5265 0.14100000000000001 C 0.5205 0.13650000000000007 0.519 0.12750000000000017 0.5115000000000001 0.12300000000000022 L 0.5115000000000001 0.12900000000000023 C 0.51 0.1260000000000001 0.51 0.13350000000000017 0.51 0.13350000000000017 C 0.51 0.13350000000000017 0.5055000000000001 0.12750000000000017 0.5025000000000001 0.12750000000000017 C 0.507 0.13050000000000006 0.51 0.13500000000000023 0.51 0.13950000000000018 C 0.4995 0.13950000000000018 0.495 0.13050000000000006 0.4905 0.12300000000000022 C 0.4905 0.12750000000000017 0.483 0.1260000000000001 0.483 0.12750000000000017 C 0.48 0.12750000000000017 0.48 0.12450000000000006 0.48 0.12450000000000006 C 0.47850000000000004 0.12450000000000006 0.47250000000000003 0.12300000000000022 0.47250000000000003 0.12300000000000022 C 0.453 0.11250000000000004 0.47250000000000003 0.10650000000000004 0.4515 0.0990000000000002 L 0.444 0.0990000000000002 C 0.3315 0.0990000000000002 0.2685 0.30300000000000016 0.2265 0.37650000000000017 C 0.17250000000000001 0.5010000000000001 0.12 0.6180000000000001 0.078 0.7365000000000002 C 0.07050000000000001 0.7425000000000002 0.0555 0.7590000000000001 0.0555 0.7740000000000001 C 0.0555 0.7785000000000002 0.057 0.7830000000000001 0.06 0.7875000000000001 C 0.0405 0.8370000000000002 -0.003 0.9615000000000001 -0.003 0.9990000000000001 C -0.006 1.0140000000000002 -0.0075 1.0275 -0.0075 1.0410000000000001 C -0.0075 1.062 -0.003 1.0845000000000002 0.0045000000000000005 1.1070000000000002 L 0.015 1.116 L 0.0285 1.1235000000000002 C 0.03 1.1505 0.0465 1.1385 0.0615 1.1535000000000002 C 0.0765 1.1565 0.0735 1.1580000000000001 0.0885 1.1580000000000001 C 0.111 1.1580000000000001 0.156 1.1520000000000001 0.177 1.1520000000000001 C 0.213 1.0470000000000002 0.267 0.9195000000000002 0.2985 0.8355000000000001 C 0.3285 0.8310000000000002 0.462 0.8295000000000001 0.507 0.8295000000000001 C 0.519 0.9570000000000001 0.534 1.0770000000000002 0.552 1.2000000000000002 C 0.5565 1.215 0.555 1.2240000000000002 0.5595 1.233 C 0.5685 1.2300000000000002 0.5640000000000001 1.2195000000000003 0.5685 1.215 C 0.5685 1.2120000000000002 0.5730000000000001 1.2120000000000002 0.5730000000000001 1.2120000000000002 L 0.5730000000000001 1.2000000000000002 C 0.5730000000000001 1.197 0.5745 1.1940000000000002 0.5745 1.1880000000000002 C 0.5760000000000001 1.1940000000000002 0.5760000000000001 1.197 0.5760000000000001 1.2000000000000002 C 0.5775 1.1985000000000001 0.5775 1.1955000000000002 0.5775 1.1925000000000001 C 0.5775 1.1895000000000002 0.5775 1.1865 0.5805 1.1865 L 0.585 1.1865 C 0.5865 1.1865 0.588 1.1925000000000001 0.588 1.1940000000000002 L 0.588 1.2000000000000002 C 0.588 1.2060000000000002 0.588 1.209 0.5895 1.209 C 0.5925 1.209 0.594 1.2000000000000002 0.594 1.1925000000000001 C 0.597 1.191 0.6 1.2045000000000001 0.6 1.203 C 0.6045 1.203 0.6045 1.2000000000000002 0.6075 1.2000000000000002 C 0.609 1.2000000000000002 0.618 1.209 0.621 1.215 C 0.6225 1.215 0.6225 1.2045000000000001 0.6225 1.2045000000000001 C 0.6255000000000001 1.2045000000000001 0.6255000000000001 1.2075000000000002 0.6255000000000001 1.2075000000000002 C 0.633 1.2075000000000002 0.6345000000000001 1.1940000000000002 0.6345000000000001 1.1895000000000002 L 0.6345000000000001 1.173 C 0.6375000000000001 1.1805 0.6345000000000001 1.1880000000000002 0.6405 1.2000000000000002 C 0.6435 1.2105000000000001 0.6435 1.221 0.648 1.2300000000000002 C 0.648 1.2225000000000001 0.648 1.2075000000000002 0.651 1.2045000000000001 C 0.651 1.203 0.648 1.203 0.648 1.2000000000000002 C 0.648 1.197 0.6525 1.1700000000000002 0.654 1.167 C 0.6555 1.1760000000000002 0.6555 1.1940000000000002 0.6645 1.197 L 0.6645 1.1820000000000002 L 0.669 1.173 C 0.6705 1.1745 0.6705 1.1760000000000002 0.6705 1.1775000000000002 C 0.6705 1.179 0.6705 1.1820000000000002 0.672 1.1835000000000002 C 0.6735 1.185 0.6795 1.1955000000000002 0.6795 1.197 C 0.6795 1.1775000000000002 0.687 1.1385 0.687 1.1055000000000001 C 0.687 1.098 0.687 1.092 0.6855 1.086 C 0.678 1.0050000000000001 0.669 0.9135000000000002 0.663 0.8325000000000001 C 0.6735 0.8295000000000001 0.681 0.8295000000000001 0.6915 0.8265000000000001 C 0.6930000000000001 0.8250000000000002 0.681 0.8175000000000001 0.681 0.8160000000000001 L 0.6885 0.8160000000000001 C 0.6915 0.8145000000000001 0.6975 0.8130000000000002 0.7020000000000001 0.8130000000000002 C 0.7020000000000001 0.8130000000000002 0.7125 0.8055000000000001 0.7125 0.8010000000000002 C 0.7125 0.7950000000000002 0.7125 0.7935000000000001 0.717 0.7935000000000001 C 0.717 0.7890000000000001 0.7215 0.7860000000000001 0.7245 0.7860000000000001 C 0.7275 0.7845000000000002 0.729 0.7830000000000001 0.729 0.7815000000000001 C 0.729 0.7800000000000001 0.7275 0.7770000000000001 0.7275 0.7755000000000001 C 0.7275 0.7740000000000001 0.729 0.7725000000000002 0.732 0.7725000000000002 C 0.7305 0.7710000000000001 0.7275 0.7665000000000002 0.7275 0.7635000000000001 Z M 0.3375 0.7215000000000001 C 0.396 0.5685000000000001 0.429 0.5010000000000001 0.4665 0.3840000000000001 C 0.468 0.48450000000000015 0.486 0.5970000000000001 0.498 0.7215000000000001 C 0.4545 0.7215000000000001 0.426 0.7200000000000002 0.393 0.7200000000000002 C 0.3765 0.7200000000000002 0.3585 0.7200000000000002 0.3375 0.7215000000000001 Z M 0.9198994628906251 1.1130000000000002 C 1.002399462890625 1.1130000000000002 1.084899462890625 0.9945000000000002 1.108899462890625 0.9405000000000001 C 1.104399462890625 0.9855000000000002 1.096899462890625 1.0590000000000002 1.096899462890625 1.1280000000000001 C 1.096899462890625 1.1805 1.0998994628906251 1.2315 1.113399462890625 1.2630000000000001 L 1.113399462890625 1.2510000000000001 C 1.119399462890625 1.2510000000000001 1.119399462890625 1.2540000000000002 1.122399462890625 1.2585000000000002 C 1.122399462890625 1.2510000000000001 1.120899462890625 1.2405000000000002 1.120899462890625 1.2360000000000002 L 1.126899462890625 1.2405000000000002 C 1.126899462890625 1.2375 1.128399462890625 1.2360000000000002 1.128399462890625 1.233 C 1.128399462890625 1.233 1.128399462890625 1.2315 1.140399462890625 1.2540000000000002 C 1.140399462890625 1.245 1.138899462890625 1.2405000000000002 1.138899462890625 1.233 C 1.141899462890625 1.2405000000000002 1.1478994628906252 1.2465000000000002 1.149399462890625 1.2465000000000002 L 1.149399462890625 1.233 C 1.156899462890625 1.2360000000000002 1.173399462890625 1.2435 1.176399462890625 1.2495 C 1.176399462890625 1.245 1.188399462890625 1.2345000000000002 1.1943994628906252 1.2315 L 1.197399462890625 1.2255000000000003 C 1.197399462890625 1.2285000000000001 1.201899462890625 1.233 1.201899462890625 1.2360000000000002 C 1.201899462890625 1.233 1.207899462890625 1.2300000000000002 1.207899462890625 1.2300000000000002 C 1.209399462890625 1.2315 1.2108994628906251 1.2315 1.212399462890625 1.2315 C 1.2168994628906251 1.2315 1.2183994628906252 1.2315 1.219899462890625 1.2285000000000001 C 1.221399462890625 1.2315 1.221399462890625 1.233 1.224399462890625 1.2360000000000002 C 1.224399462890625 1.233 1.225899462890625 1.233 1.225899462890625 1.2300000000000002 C 1.225899462890625 1.2285000000000001 1.231899462890625 1.2360000000000002 1.236399462890625 1.2360000000000002 C 1.234899462890625 1.2285000000000001 1.234899462890625 1.2240000000000002 1.234899462890625 1.2165000000000001 C 1.239399462890625 1.2240000000000002 1.237899462890625 1.2360000000000002 1.245399462890625 1.2360000000000002 L 1.245399462890625 1.2240000000000002 C 1.249899462890625 1.2315 1.254399462890625 1.239 1.258899462890625 1.2405000000000002 C 1.258899462890625 1.2405000000000002 1.258899462890625 1.2360000000000002 1.261899462890625 1.2360000000000002 C 1.266399462890625 1.2360000000000002 1.270899462890625 1.2405000000000002 1.2753994628906251 1.2405000000000002 C 1.272399462890625 1.233 1.272399462890625 1.2240000000000002 1.272399462890625 1.2180000000000002 C 1.272399462890625 1.1985000000000001 1.273899462890625 1.1310000000000002 1.278399462890625 1.1025 C 1.318899462890625 0.7935000000000001 1.3698994628906251 0.40800000000000014 1.432899462890625 0.08250000000000002 C 1.434399462890625 0.07650000000000001 1.4403994628906251 0.06000000000000005 1.4403994628906251 0.04800000000000004 C 1.4403994628906251 0.043500000000000094 1.4403994628906251 0.039000000000000146 1.437399462890625 0.03750000000000009 C 1.435899462890625 0.010500000000000176 1.414899462890625 2.220446049250313e-16 1.389399462890625 2.220446049250313e-16 C 1.363899462890625 2.220446049250313e-16 1.332399462890625 0.010500000000000176 1.314399462890625 0.025500000000000078 C 1.3113994628906251 0.02400000000000002 1.306899462890625 0.02400000000000002 1.303899462890625 0.02400000000000002 C 1.285899462890625 0.02400000000000002 1.261899462890625 0.03600000000000003 1.257399462890625 0.055500000000000105 C 1.2168994628906251 0.1815000000000001 1.188399462890625 0.3660000000000001 1.173399462890625 0.4680000000000001 C 1.173399462890625 0.47250000000000014 1.171899462890625 0.4770000000000001 1.171899462890625 0.48150000000000015 L 1.168899462890625 0.5025000000000002 C 0.997899462890625 0.5100000000000001 0.832899462890625 0.6975000000000001 0.832899462890625 0.9735000000000001 C 0.832899462890625 1.0305000000000002 0.859899462890625 1.1130000000000002 0.9198994628906251 1.1130000000000002 Z M 1.1478994628906252 0.6585000000000001 C 1.1118994628906251 0.7470000000000001 1.048899462890625 0.9735000000000001 0.939399462890625 1.0335 C 0.931899462890625 1.0335 0.930399462890625 1.0230000000000001 0.930399462890625 1.0155 C 0.960399462890625 0.8910000000000001 1.026399462890625 0.7410000000000001 1.1478994628906252 0.6585000000000001 Z M 1.869785009765625 0.5880000000000001 C 1.869785009765625 0.5835000000000001 1.863785009765625 0.5820000000000002 1.854785009765625 0.5820000000000002 C 1.841285009765625 0.5820000000000002 1.8202850097656251 0.5865000000000001 1.812785009765625 0.5925000000000001 C 1.809785009765625 0.5940000000000001 1.794785009765625 0.6195000000000002 1.7917850097656252 0.6165000000000002 C 1.7437850097656251 0.7035000000000001 1.7212850097656252 0.7740000000000001 1.682285009765625 0.8625000000000002 C 1.677785009765625 0.7650000000000001 1.670285009765625 0.6930000000000001 1.6627850097656252 0.6075000000000002 C 1.665785009765625 0.5940000000000001 1.665785009765625 0.5835000000000001 1.665785009765625 0.5730000000000002 C 1.665785009765625 0.5535000000000001 1.6627850097656252 0.5415000000000001 1.655285009765625 0.5370000000000001 C 1.6447850097656251 0.5265000000000001 1.629785009765625 0.5220000000000001 1.613285009765625 0.5220000000000001 C 1.587785009765625 0.5220000000000001 1.560785009765625 0.5325000000000001 1.5457850097656252 0.5445000000000001 C 1.5157850097656251 0.5445000000000001 1.484285009765625 0.5820000000000002 1.484285009765625 0.6150000000000001 C 1.484285009765625 0.6825000000000001 1.494785009765625 1.068 1.584785009765625 1.068 C 1.5982850097656252 1.068 1.607285009765625 1.062 1.619285009765625 1.062 C 1.625285009765625 1.062 1.640285009765625 1.0650000000000002 1.6567850097656251 1.0650000000000002 C 1.677785009765625 1.0650000000000002 1.701785009765625 1.0605000000000002 1.7107850097656252 1.0395 C 1.7497850097656251 0.9555000000000001 1.841285009765625 0.6840000000000002 1.869785009765625 0.5880000000000001 Z M 2.4806932617187503 0.8295000000000001 C 2.48819326171875 0.8175000000000001 2.49419326171875 0.8055000000000001 2.5031932617187502 0.7965000000000002 L 2.51669326171875 0.7770000000000001 C 2.51969326171875 0.7770000000000001 2.51969326171875 0.7755000000000001 2.51969326171875 0.7740000000000001 C 2.52119326171875 0.7710000000000001 2.52419326171875 0.7710000000000001 2.52569326171875 0.7680000000000001 C 2.52419326171875 0.7695000000000001 2.52419326171875 0.7710000000000001 2.52419326171875 0.7725000000000002 C 2.52419326171875 0.7725000000000002 2.52119326171875 0.7770000000000001 2.51969326171875 0.7800000000000001 C 2.51819326171875 0.7830000000000001 2.51669326171875 0.7830000000000001 2.5151932617187502 0.7845000000000002 C 2.5061932617187503 0.7950000000000002 2.50019326171875 0.8085000000000002 2.50019326171875 0.8115000000000001 C 2.50019326171875 0.8130000000000002 2.5061932617187503 0.8055000000000001 2.5061932617187503 0.8055000000000001 C 2.51369326171875 0.7965000000000002 2.53469326171875 0.7650000000000001 2.53619326171875 0.7620000000000001 C 2.54819326171875 0.7500000000000001 2.53769326171875 0.7455000000000002 2.54969326171875 0.7425000000000002 L 2.55569326171875 0.7290000000000001 C 2.56019326171875 0.7170000000000001 2.56319326171875 0.7065000000000001 2.56319326171875 0.6960000000000002 C 2.56319326171875 0.6915000000000001 2.56319326171875 0.687 2.5616932617187502 0.6810000000000002 C 2.56019326171875 0.6765000000000001 2.54969326171875 0.6525000000000001 2.54369326171875 0.6525000000000001 C 2.5301932617187504 0.6525000000000001 2.51819326171875 0.6795000000000002 2.51819326171875 0.6795000000000002 C 2.46119326171875 0.7770000000000001 2.30069326171875 0.9660000000000002 2.27519326171875 0.9630000000000001 C 2.26019326171875 0.9615000000000001 2.2571932617187502 0.7980000000000002 2.2571932617187502 0.6945000000000001 L 2.2571932617187502 0.6270000000000001 C 2.2571932617187502 0.6225000000000002 2.25869326171875 0.6195000000000002 2.25869326171875 0.6165000000000002 L 2.25869326171875 0.6060000000000001 C 2.25869326171875 0.5955000000000001 2.26019326171875 0.5940000000000001 2.26169326171875 0.5850000000000002 C 2.26169326171875 0.5775000000000001 2.25569326171875 0.5790000000000002 2.25569326171875 0.5700000000000002 C 2.26319326171875 0.5700000000000002 2.26769326171875 0.5670000000000002 2.2706932617187503 0.5640000000000002 C 2.2706932617187503 0.5640000000000002 2.27219326171875 0.5610000000000002 2.27219326171875 0.5580000000000002 C 2.27219326171875 0.5385000000000001 2.19569326171875 0.5250000000000001 2.18219326171875 0.5250000000000001 C 2.16869326171875 0.5250000000000001 2.15669326171875 0.5280000000000001 2.14619326171875 0.5325000000000001 C 2.02769326171875 0.5880000000000001 1.9451932617187502 0.7740000000000001 1.9376932617187501 0.8970000000000001 C 1.9376932617187501 0.9225000000000001 1.9451932617187502 0.9465000000000001 1.9676932617187501 0.9615000000000001 C 1.9796932617187502 0.9705000000000001 1.99319326171875 0.9735000000000001 2.00669326171875 0.9735000000000001 C 2.01569326171875 0.9735000000000001 2.0231932617187502 0.9720000000000002 2.03069326171875 0.9690000000000001 C 2.04119326171875 0.9630000000000001 2.04269326171875 0.9540000000000002 2.05319326171875 0.9435000000000001 C 2.07419326171875 0.9465000000000001 2.15069326171875 0.8055000000000001 2.17319326171875 0.7305000000000001 C 2.17319326171875 0.7290000000000001 2.1761932617187503 0.7185000000000001 2.17919326171875 0.7155000000000001 C 2.1776932617187503 0.7380000000000002 2.1761932617187503 0.7650000000000001 2.1761932617187503 0.7935000000000001 C 2.1761932617187503 0.8535000000000001 2.1776932617187503 1.0110000000000001 2.2706932617187503 1.0110000000000001 C 2.27669326171875 1.0110000000000001 2.2811932617187503 1.0095 2.28719326171875 1.0080000000000002 C 2.29919326171875 1.0080000000000002 2.30669326171875 1.0080000000000002 2.31869326171875 1.0050000000000001 C 2.3411932617187503 0.9945000000000002 2.35019326171875 0.9960000000000001 2.3651932617187503 0.9780000000000002 C 2.37119326171875 0.9690000000000001 2.37719326171875 0.9675000000000001 2.38319326171875 0.9645000000000001 C 2.38919326171875 0.9615000000000001 2.4356932617187503 0.9045000000000001 2.4356932617187503 0.9045000000000001 C 2.43869326171875 0.9000000000000001 2.4446932617187502 0.8940000000000001 2.44619326171875 0.8895000000000002 C 2.44769326171875 0.8910000000000001 2.45369326171875 0.8820000000000001 2.45219326171875 0.8820000000000001 C 2.45519326171875 0.8760000000000001 2.46569326171875 0.8670000000000002 2.47169326171875 0.8580000000000001 C 2.47169326171875 0.8535000000000001 2.47919326171875 0.8490000000000002 2.47919326171875 0.8490000000000002 L 2.48369326171875 0.8430000000000002 C 2.48369326171875 0.8430000000000002 2.48969326171875 0.8220000000000001 2.49119326171875 0.8205000000000001 C 2.48819326171875 0.8190000000000002 2.4821932617187503 0.8280000000000001 2.4806932617187503 0.8295000000000001 Z M 2.02169326171875 0.9180000000000001 C 2.04419326171875 0.8400000000000001 2.13719326171875 0.6195000000000002 2.2106932617187502 0.5835000000000001 C 2.20619326171875 0.5865000000000001 2.18519326171875 0.6105000000000002 2.18369326171875 0.6240000000000001 C 2.12519326171875 0.7305000000000001 2.0831932617187503 0.8130000000000002 2.02619326171875 0.9165000000000001 C 2.02619326171875 0.9165000000000001 2.0231932617187502 0.9180000000000001 2.02169326171875 0.9180000000000001 Z M 2.44619326171875 0.8415000000000001 C 2.44169326171875 0.8460000000000001 2.43719326171875 0.8580000000000001 2.43119326171875 0.8580000000000001 C 2.43119326171875 0.8580000000000001 2.44019326171875 0.8280000000000001 2.44769326171875 0.8280000000000001 C 2.44769326171875 0.8295000000000001 2.44919326171875 0.8235000000000001 2.45069326171875 0.8220000000000001 C 2.45219326171875 0.8205000000000001 2.45069326171875 0.8130000000000002 2.4581932617187503 0.8130000000000002 C 2.4581932617187503 0.8145000000000001 2.4596932617187504 0.8160000000000001 2.4596932617187504 0.8175000000000001 C 2.4596932617187504 0.8235000000000001 2.45069326171875 0.8250000000000002 2.45069326171875 0.8310000000000002 C 2.45069326171875 0.8355000000000001 2.44919326171875 0.8340000000000001 2.44619326171875 0.8415000000000001 Z M 2.4446932617187502 0.8595000000000002 C 2.4446932617187502 0.8595000000000002 2.4446932617187502 0.8580000000000001 2.44169326171875 0.8550000000000002 C 2.44619326171875 0.8475000000000001 2.45519326171875 0.8385000000000001 2.46119326171875 0.8325000000000001 C 2.46269326171875 0.8340000000000001 2.46419326171875 0.8355000000000001 2.46419326171875 0.8370000000000002 C 2.46419326171875 0.8385000000000001 2.46269326171875 0.8400000000000001 2.46119326171875 0.8415000000000001 C 2.4581932617187503 0.8460000000000001 2.4566932617187502 0.8505000000000001 2.45069326171875 0.8535000000000001 L 2.45219326171875 0.8490000000000002 C 2.45069326171875 0.8490000000000002 2.44619326171875 0.8595000000000002 2.4446932617187502 0.8595000000000002 Z M 2.14469326171875 0.7215000000000001 C 2.14319326171875 0.7215000000000001 2.13869326171875 0.7260000000000002 2.13869326171875 0.7245000000000001 C 2.13869326171875 0.7200000000000002 2.14619326171875 0.7050000000000001 2.14769326171875 0.7035000000000001 C 2.15069326171875 0.7035000000000001 2.15669326171875 0.6960000000000002 2.15819326171875 0.6945000000000001 L 2.15519326171875 0.7035000000000001 C 2.15519326171875 0.7065000000000001 2.14619326171875 0.7215000000000001 2.14469326171875 0.7215000000000001 Z M 2.12069326171875 0.7740000000000001 C 2.11919326171875 0.7740000000000001 2.11169326171875 0.7755000000000001 2.11169326171875 0.7785000000000002 C 2.11169326171875 0.7695000000000001 2.12069326171875 0.7650000000000001 2.12519326171875 0.7605000000000002 C 2.13119326171875 0.7560000000000001 2.13419326171875 0.7530000000000001 2.13569326171875 0.7530000000000001 C 2.13719326171875 0.7530000000000001 2.13569326171875 0.7575000000000001 2.1296932617187503 0.7620000000000001 C 2.12669326171875 0.7650000000000001 2.12669326171875 0.7725000000000002 2.12069326171875 0.7740000000000001 Z M 2.13869326171875 0.7395000000000002 C 2.13869326171875 0.7485000000000002 2.12669326171875 0.7575000000000001 2.12219326171875 0.7590000000000001 C 2.12519326171875 0.7530000000000001 2.1281932617187502 0.7440000000000002 2.1281932617187502 0.7470000000000001 C 2.1296932617187503 0.7395000000000002 2.13869326171875 0.7425000000000002 2.13869326171875 0.7395000000000002 Z M 2.43719326171875 0.8925000000000001 C 2.43719326171875 0.8865000000000001 2.43869326171875 0.8850000000000001 2.44169326171875 0.8850000000000001 C 2.43869326171875 0.8835000000000002 2.43869326171875 0.8820000000000001 2.43869326171875 0.8805000000000001 C 2.44319326171875 0.8685000000000002 2.45069326171875 0.8655000000000002 2.45369326171875 0.8565000000000002 C 2.45369326171875 0.8640000000000001 2.45069326171875 0.8655000000000002 2.44919326171875 0.8685000000000002 C 2.44769326171875 0.8775000000000002 2.4446932617187502 0.8820000000000001 2.44169326171875 0.8850000000000001 Z M 2.47769326171875 0.7815000000000001 L 2.48519326171875 0.7815000000000001 C 2.48369326171875 0.7830000000000001 2.4686932617187503 0.7965000000000002 2.4686932617187503 0.7950000000000002 C 2.4686932617187503 0.7935000000000001 2.46719326171875 0.7905000000000002 2.46719326171875 0.7890000000000001 L 2.47319326171875 0.7890000000000001 C 2.47319326171875 0.7845000000000002 2.47469326171875 0.7845000000000002 2.47769326171875 0.7815000000000001 Z M 2.18069326171875 0.6630000000000001 C 2.1776932617187503 0.6690000000000002 2.17319326171875 0.6735000000000002 2.17169326171875 0.6720000000000002 L 2.1761932617187503 0.6660000000000001 C 2.1776932617187503 0.6675000000000002 2.18069326171875 0.6630000000000001 2.18069326171875 0.6630000000000001 Z M 2.13869326171875 0.7620000000000001 C 2.13869326171875 0.7620000000000001 2.1401932617187502 0.7650000000000001 2.1401932617187502 0.7665000000000002 C 2.13719326171875 0.7665000000000002 2.13419326171875 0.7710000000000001 2.13419326171875 0.7710000000000001 C 2.13419326171875 0.7680000000000001 2.13719326171875 0.7635000000000001 2.13869326171875 0.7620000000000001 Z M 2.13569326171875 0.7740000000000001 L 2.14619326171875 0.7650000000000001 C 2.14469326171875 0.7695000000000001 2.13869326171875 0.7725000000000002 2.13569326171875 0.7740000000000001 Z M 2.9401125 1.0455 C 3.0496125000000003 1.0455 3.2056125 0.8535000000000001 3.2641125 0.7485000000000002 C 3.2656125 0.7470000000000001 3.2656125 0.7440000000000002 3.2656125 0.7395000000000002 C 3.2656125 0.7230000000000001 3.2551125 0.6915000000000001 3.2401125000000004 0.6915000000000001 C 3.2356125000000002 0.6915000000000001 3.2296125 0.6945000000000001 3.2251125000000003 0.7020000000000002 C 3.1306125000000002 0.8295000000000001 3.0256125000000003 0.9540000000000002 3.0046125000000004 0.9540000000000002 C 3.0031125000000003 0.9540000000000002 3.0016125000000002 0.9495000000000001 3.0016125000000002 0.9405000000000001 C 3.0016125000000002 0.9030000000000001 3.0151125 0.8010000000000002 3.0151125 0.7275000000000001 C 3.0151125 0.6975000000000001 3.0121125 0.6705000000000001 3.0061125 0.6570000000000001 C 2.9926125 0.6270000000000001 2.9386125 0.6135000000000002 2.8966125000000003 0.6135000000000002 C 2.8801125 0.6135000000000002 2.8666125 0.6150000000000001 2.8561125 0.6195000000000002 C 2.7841125 0.6480000000000001 2.7271125 0.7605000000000002 2.7031125 0.7965000000000002 C 2.7136125 0.7485000000000002 2.7346125 0.6510000000000001 2.7421125 0.6090000000000001 L 2.7421125 0.6030000000000001 C 2.7421125 0.5835000000000001 2.7241125 0.5655000000000001 2.7031125 0.5655000000000001 C 2.6956125 0.5655000000000001 2.6866125000000003 0.5685000000000001 2.6791125 0.5745000000000001 C 2.6461125 0.5865000000000001 2.6056125000000003 0.5745000000000001 2.5951125 0.6195000000000002 C 2.5741125 0.7125000000000001 2.5471125 0.8835000000000002 2.5471125 0.9810000000000001 C 2.5546125 1.0080000000000002 2.5756125 0.9960000000000001 2.6071125 1.0095 C 2.6191125 1.0215 2.6311125 1.0275 2.6416125 1.0275 C 2.6581125 1.0275 2.6731125000000002 1.0140000000000002 2.6821125 0.9885000000000002 C 2.7331125000000003 0.8820000000000001 2.7796125000000003 0.7830000000000001 2.8546125 0.6960000000000002 C 2.8606125000000002 0.6975000000000001 2.8621125000000003 0.7080000000000002 2.8621125000000003 0.7230000000000001 C 2.8621125000000003 0.7710000000000001 2.8426125 0.8700000000000001 2.8426125 0.9405000000000001 C 2.8426125 1.0095 2.8651125 1.0455 2.9401125 1.0455 Z M 3.842001708984375 0.7065000000000001 C 3.8375017089843753 0.7065000000000001 3.834501708984375 0.6975000000000001 3.834501708984375 0.6915000000000001 C 3.834501708984375 0.6855000000000001 3.8270017089843753 0.6825000000000001 3.8255017089843752 0.6795000000000002 C 3.8255017089843752 0.6765000000000001 3.821001708984375 0.6645000000000001 3.8135017089843752 0.6645000000000001 C 3.812001708984375 0.6645000000000001 3.810501708984375 0.6645000000000001 3.809001708984375 0.6660000000000001 C 3.731001708984375 0.7950000000000002 3.6035017089843753 0.9420000000000002 3.512001708984375 0.9420000000000002 L 3.504501708984375 0.9420000000000002 C 3.455001708984375 0.9375000000000001 3.4400017089843753 0.9000000000000001 3.4400017089843753 0.8565000000000002 C 3.4400017089843753 0.7860000000000001 3.491001708984375 0.6285000000000002 3.5690017089843753 0.6285000000000002 C 3.572001708984375 0.6285000000000002 3.573501708984375 0.6300000000000001 3.576501708984375 0.6300000000000001 C 3.584001708984375 0.6315000000000002 3.5915017089843753 0.6315000000000002 3.599001708984375 0.6315000000000002 C 3.635001708984375 0.6315000000000002 3.657501708984375 0.6135000000000002 3.657501708984375 0.5940000000000001 C 3.657501708984375 0.5535000000000001 3.575001708984375 0.5475000000000001 3.5465017089843753 0.5475000000000001 C 3.387501708984375 0.5475000000000001 3.2510017089843752 0.6885000000000001 3.2510017089843752 0.8325000000000001 C 3.2510017089843752 0.9645000000000001 3.342501708984375 1.0290000000000001 3.4640017089843753 1.0290000000000001 C 3.6170017089843753 1.0290000000000001 3.7355017089843754 0.9075000000000002 3.836001708984375 0.7395000000000002 C 3.840501708984375 0.7305000000000001 3.840501708984375 0.7275000000000001 3.840501708984375 0.7230000000000001 C 3.840501708984375 0.7200000000000002 3.840501708984375 0.7155000000000001 3.842001708984375 0.7065000000000001 Z M 4.298441455078125 0.7965000000000002 C 4.298441455078125 0.7980000000000002 4.299941455078125 0.8025000000000002 4.301441455078125 0.8025000000000002 C 4.317941455078126 0.7710000000000001 4.331441455078125 0.7680000000000001 4.331441455078125 0.7590000000000001 C 4.331441455078125 0.7470000000000001 4.350941455078125 0.7305000000000001 4.356941455078125 0.7230000000000001 C 4.355441455078125 0.7275000000000001 4.353941455078125 0.7365000000000002 4.350941455078125 0.7395000000000002 L 4.341941455078125 0.7485000000000002 C 4.328441455078125 0.7770000000000001 4.296941455078125 0.8205000000000001 4.274441455078125 0.8505000000000001 C 4.274441455078125 0.8475000000000001 4.269941455078126 0.8460000000000001 4.269941455078126 0.8460000000000001 C 4.265441455078125 0.8490000000000002 4.262441455078125 0.8655000000000002 4.262441455078125 0.8745000000000002 C 4.262441455078125 0.8790000000000001 4.263941455078125 0.8820000000000001 4.263941455078125 0.8820000000000001 C 4.308941455078125 0.8265000000000001 4.373441455078125 0.7395000000000002 4.373441455078125 0.7035000000000001 C 4.373441455078125 0.6990000000000001 4.376441455078125 0.6930000000000001 4.376441455078125 0.687 C 4.376441455078125 0.6825000000000001 4.374941455078125 0.6855000000000001 4.374941455078125 0.6780000000000002 C 4.374941455078125 0.6780000000000002 4.374941455078125 0.6735000000000002 4.373441455078125 0.6735000000000002 C 4.364441455078126 0.6960000000000002 4.362941455078126 0.7065000000000001 4.352441455078125 0.7170000000000001 C 4.352441455078125 0.7125000000000001 4.356941455078125 0.7110000000000001 4.356941455078125 0.7065000000000001 C 4.356941455078125 0.7035000000000001 4.344941455078125 0.7290000000000001 4.331441455078125 0.7395000000000002 C 4.358441455078125 0.6855000000000001 4.358441455078125 0.6810000000000002 4.3614414550781255 0.6810000000000002 C 4.3614414550781255 0.6825000000000001 4.3599414550781255 0.6885000000000001 4.3599414550781255 0.6915000000000001 C 4.367441455078125 0.6840000000000002 4.368941455078125 0.6735000000000002 4.368941455078125 0.6675000000000002 L 4.368941455078125 0.6615000000000001 C 4.368941455078125 0.6570000000000001 4.373441455078125 0.6495000000000002 4.376441455078125 0.6465000000000002 C 4.368941455078125 0.6435000000000002 4.368941455078125 0.6360000000000001 4.364441455078126 0.6360000000000001 C 4.362941455078126 0.6360000000000001 4.3599414550781255 0.6375000000000002 4.355441455078125 0.6420000000000001 L 4.343441455078125 0.6570000000000001 C 4.308941455078125 0.7095000000000001 4.160441455078125 0.9300000000000002 4.019441455078125 0.9300000000000002 C 3.962441455078125 0.9300000000000002 3.9219414550781253 0.9000000000000001 3.9219414550781253 0.8415000000000001 C 3.9219414550781253 0.8280000000000001 3.924941455078125 0.8115000000000001 3.930941455078125 0.7935000000000001 C 3.947441455078125 0.7965000000000002 3.9684414550781253 0.7995000000000001 3.989441455078125 0.7995000000000001 C 4.128941455078126 0.7995000000000001 4.161941455078125 0.7005000000000001 4.161941455078125 0.6525000000000001 C 4.161941455078125 0.6135000000000002 4.145441455078125 0.6000000000000001 4.142441455078125 0.5880000000000001 C 4.139441455078125 0.5805000000000001 4.140941455078125 0.5580000000000002 4.131941455078125 0.5580000000000002 C 4.130441455078125 0.5580000000000002 4.128941455078126 0.5580000000000002 4.1274414550781255 0.5595000000000001 C 4.1274414550781255 0.5610000000000002 4.128941455078126 0.5625000000000001 4.128941455078126 0.5640000000000002 C 4.107941455078125 0.5535000000000001 4.107941455078125 0.5370000000000001 4.0794414550781255 0.5370000000000001 C 3.9324414550781253 0.5370000000000001 3.807941455078125 0.7245000000000001 3.807941455078125 0.8520000000000001 C 3.807941455078125 0.9180000000000001 3.833441455078125 0.9810000000000001 3.8889414550781254 1.0305000000000002 L 3.8889414550781254 1.0230000000000001 C 3.890441455078125 1.0230000000000001 3.915941455078125 1.0350000000000001 3.918941455078125 1.0380000000000003 C 3.9234414550781254 1.0410000000000001 3.927941455078125 1.0395 3.938441455078125 1.0425000000000002 C 3.936941455078125 1.0395 3.929441455078125 1.0380000000000003 3.926441455078125 1.0350000000000001 C 3.9459414550781253 1.0410000000000001 3.972941455078125 1.044 3.987941455078125 1.044 C 3.983441455078125 1.0410000000000001 3.971441455078125 1.0395 3.971441455078125 1.0395 C 3.953441455078125 1.0395 3.9339414550781253 1.0380000000000003 3.9219414550781253 1.0260000000000002 C 3.930941455078125 1.0290000000000001 3.941441455078125 1.0305000000000002 3.950441455078125 1.0350000000000001 L 3.9564414550781253 1.0350000000000001 C 3.960941455078125 1.0350000000000001 3.963941455078125 1.0350000000000001 3.965441455078125 1.0380000000000003 C 3.9684414550781253 1.0380000000000003 3.9669414550781252 1.0350000000000001 3.9684414550781253 1.0350000000000001 C 3.972941455078125 1.0350000000000001 3.9819414550781254 1.0380000000000003 3.986441455078125 1.0380000000000003 C 3.999941455078125 1.0380000000000003 4.005941455078125 1.0470000000000002 4.020941455078125 1.0470000000000002 C 4.025441455078125 1.0470000000000002 4.034441455078126 1.0470000000000002 4.041941455078125 1.044 C 4.155941455078125 1.0185000000000002 4.229441455078125 0.9255000000000001 4.253441455078125 0.8955000000000002 C 4.259441455078125 0.8895000000000002 4.256441455078125 0.8490000000000002 4.271441455078126 0.8400000000000001 C 4.277441455078125 0.8400000000000001 4.281941455078125 0.8220000000000001 4.284941455078125 0.8175000000000001 C 4.2909414550781255 0.8190000000000002 4.2909414550781255 0.8040000000000002 4.295441455078125 0.7980000000000002 C 4.295441455078125 0.7980000000000002 4.296941455078125 0.7965000000000002 4.298441455078125 0.7965000000000002 Z M 4.074941455078125 0.6030000000000001 C 4.080941455078126 0.6030000000000001 4.085441455078125 0.6030000000000001 4.089941455078125 0.6045000000000001 C 4.074941455078125 0.6660000000000001 3.972941455078125 0.7140000000000002 3.950441455078125 0.7305000000000001 C 3.962441455078125 0.6960000000000002 3.986441455078125 0.6600000000000001 4.011941455078125 0.6315000000000002 C 4.028441455078125 0.6180000000000001 4.050941455078125 0.6030000000000001 4.074941455078125 0.6030000000000001 Z M 4.301441455078125 0.7860000000000001 C 4.301441455078125 0.7920000000000001 4.296941455078125 0.7950000000000002 4.295441455078125 0.7980000000000002 C 4.293941455078125 0.7980000000000002 4.278941455078125 0.8130000000000002 4.278941455078125 0.8190000000000002 C 4.269941455078126 0.8190000000000002 4.268441455078126 0.8310000000000002 4.262441455078125 0.8340000000000001 C 4.265441455078125 0.8310000000000002 4.265441455078125 0.8265000000000001 4.268441455078126 0.8250000000000002 C 4.265441455078125 0.8265000000000001 4.262441455078125 0.8295000000000001 4.260941455078125 0.8295000000000001 C 4.260941455078125 0.8205000000000001 4.2669414550781255 0.8160000000000001 4.269941455078126 0.8085000000000002 C 4.278941455078125 0.8085000000000002 4.283441455078125 0.7815000000000001 4.292441455078125 0.7710000000000001 C 4.293941455078125 0.7725000000000002 4.293941455078125 0.7740000000000001 4.293941455078125 0.7755000000000001 C 4.293941455078125 0.7845000000000002 4.284941455078125 0.8025000000000002 4.280441455078125 0.8085000000000002 C 4.284941455078125 0.8025000000000002 4.295441455078125 0.7860000000000001 4.295441455078125 0.7875000000000001 C 4.295441455078125 0.7785000000000002 4.307441455078125 0.7590000000000001 4.3134414550781255 0.7560000000000001 C 4.310441455078125 0.7620000000000001 4.304441455078125 0.7665000000000002 4.302941455078125 0.7740000000000001 C 4.302941455078125 0.7800000000000001 4.301441455078125 0.7830000000000001 4.301441455078125 0.7860000000000001 Z M 4.319441455078125 0.7485000000000002 C 4.319441455078125 0.7455000000000002 4.319441455078125 0.7440000000000002 4.317941455078126 0.7440000000000002 C 4.3149414550781255 0.7440000000000002 4.310441455078125 0.7545000000000002 4.308941455078125 0.7560000000000001 C 4.308941455078125 0.7290000000000001 4.334441455078125 0.7080000000000002 4.347941455078125 0.6930000000000001 C 4.344941455078125 0.7005000000000001 4.325441455078125 0.7230000000000001 4.326941455078125 0.7290000000000001 C 4.320941455078125 0.7350000000000001 4.322441455078125 0.7410000000000001 4.319441455078125 0.7485000000000002 Z M 4.058441455078125 0.5595000000000001 C 4.0554414550781255 0.5595000000000001 4.052441455078125 0.5580000000000002 4.047941455078125 0.5580000000000002 C 4.040441455078125 0.5625000000000001 4.0314414550781255 0.5655000000000001 4.022441455078125 0.5670000000000002 C 4.029941455078125 0.5595000000000001 4.050941455078125 0.5535000000000001 4.0554414550781255 0.5520000000000002 C 4.0554414550781255 0.5535000000000001 4.0569414550781255 0.5550000000000002 4.059941455078125 0.5550000000000002 L 4.067441455078125 0.5550000000000002 C 4.067441455078125 0.5565000000000001 4.061441455078125 0.5595000000000001 4.058441455078125 0.5595000000000001 Z M 4.154441455078125 0.6195000000000002 C 4.1499414550781255 0.6165000000000002 4.1484414550781255 0.6075000000000002 4.145441455078125 0.6030000000000001 L 4.145441455078125 0.6150000000000001 C 4.140941455078125 0.6180000000000001 4.139441455078125 0.5925000000000001 4.139441455078125 0.5910000000000001 C 4.145441455078125 0.5955000000000001 4.154441455078125 0.6135000000000002 4.154441455078125 0.6195000000000002 Z M 4.059941455078125 0.5475000000000001 C 4.061441455078125 0.5475000000000001 4.062941455078125 0.5475000000000001 4.064441455078125 0.5490000000000002 C 4.067441455078125 0.5490000000000002 4.068941455078125 0.5490000000000002 4.071941455078125 0.5475000000000001 C 4.073441455078125 0.5475000000000001 4.074941455078125 0.5475000000000001 4.077941455078125 0.5490000000000002 C 4.052441455078125 0.5490000000000002 4.026941455078125 0.5595000000000001 4.007441455078125 0.5730000000000002 C 4.016441455078125 0.5640000000000002 4.029941455078125 0.5550000000000002 4.046441455078125 0.5520000000000002 C 4.046441455078125 0.5505000000000001 4.0554414550781255 0.5475000000000001 4.059941455078125 0.5475000000000001 Z M 4.070441455078125 0.5400000000000001 C 4.073441455078125 0.5400000000000001 4.076441455078125 0.5400000000000001 4.0794414550781255 0.5415000000000001 L 4.053941455078125 0.5460000000000002 C 4.052441455078125 0.5430000000000001 4.064441455078125 0.5445000000000001 4.064441455078125 0.5415000000000001 C 4.065941455078125 0.5400000000000001 4.067441455078125 0.5400000000000001 4.070441455078125 0.5400000000000001 Z M 4.408344580078125 1.1130000000000002 C 4.490844580078125 1.1130000000000002 4.573344580078125 0.9945000000000002 4.597344580078125 0.9405000000000001 C 4.592844580078125 0.9855000000000002 4.585344580078125 1.0590000000000002 4.585344580078125 1.1280000000000001 C 4.585344580078125 1.1805 4.588344580078124 1.2315 4.601844580078125 1.2630000000000001 L 4.601844580078125 1.2510000000000001 C 4.607844580078125 1.2510000000000001 4.607844580078125 1.2540000000000002 4.610844580078124 1.2585000000000002 C 4.610844580078124 1.2510000000000001 4.609344580078124 1.2405000000000002 4.609344580078124 1.2360000000000002 L 4.6153445800781245 1.2405000000000002 C 4.6153445800781245 1.2375 4.616844580078125 1.2360000000000002 4.616844580078125 1.233 C 4.616844580078125 1.233 4.616844580078125 1.2315 4.628844580078125 1.2540000000000002 C 4.628844580078125 1.245 4.627344580078125 1.2405000000000002 4.627344580078125 1.233 C 4.630344580078125 1.2405000000000002 4.6363445800781244 1.2465000000000002 4.6378445800781245 1.2465000000000002 L 4.6378445800781245 1.233 C 4.645344580078125 1.2360000000000002 4.6618445800781245 1.2435 4.664844580078125 1.2495 C 4.664844580078125 1.245 4.676844580078125 1.2345000000000002 4.682844580078124 1.2315 L 4.6858445800781245 1.2255000000000003 C 4.6858445800781245 1.2285000000000001 4.690344580078125 1.233 4.690344580078125 1.2360000000000002 C 4.690344580078125 1.233 4.696344580078125 1.2300000000000002 4.696344580078125 1.2300000000000002 C 4.697844580078125 1.2315 4.699344580078125 1.2315 4.700844580078125 1.2315 C 4.705344580078124 1.2315 4.7068445800781245 1.2315 4.7083445800781245 1.2285000000000001 C 4.709844580078125 1.2315 4.709844580078125 1.233 4.712844580078125 1.2360000000000002 C 4.712844580078125 1.233 4.714344580078125 1.233 4.714344580078125 1.2300000000000002 C 4.714344580078125 1.2285000000000001 4.720344580078125 1.2360000000000002 4.724844580078125 1.2360000000000002 C 4.723344580078125 1.2285000000000001 4.723344580078125 1.2240000000000002 4.723344580078125 1.2165000000000001 C 4.727844580078124 1.2240000000000002 4.726344580078125 1.2360000000000002 4.733844580078125 1.2360000000000002 L 4.733844580078125 1.2240000000000002 C 4.738344580078125 1.2315 4.742844580078125 1.239 4.747344580078125 1.2405000000000002 C 4.747344580078125 1.2405000000000002 4.747344580078125 1.2360000000000002 4.750344580078124 1.2360000000000002 C 4.7548445800781245 1.2360000000000002 4.759344580078125 1.2405000000000002 4.763844580078125 1.2405000000000002 C 4.760844580078125 1.233 4.760844580078125 1.2240000000000002 4.760844580078125 1.2180000000000002 C 4.760844580078125 1.1985000000000001 4.762344580078125 1.1310000000000002 4.766844580078125 1.1025 C 4.807344580078125 0.7935000000000001 4.858344580078125 0.40800000000000014 4.921344580078125 0.08250000000000002 C 4.922844580078125 0.07650000000000001 4.928844580078125 0.06000000000000005 4.928844580078125 0.04800000000000004 C 4.928844580078125 0.043500000000000094 4.928844580078125 0.039000000000000146 4.925844580078125 0.03750000000000009 C 4.924344580078125 0.010500000000000176 4.903344580078125 2.220446049250313e-16 4.877844580078125 2.220446049250313e-16 C 4.852344580078125 2.220446049250313e-16 4.820844580078125 0.010500000000000176 4.8028445800781245 0.025500000000000078 C 4.799844580078124 0.02400000000000002 4.795344580078125 0.02400000000000002 4.792344580078125 0.02400000000000002 C 4.774344580078124 0.02400000000000002 4.750344580078124 0.03600000000000003 4.745844580078125 0.055500000000000105 C 4.705344580078124 0.1815000000000001 4.676844580078125 0.3660000000000001 4.6618445800781245 0.4680000000000001 C 4.6618445800781245 0.47250000000000014 4.6603445800781245 0.4770000000000001 4.6603445800781245 0.48150000000000015 L 4.657344580078124 0.5025000000000002 C 4.486344580078125 0.5100000000000001 4.321344580078125 0.6975000000000001 4.321344580078125 0.9735000000000001 C 4.321344580078125 1.0305000000000002 4.348344580078125 1.1130000000000002 4.408344580078125 1.1130000000000002 Z M 4.6363445800781244 0.6585000000000001 C 4.600344580078125 0.7470000000000001 4.537344580078125 0.9735000000000001 4.4278445800781245 1.0335 C 4.420344580078125 1.0335 4.418844580078125 1.0230000000000001 4.418844580078125 1.0155 C 4.4488445800781244 0.8910000000000001 4.514844580078125 0.7410000000000001 4.6363445800781244 0.6585000000000001 Z M 5.690169140625001 0.16800000000000015 C 5.498169140625 0.25050000000000017 5.297169140625001 0.5475000000000001 5.297169140625001 0.8160000000000001 C 5.297169140625001 1.0245000000000002 5.397669140625001 1.1490000000000002 5.613669140625 1.1490000000000002 C 5.697669140625001 1.1490000000000002 5.801169140625 1.1280000000000001 5.859669140625001 1.0770000000000002 C 5.859669140625001 1.074 5.855169140625001 1.0725000000000002 5.8536691406250005 1.0725000000000002 L 5.859669140625001 1.0665000000000002 C 5.856669140625001 1.0650000000000002 5.855169140625001 1.0650000000000002 5.8536691406250005 1.0650000000000002 C 5.847669140625001 1.0650000000000002 5.846169140625001 1.0650000000000002 5.846169140625001 1.0635000000000001 C 5.846169140625001 1.0590000000000002 5.841669140625001 1.0590000000000002 5.840169140625001 1.0590000000000002 L 5.847669140625001 1.05 C 5.844669140625001 1.0485000000000002 5.840169140625001 1.0485000000000002 5.837169140625001 1.0485000000000002 L 5.837169140625001 1.0425000000000002 C 5.789169140625001 1.0635000000000001 5.742669140625001 1.074 5.6886691406250005 1.074 C 5.559669140625001 1.074 5.526669140625001 0.9615000000000001 5.526669140625001 0.8340000000000001 C 5.526669140625001 0.7305000000000001 5.556669140625001 0.6165000000000002 5.600169140625001 0.5325000000000001 C 5.648169140625001 0.4395000000000001 5.798169140625001 0.24750000000000016 5.8536691406250005 0.24750000000000016 C 5.855169140625001 0.24750000000000016 5.858169140625001 0.2490000000000001 5.859669140625001 0.2490000000000001 C 5.867169140625001 0.2520000000000001 5.8746691406250005 0.25350000000000017 5.883669140625001 0.25350000000000017 C 5.9001691406250005 0.25350000000000017 5.916669140625 0.2460000000000001 5.918169140625 0.22950000000000015 C 5.918169140625 0.19950000000000012 5.8521691406250005 0.1515000000000002 5.771169140625001 0.1515000000000002 C 5.745669140625001 0.1515000000000002 5.717169140625001 0.15600000000000014 5.690169140625001 0.16800000000000015 Z M 6.512612548828126 0.8295000000000001 C 6.520112548828126 0.8175000000000001 6.526112548828126 0.8055000000000001 6.535112548828126 0.7965000000000002 L 6.548612548828126 0.7770000000000001 C 6.5516125488281265 0.7770000000000001 6.5516125488281265 0.7755000000000001 6.5516125488281265 0.7740000000000001 C 6.5531125488281265 0.7710000000000001 6.556112548828127 0.7710000000000001 6.557612548828126 0.7680000000000001 C 6.556112548828127 0.7695000000000001 6.556112548828127 0.7710000000000001 6.556112548828127 0.7725000000000002 C 6.556112548828127 0.7725000000000002 6.5531125488281265 0.7770000000000001 6.5516125488281265 0.7800000000000001 C 6.550112548828126 0.7830000000000001 6.548612548828126 0.7830000000000001 6.547112548828126 0.7845000000000002 C 6.538112548828126 0.7950000000000002 6.532112548828126 0.8085000000000002 6.532112548828126 0.8115000000000001 C 6.532112548828126 0.8130000000000002 6.538112548828126 0.8055000000000001 6.538112548828126 0.8055000000000001 C 6.545612548828126 0.7965000000000002 6.566612548828126 0.7650000000000001 6.568112548828126 0.7620000000000001 C 6.580112548828126 0.7500000000000001 6.569612548828126 0.7455000000000002 6.581612548828126 0.7425000000000002 L 6.587612548828126 0.7290000000000001 C 6.592112548828126 0.7170000000000001 6.595112548828126 0.7065000000000001 6.595112548828126 0.6960000000000002 C 6.595112548828126 0.6915000000000001 6.595112548828126 0.687 6.593612548828126 0.6810000000000002 C 6.592112548828126 0.6765000000000001 6.581612548828126 0.6525000000000001 6.5756125488281265 0.6525000000000001 C 6.562112548828126 0.6525000000000001 6.550112548828126 0.6795000000000002 6.550112548828126 0.6795000000000002 C 6.493112548828126 0.7770000000000001 6.332612548828126 0.9660000000000002 6.307112548828126 0.9630000000000001 C 6.292112548828126 0.9615000000000001 6.289112548828126 0.7980000000000002 6.289112548828126 0.6945000000000001 L 6.289112548828126 0.6270000000000001 C 6.289112548828126 0.6225000000000002 6.290612548828126 0.6195000000000002 6.290612548828126 0.6165000000000002 L 6.290612548828126 0.6060000000000001 C 6.290612548828126 0.5955000000000001 6.292112548828126 0.5940000000000001 6.2936125488281265 0.5850000000000002 C 6.2936125488281265 0.5775000000000001 6.287612548828126 0.5790000000000002 6.287612548828126 0.5700000000000002 C 6.2951125488281265 0.5700000000000002 6.299612548828126 0.5670000000000002 6.302612548828126 0.5640000000000002 C 6.302612548828126 0.5640000000000002 6.304112548828126 0.5610000000000002 6.304112548828126 0.5580000000000002 C 6.304112548828126 0.5385000000000001 6.227612548828126 0.5250000000000001 6.214112548828126 0.5250000000000001 C 6.2006125488281265 0.5250000000000001 6.188612548828126 0.5280000000000001 6.1781125488281265 0.5325000000000001 C 6.0596125488281265 0.5880000000000001 5.977112548828126 0.7740000000000001 5.969612548828126 0.8970000000000001 C 5.969612548828126 0.9225000000000001 5.977112548828126 0.9465000000000001 5.999612548828126 0.9615000000000001 C 6.0116125488281265 0.9705000000000001 6.025112548828126 0.9735000000000001 6.038612548828127 0.9735000000000001 C 6.047612548828126 0.9735000000000001 6.055112548828126 0.9720000000000002 6.062612548828126 0.9690000000000001 C 6.073112548828126 0.9630000000000001 6.074612548828126 0.9540000000000002 6.085112548828127 0.9435000000000001 C 6.1061125488281265 0.9465000000000001 6.182612548828126 0.8055000000000001 6.205112548828126 0.7305000000000001 C 6.205112548828126 0.7290000000000001 6.208112548828126 0.7185000000000001 6.211112548828126 0.7155000000000001 C 6.209612548828126 0.7380000000000002 6.208112548828126 0.7650000000000001 6.208112548828126 0.7935000000000001 C 6.208112548828126 0.8535000000000001 6.209612548828126 1.0110000000000001 6.302612548828126 1.0110000000000001 C 6.308612548828126 1.0110000000000001 6.313112548828126 1.0095 6.319112548828127 1.0080000000000002 C 6.331112548828126 1.0080000000000002 6.338612548828126 1.0080000000000002 6.350612548828126 1.0050000000000001 C 6.373112548828126 0.9945000000000002 6.382112548828126 0.9960000000000001 6.397112548828126 0.9780000000000002 C 6.403112548828126 0.9690000000000001 6.409112548828126 0.9675000000000001 6.415112548828126 0.9645000000000001 C 6.421112548828126 0.9615000000000001 6.467612548828126 0.9045000000000001 6.467612548828126 0.9045000000000001 C 6.470612548828126 0.9000000000000001 6.476612548828126 0.8940000000000001 6.478112548828126 0.8895000000000002 C 6.479612548828126 0.8910000000000001 6.485612548828126 0.8820000000000001 6.484112548828126 0.8820000000000001 C 6.487112548828126 0.8760000000000001 6.497612548828126 0.8670000000000002 6.5036125488281264 0.8580000000000001 C 6.5036125488281264 0.8535000000000001 6.511112548828126 0.8490000000000002 6.511112548828126 0.8490000000000002 L 6.515612548828126 0.8430000000000002 C 6.515612548828126 0.8430000000000002 6.521612548828126 0.8220000000000001 6.523112548828126 0.8205000000000001 C 6.520112548828126 0.8190000000000002 6.514112548828126 0.8280000000000001 6.512612548828126 0.8295000000000001 Z M 6.053612548828126 0.9180000000000001 C 6.076112548828126 0.8400000000000001 6.169112548828126 0.6195000000000002 6.242612548828126 0.5835000000000001 C 6.238112548828126 0.5865000000000001 6.217112548828126 0.6105000000000002 6.215612548828126 0.6240000000000001 C 6.157112548828126 0.7305000000000001 6.115112548828126 0.8130000000000002 6.058112548828126 0.9165000000000001 C 6.058112548828126 0.9165000000000001 6.055112548828126 0.9180000000000001 6.053612548828126 0.9180000000000001 Z M 6.478112548828126 0.8415000000000001 C 6.473612548828126 0.8460000000000001 6.469112548828126 0.8580000000000001 6.463112548828126 0.8580000000000001 C 6.463112548828126 0.8580000000000001 6.472112548828126 0.8280000000000001 6.479612548828126 0.8280000000000001 C 6.479612548828126 0.8295000000000001 6.4811125488281265 0.8235000000000001 6.4826125488281265 0.8220000000000001 C 6.484112548828126 0.8205000000000001 6.4826125488281265 0.8130000000000002 6.490112548828126 0.8130000000000002 C 6.490112548828126 0.8145000000000001 6.491612548828126 0.8160000000000001 6.491612548828126 0.8175000000000001 C 6.491612548828126 0.8235000000000001 6.4826125488281265 0.8250000000000002 6.4826125488281265 0.8310000000000002 C 6.4826125488281265 0.8355000000000001 6.4811125488281265 0.8340000000000001 6.478112548828126 0.8415000000000001 Z M 6.476612548828126 0.8595000000000002 C 6.476612548828126 0.8595000000000002 6.476612548828126 0.8580000000000001 6.473612548828126 0.8550000000000002 C 6.478112548828126 0.8475000000000001 6.487112548828126 0.8385000000000001 6.493112548828126 0.8325000000000001 C 6.494612548828126 0.8340000000000001 6.496112548828126 0.8355000000000001 6.496112548828126 0.8370000000000002 C 6.496112548828126 0.8385000000000001 6.494612548828126 0.8400000000000001 6.493112548828126 0.8415000000000001 C 6.490112548828126 0.8460000000000001 6.488612548828126 0.8505000000000001 6.4826125488281265 0.8535000000000001 L 6.484112548828126 0.8490000000000002 C 6.4826125488281265 0.8490000000000002 6.478112548828126 0.8595000000000002 6.476612548828126 0.8595000000000002 Z M 6.1766125488281265 0.7215000000000001 C 6.175112548828126 0.7215000000000001 6.170612548828126 0.7260000000000002 6.170612548828126 0.7245000000000001 C 6.170612548828126 0.7200000000000002 6.1781125488281265 0.7050000000000001 6.179612548828127 0.7035000000000001 C 6.182612548828126 0.7035000000000001 6.188612548828126 0.6960000000000002 6.190112548828126 0.6945000000000001 L 6.187112548828126 0.7035000000000001 C 6.187112548828126 0.7065000000000001 6.1781125488281265 0.7215000000000001 6.1766125488281265 0.7215000000000001 Z M 6.1526125488281265 0.7740000000000001 C 6.151112548828126 0.7740000000000001 6.143612548828126 0.7755000000000001 6.143612548828126 0.7785000000000002 C 6.143612548828126 0.7695000000000001 6.1526125488281265 0.7650000000000001 6.157112548828126 0.7605000000000002 C 6.163112548828126 0.7560000000000001 6.166112548828126 0.7530000000000001 6.167612548828126 0.7530000000000001 C 6.169112548828126 0.7530000000000001 6.167612548828126 0.7575000000000001 6.161612548828126 0.7620000000000001 C 6.158612548828126 0.7650000000000001 6.158612548828126 0.7725000000000002 6.1526125488281265 0.7740000000000001 Z M 6.170612548828126 0.7395000000000002 C 6.170612548828126 0.7485000000000002 6.158612548828126 0.7575000000000001 6.1541125488281265 0.7590000000000001 C 6.157112548828126 0.7530000000000001 6.160112548828126 0.7440000000000002 6.160112548828126 0.7470000000000001 C 6.161612548828126 0.7395000000000002 6.170612548828126 0.7425000000000002 6.170612548828126 0.7395000000000002 Z M 6.469112548828126 0.8925000000000001 C 6.469112548828126 0.8865000000000001 6.470612548828126 0.8850000000000001 6.473612548828126 0.8850000000000001 C 6.470612548828126 0.8835000000000002 6.470612548828126 0.8820000000000001 6.470612548828126 0.8805000000000001 C 6.475112548828126 0.8685000000000002 6.4826125488281265 0.8655000000000002 6.485612548828126 0.8565000000000002 C 6.485612548828126 0.8640000000000001 6.4826125488281265 0.8655000000000002 6.4811125488281265 0.8685000000000002 C 6.479612548828126 0.8775000000000002 6.476612548828126 0.8820000000000001 6.473612548828126 0.8850000000000001 Z M 6.509612548828127 0.7815000000000001 L 6.517112548828126 0.7815000000000001 C 6.515612548828126 0.7830000000000001 6.500612548828126 0.7965000000000002 6.500612548828126 0.7950000000000002 C 6.500612548828126 0.7935000000000001 6.499112548828126 0.7905000000000002 6.499112548828126 0.7890000000000001 L 6.5051125488281265 0.7890000000000001 C 6.5051125488281265 0.7845000000000002 6.506612548828127 0.7845000000000002 6.509612548828127 0.7815000000000001 Z M 6.212612548828126 0.6630000000000001 C 6.209612548828126 0.6690000000000002 6.205112548828126 0.6735000000000002 6.203612548828126 0.6720000000000002 L 6.208112548828126 0.6660000000000001 C 6.209612548828126 0.6675000000000002 6.212612548828126 0.6630000000000001 6.212612548828126 0.6630000000000001 Z M 6.170612548828126 0.7620000000000001 C 6.170612548828126 0.7620000000000001 6.172112548828126 0.7650000000000001 6.172112548828126 0.7665000000000002 C 6.169112548828126 0.7665000000000002 6.166112548828126 0.7710000000000001 6.166112548828126 0.7710000000000001 C 6.166112548828126 0.7680000000000001 6.169112548828126 0.7635000000000001 6.170612548828126 0.7620000000000001 Z M 6.167612548828126 0.7740000000000001 L 6.1781125488281265 0.7650000000000001 C 6.1766125488281265 0.7695000000000001 6.170612548828126 0.7725000000000002 6.167612548828126 0.7740000000000001 Z M 6.900031787109377 0.9705000000000001 C 6.927031787109376 0.9495000000000001 6.952531787109376 0.9390000000000002 6.973531787109376 0.9135000000000002 C 6.972031787109376 0.9150000000000001 6.967531787109377 0.9165000000000001 6.967531787109377 0.9150000000000001 C 6.967531787109377 0.9135000000000002 6.9810317871093766 0.9030000000000001 6.9810317871093766 0.9015000000000002 C 6.9810317871093766 0.9000000000000001 6.982531787109377 0.8985000000000001 6.982531787109377 0.8970000000000001 C 6.985531787109377 0.8940000000000001 6.984031787109377 0.8880000000000001 6.987031787109377 0.8880000000000001 C 6.987031787109377 0.8880000000000001 6.990031787109377 0.8895000000000002 6.994531787109377 0.8925000000000001 C 6.999031787109376 0.8775000000000002 6.997531787109376 0.8880000000000001 7.0020317871093765 0.8775000000000002 C 7.0035317871093765 0.8730000000000002 7.014031787109377 0.8640000000000001 7.014031787109377 0.8565000000000002 C 7.014031787109377 0.8565000000000002 7.017031787109377 0.8535000000000001 7.023031787109376 0.8535000000000001 C 7.021531787109376 0.8565000000000002 7.015531787109377 0.8565000000000002 7.015531787109377 0.8595000000000002 C 7.015531787109377 0.8610000000000002 7.029031787109377 0.8520000000000001 7.029031787109377 0.8445000000000001 C 7.029031787109377 0.8325000000000001 7.036531787109377 0.8340000000000001 7.042531787109377 0.8220000000000001 C 7.041031787109377 0.8205000000000001 7.041031787109377 0.8190000000000002 7.041031787109377 0.8190000000000002 L 7.041031787109377 0.8175000000000001 C 7.0500317871093765 0.8175000000000001 7.0500317871093765 0.8130000000000002 7.054531787109377 0.8055000000000001 L 7.059031787109377 0.7980000000000002 C 7.053031787109377 0.7980000000000002 7.042531787109377 0.8130000000000002 7.041031787109377 0.8175000000000001 L 7.039531787109377 0.8175000000000001 L 7.041031787109377 0.8190000000000002 C 7.041031787109377 0.8220000000000001 7.0260317871093765 0.8310000000000002 7.0260317871093765 0.8325000000000001 C 7.0260317871093765 0.8340000000000001 7.023031787109376 0.8445000000000001 7.023031787109376 0.8415000000000001 C 7.021531787109376 0.8400000000000001 7.009531787109377 0.8565000000000002 7.0035317871093765 0.8610000000000002 C 7.0035317871093765 0.8670000000000002 6.997531787109376 0.8685000000000002 6.996031787109376 0.8715000000000002 C 6.996031787109376 0.8700000000000001 6.996031787109376 0.8685000000000002 6.997531787109376 0.8655000000000002 C 6.999031787109376 0.8595000000000002 7.0020317871093765 0.8520000000000001 7.008031787109377 0.8520000000000001 C 7.008031787109377 0.8445000000000001 7.015531787109377 0.8400000000000001 7.015531787109377 0.8325000000000001 C 7.015531787109377 0.8325000000000001 6.999031787109376 0.8565000000000002 6.988531787109377 0.8565000000000002 C 6.987031787109377 0.8565000000000002 7.021531787109376 0.8265000000000001 7.0260317871093765 0.8055000000000001 L 7.030531787109377 0.8055000000000001 C 7.030531787109377 0.8010000000000002 7.0275317871093765 0.8025000000000002 7.0275317871093765 0.8010000000000002 C 7.030531787109377 0.8010000000000002 7.032031787109377 0.7995000000000001 7.033531787109377 0.7980000000000002 L 7.033531787109377 0.7935000000000001 C 7.042531787109377 0.7905000000000002 7.053031787109377 0.7635000000000001 7.053031787109377 0.7650000000000001 L 7.065031787109376 0.7440000000000002 C 7.068031787109376 0.7380000000000002 7.068031787109376 0.7335000000000002 7.068031787109376 0.7305000000000001 L 7.068031787109376 0.7230000000000001 C 7.068031787109376 0.7200000000000002 7.068031787109376 0.7185000000000001 7.069531787109376 0.7155000000000001 C 7.069531787109376 0.7155000000000001 7.069531787109376 0.7065000000000001 7.071031787109376 0.7080000000000002 L 7.063531787109377 0.6990000000000001 L 7.060531787109377 0.6915000000000001 C 7.035031787109377 0.7245000000000001 6.903031787109376 0.9270000000000002 6.820531787109377 0.9855000000000002 C 6.817531787109377 0.9855000000000002 6.8145317871093765 0.9840000000000002 6.8145317871093765 0.9795000000000001 C 6.8145317871093765 0.9180000000000001 6.939031787109377 0.7545000000000002 6.939031787109377 0.6495000000000002 C 6.939031787109377 0.5730000000000002 6.7920317871093765 0.5505000000000001 6.795031787109377 0.5385000000000001 C 6.795031787109377 0.5250000000000001 6.858031787109376 0.43200000000000016 6.858031787109376 0.3690000000000001 C 6.858031787109376 0.34350000000000014 6.817531787109377 0.29400000000000015 6.760531787109377 0.29400000000000015 C 6.667531787109376 0.29400000000000015 6.646531787109376 0.4530000000000002 6.646531787109376 0.4680000000000001 C 6.646531787109376 0.5370000000000001 6.666031787109377 0.5550000000000002 6.6975317871093765 0.5760000000000002 C 6.6525317871093765 0.6510000000000001 6.592531787109377 0.7470000000000001 6.553531787109376 0.8010000000000002 C 6.553531787109376 0.8055000000000001 6.550531787109376 0.8070000000000002 6.550531787109376 0.8115000000000001 C 6.550531787109376 0.8400000000000001 6.567031787109377 0.8520000000000001 6.595531787109377 0.8520000000000001 C 6.607531787109377 0.8415000000000001 6.6735317871093764 0.7410000000000001 6.757531787109377 0.6000000000000001 C 6.760531787109377 0.6015000000000001 6.799531787109377 0.6120000000000001 6.799531787109377 0.6225000000000002 C 6.799531787109377 0.6630000000000001 6.681031787109377 0.8295000000000001 6.681031787109377 0.9255000000000001 C 6.681031787109377 0.9945000000000002 6.763531787109376 1.0335 6.798031787109377 1.0335 C 6.864031787109377 1.0335 6.928531787109376 0.9675000000000001 6.928531787109376 0.9645000000000001 L 6.936031787109377 0.9525000000000001 C 6.9330317871093765 0.9540000000000002 6.900031787109377 0.9705000000000001 6.900031787109377 0.9705000000000001 Z M 6.727531787109377 0.49950000000000017 C 6.727531787109377 0.45750000000000013 6.757531787109377 0.3975000000000001 6.790531787109376 0.3810000000000001 C 6.786031787109376 0.42900000000000016 6.757531787109377 0.47550000000000014 6.733531787109377 0.5145000000000002 L 6.730531787109377 0.5190000000000001 C 6.729031787109377 0.5130000000000001 6.727531787109377 0.5070000000000001 6.727531787109377 0.49950000000000017 Z M 7.038031787109377 0.7965000000000002 C 7.038031787109377 0.7980000000000002 7.047031787109376 0.7905000000000002 7.0485317871093764 0.7905000000000002 C 7.0500317871093765 0.7905000000000002 7.053031787109377 0.7860000000000001 7.054531787109377 0.7815000000000001 C 7.056031787109377 0.7800000000000001 7.056031787109377 0.7785000000000002 7.056031787109377 0.7770000000000001 C 7.0500317871093765 0.7785000000000002 7.038031787109377 0.7905000000000002 7.038031787109377 0.7965000000000002 Z M 6.982531787109377 0.8715000000000002 C 6.991531787109377 0.8670000000000002 6.994531787109377 0.8610000000000002 6.994531787109377 0.8595000000000002 L 6.999031787109376 0.8565000000000002 C 6.994531787109377 0.8640000000000001 6.990031787109377 0.8685000000000002 6.982531787109377 0.8715000000000002 Z" fill="#373b42" fill-rule="nonzero"></path></g><g><path d=" M 0.0376425 1.96957565625 Q 0.0376425 1.9113194062499999 0.057808125 1.85530378125 Q 0.07797375000000001 1.7992881562499998 0.1165125 1.75313128125 Q 0.15505125 1.7069744062499999 0.211515 1.67963878125 Q 0.26797875 1.65230315625 0.33967875000000003 1.65230315625 Q 0.4248225 1.65230315625 0.485319375 1.6912900312499999 Q 0.54581625 1.7302769062499999 0.57449625 1.7912219062499999 L 0.5252025 1.8216944062499998 Q 0.50458875 1.7795706562499998 0.47322000000000003 1.7549237812499998 Q 0.44185125000000003 1.7302769062499999 0.406449375 1.7195219062499998 Q 0.37104750000000003 1.7087669062499997 0.33609375 1.7087669062499997 Q 0.27873375 1.7087669062499997 0.2348175 1.7316212812499998 Q 0.19090125 1.75447565625 0.160876875 1.7925662812499998 Q 0.1308525 1.8306569062499998 0.11561625 1.87771003125 Q 0.10038 1.9247631562499998 0.10038 1.97316065625 Q 0.10038 2.02603940625 0.11830500000000001 2.07443690625 Q 0.13623 2.12283440625 0.168495 2.16002878125 Q 0.20076 2.1972231562499998 0.24422812500000002 2.21918128125 Q 0.28769625 2.24113940625 0.3387825 2.24113940625 Q 0.37463250000000003 2.24113940625 0.412275 2.2285919062499997 Q 0.4499175 2.21604440625 0.48263062500000004 2.19005315625 Q 0.51534375 2.1640619062499997 0.53506125 2.12283440625 L 0.58704375 2.14972190625 Q 0.56732625 2.1972231562499998 0.5260987500000001 2.23038440625 Q 0.48487125000000003 2.26354565625 0.434233125 2.28057440625 Q 0.383595 2.2976031562499997 0.3351975 2.2976031562499997 Q 0.26977125 2.2976031562499997 0.2151 2.2693712812499998 Q 0.16042875 2.24113940625 0.120545625 2.1940862812499997 Q 0.0806625 2.14703315625 0.059152500000000004 2.08832878125 Q 0.0376425 2.02962440625 0.0376425 1.96957565625 Z M 0.7035330560302735 2.29222565625 L 0.7035330560302735 1.6558881562499999 L 0.9724080560302735 1.6558881562499999 Q 1.0136355560302734 1.6558881562499999 1.0476930560302735 1.6729169062499998 Q 1.0817505560302734 1.68994565625 1.1072936810302734 1.7190737812499999 Q 1.1328368060302734 1.7482019062499998 1.1467286810302735 1.7836037812499999 Q 1.1606205560302736 1.8190056562499999 1.1606205560302736 1.8557519062499999 Q 1.1606205560302736 1.9014606562499998 1.1431436810302733 1.9417919062499998 Q 1.1256668060302735 1.98212315625 1.0938499310302734 2.00990690625 Q 1.0620330560302735 2.0376906562499997 1.0190130560302735 2.0466531562499997 L 1.1749605560302734 2.29222565625 L 1.1041568060302733 2.29222565625 L 0.9544830560302735 2.0574081562499997 L 0.7662705560302735 2.0574081562499997 L 0.7662705560302735 2.29222565625 L 0.7035330560302735 2.29222565625 Z M 0.7662705560302735 2.0018406562499997 L 0.9742005560302734 2.0018406562499997 Q 1.0118430560302736 2.0018406562499997 1.0396268060302734 1.9812269062499999 Q 1.0674105560302736 1.9606131562499998 1.0826468060302734 1.9270037812499998 Q 1.0978830560302735 1.8933944062499999 1.0978830560302735 1.8557519062499999 Q 1.0978830560302735 1.8172131562499998 1.0804061810302734 1.78450003125 Q 1.0629293060302736 1.75178690625 1.0338011810302734 1.7316212812499998 Q 1.0046730560302735 1.7114556562499998 0.9688230560302735 1.7114556562499998 L 0.7662705560302735 1.7114556562499998 L 0.7662705560302735 2.0018406562499997 Z M 1.7252169195556641 2.23665815625 L 1.7252169195556641 2.29222565625 L 1.2977056695556641 2.29222565625 L 1.2977056695556641 1.6558881562499999 L 1.717150669555664 1.6558881562499999 L 1.717150669555664 1.7114556562499998 L 1.360443169555664 1.7114556562499998 L 1.360443169555664 1.94089565625 L 1.6714419195556642 1.94089565625 L 1.6714419195556642 1.9937744062499998 L 1.360443169555664 1.9937744062499998 L 1.360443169555664 2.23665815625 L 1.7252169195556641 2.23665815625 Z M 2.0496125939941408 1.6558881562499999 L 2.1024913439941404 1.6558881562499999 L 2.3668850939941404 2.29222565625 L 2.3005625939941408 2.29222565625 L 2.218107593994141 2.0932581562499997 L 1.9322038439941407 2.0932581562499997 L 1.8506450939941406 2.29222565625 L 1.7834263439941407 2.29222565625 L 2.0496125939941408 1.6558881562499999 Z M 2.2037675939941406 2.0439644062499998 L 2.0756038439941404 1.7293806562499998 L 1.9456475939941407 2.0439644062499998 L 2.2037675939941406 2.0439644062499998 Z M 2.857949571533203 1.7114556562499998 L 2.631198321533203 1.7114556562499998 L 2.631198321533203 2.29222565625 L 2.568460821533203 2.29222565625 L 2.568460821533203 1.7114556562499998 L 2.3417095715332032 1.7114556562499998 L 2.3417095715332032 1.6558881562499999 L 2.857949571533203 1.6558881562499999 L 2.857949571533203 1.7114556562499998 Z M 2.9619014428710937 2.29222565625 L 2.9619014428710937 1.6558881562499999 L 3.0246389428710936 1.6558881562499999 L 3.0246389428710936 2.29222565625 L 2.9619014428710937 2.29222565625 Z M 3.4494487518310546 2.29670690625 Q 3.3822300018310547 2.29670690625 3.3275587518310545 2.26981940625 Q 3.272887501831055 2.24293190625 3.2334525018310547 2.19677503125 Q 3.1940175018310546 2.1506181562499997 3.172507501831055 2.09281003125 Q 3.1509975018310548 2.0350019062499998 3.1509975018310548 1.97405690625 Q 3.1509975018310548 1.9104231562499998 3.1734037518310547 1.8526150312499998 Q 3.1958100018310547 1.7948069062499998 3.2365893768310547 1.7495462812499998 Q 3.277368751831055 1.7042856562499997 3.3320400018310545 1.67784628125 Q 3.3867112518310547 1.6514069062499999 3.450345001831055 1.6514069062499999 Q 3.5175637518310547 1.6514069062499999 3.572235001831055 1.6791906562499999 Q 3.6269062518310546 1.7069744062499999 3.6658931268310546 1.7535794062499999 Q 3.7048800018310546 1.8001844062499999 3.7263900018310547 1.8575444062499997 Q 3.747900001831055 1.9149044062499998 3.747900001831055 1.9749531562499998 Q 3.747900001831055 2.03858690625 3.725493751831055 2.0963950312499997 Q 3.703087501831055 2.15420315625 3.6627562518310546 2.19946378125 Q 3.6224250018310546 2.24472440625 3.567753751831055 2.2707156562499997 Q 3.5130825018310547 2.29670690625 3.4494487518310546 2.29670690625 Z M 3.2137350018310546 1.97405690625 Q 3.2137350018310546 2.02603940625 3.230763751831055 2.0739887812499997 Q 3.247792501831055 2.1219381562499997 3.279161251831055 2.15913253125 Q 3.310530001831055 2.19632690625 3.353998126831055 2.2182850312499998 Q 3.3974662518310548 2.24024315625 3.4494487518310546 2.24024315625 Q 3.5041200018310548 2.24024315625 3.5475881268310547 2.21738878125 Q 3.5910562518310547 2.19453440625 3.621976876831055 2.1564437812499997 Q 3.6528975018310548 2.11835315625 3.6690300018310547 2.0708519062499997 Q 3.685162501831055 2.02335065625 3.685162501831055 1.97405690625 Q 3.685162501831055 1.92207440625 3.668133751831055 1.8745731562499999 Q 3.6511050018310547 1.8270719062499998 3.6192881268310546 1.7894294062499998 Q 3.5874712518310545 1.75178690625 3.5444512518310547 1.7302769062499999 Q 3.501431251831055 1.7087669062499997 3.4494487518310546 1.7087669062499997 Q 3.3956737518310547 1.7087669062499997 3.3522056268310547 1.7311731562499997 Q 3.3087375018310548 1.7535794062499999 3.277816876831055 1.7916700312499998 Q 3.2468962518310547 1.82976065625 3.2303156268310547 1.8772619062499998 Q 3.2137350018310546 1.9247631562499998 3.2137350018310546 1.97405690625 Z M 3.9378839959716796 1.7715044062499998 L 3.9378839959716796 2.29222565625 L 3.8751464959716797 2.29222565625 L 3.8751464959716797 1.6558881562499999 L 3.9271289959716795 1.6558881562499999 L 4.34478149597168 2.1864681562499997 L 4.34478149597168 1.65678440625 L 4.40751899597168 1.65678440625 L 4.40751899597168 2.29222565625 L 4.3492627459716795 2.29222565625 L 3.9378839959716796 1.7715044062499998 Z M 4.947933239135742 1.7750894062499998 Q 4.934489489135742 1.7598531562499997 4.916564489135742 1.7477537812499997 Q 4.898639489135742 1.73565440625 4.876233239135742 1.7266919062499997 Q 4.853826989135742 1.7177294062499997 4.8282838641357415 1.7123519062499999 Q 4.802740739135742 1.7069744062499999 4.774060739135742 1.7069744062499999 Q 4.690709489135742 1.7069744062499999 4.651722614135742 1.7387912812499997 Q 4.612735739135742 1.7706081562499998 4.612735739135742 1.82527940625 Q 4.612735739135742 1.86292190625 4.631108864135742 1.88443190625 Q 4.649481989135742 1.9059419062499998 4.688916989135742 1.9193856562499998 Q 4.728351989135742 1.9328294062499998 4.789296989135742 1.9471694062499998 Q 4.857411989135742 1.9615094062499998 4.906705739135742 1.9812269062499999 Q 4.955999489135742 2.00094440625 4.982886989135742 2.0345537812499996 Q 5.009774489135742 2.06816315625 5.009774489135742 2.12552315625 Q 5.009774489135742 2.16943940625 4.992745739135742 2.2017044062499997 Q 4.975716989135742 2.23396940625 4.945244489135742 2.2554794062499997 Q 4.914771989135742 2.27698940625 4.872648239135742 2.2872962812499997 Q 4.830524489135742 2.2976031562499997 4.7803344891357415 2.2976031562499997 Q 4.731040739135742 2.2976031562499997 4.685780114135742 2.2872962812499997 Q 4.640519489135742 2.27698940625 4.600188239135742 2.25682378125 Q 4.559856989135742 2.23665815625 4.5249032391357416 2.20528940625 L 4.556271989135742 2.15420315625 Q 4.573300739135742 2.17212815625 4.597051364135742 2.1878125312499996 Q 4.620801989135742 2.20349690625 4.649930114135742 2.21604440625 Q 4.679058239135742 2.2285919062499997 4.712667614135742 2.23531378125 Q 4.746276989135742 2.2420356562499997 4.782126989135742 2.2420356562499997 Q 4.8583082391357415 2.2420356562499997 4.900880114135742 2.21425190625 Q 4.943451989135742 2.1864681562499997 4.943451989135742 2.13179690625 Q 4.943451989135742 2.09236190625 4.921941989135742 2.06861128125 Q 4.9004319891357415 2.04486065625 4.857411989135742 2.02962440625 Q 4.814391989135742 2.01438815625 4.751654489135742 2.00004815625 Q 4.685331989135742 1.9848119062499998 4.639623239135742 1.9659906562499998 Q 4.5939144891357415 1.9471694062499998 4.571060114135742 1.9162487812499998 Q 4.548205739135742 1.88532815625 4.548205739135742 1.83424190625 Q 4.548205739135742 1.7750894062499998 4.577333864135742 1.7343100312499997 Q 4.606461989135742 1.6935306562499999 4.657548239135742 1.6724687812499999 Q 4.708634489135742 1.6514069062499999 4.774956989135742 1.6514069062499999 Q 4.817080739135742 1.6514069062499999 4.853378864135742 1.65992128125 Q 4.889676989135742 1.6684356562499998 4.920597614135742 1.68456815625 Q 4.951518239135742 1.70070065625 4.978405739135742 1.7248994062499998 L 4.947933239135742 1.7750894062499998 Z" fill="#373b42" fill-rule="nonzero"></path></g><g clip-path="url(&quot;#SvgjsClipPath1022&quot;)"><path d=" M -1.6353852271104463 1.6913836279453776 L -1.6517645725197307 1.6520492875099442 C -1.661947365548344 1.6274004249287888 -1.6860096820753818 1.6113431381393997 -1.7126789994250604 1.6113998171511335 L -1.9757049840996932 1.6113998171511335 L -2.0553899017295305 1.3658889719105154 C -2.0732243729855155 1.3110450330611125 -2.124330207982629 1.2739100566396961 -2.182001046170639 1.2738896559072772 L -3.3998711338470695 1.2738896559072772 C -3.457541972035079 1.2739100566396961 -3.508647807032193 1.3110450330611125 -3.5264822782881766 1.3658889719105154 L -3.6061671959180144 1.611399817151137 L -3.869193180592647 1.611399817151137 C -3.8958624979423258 1.6113431381393997 -3.919924814469363 1.6274004249287888 -3.930107607497977 1.652049287509941 L -3.946486952907261 1.6913836279453776 C -3.9535835183589834 1.7082003321420016 -3.953370883418916 1.7272101246639116 -3.9458999325112973 1.7438638832121551 C -3.9384289816036793 1.7605176417603956 -3.9243719826354235 1.7733167903785834 -3.907092833838947 1.7791984396469767 L -3.7337347984852114 1.8389770725275758 L -3.870687646414662 1.960387475908071 C -3.9016403718617836 1.9878060088077159 -3.919356106192974 2.027176725521626 -3.9193474535794692 2.0685270227890737 L -3.9193474535794692 2.793940732795136 L -3.521102201328923 2.793940732795136 L -3.521102201328923 2.594818106669863 L -2.0609493145874267 2.594818106669863 L -2.0609493145874267 2.793940732795136 L -1.6627040623368803 2.793940732795136 L -1.6627040623368803 2.068646580054836 C -1.6626954097233666 2.0272962827874257 -1.6804111440545486 1.9879255660735082 -1.7113638695016644 1.9605070331738568 L -1.8483167174311386 1.8390966297933375 L -1.6749586820774032 1.7793179969127388 C -1.6576164357395111 1.773477278719246 -1.6434924474112118 1.7606740853428282 -1.6359825544353117 1.743986694757408 C -1.6284726614594112 1.7272993041719849 -1.628256204754372 1.7082372488413902 -1.6353852271104463 1.6913836279453776 Z M -3.392040132939711 2.2449337684197195 L -3.6982860691870165 2.2449337684197195 C -3.716883138665155 2.2449337684197195 -3.734718520594387 2.237546111334526 -3.7478686345325762 2.224395997396339 C -3.7610187484707662 2.2112458834581483 -3.7684064055559583 2.1934105015289176 -3.7684064055559583 2.174813432050776 L -3.7684064055559583 2.1085787068190784 C -3.7684118326769243 2.087386663186808 -3.758832796501875 2.0673289850189533 -3.7423470690676894 2.0540126967323107 C -3.725861341633504 2.0406964084456716 -3.7042376341890284 2.0355501803236473 -3.6835207468655407 2.0400126149050295 L -3.3772150319853225 2.1062473401367336 C -3.3449584775444547 2.113224867815938 -3.321933407717445 2.1417510624340514 -3.3219197965707687 2.1747536534178997 C -3.3219039334578806 2.193361078077193 -3.329284587005577 2.2112118211531966 -3.342436420682355 2.224374866964391 C -3.355588254359132 2.237537912775582 -3.3734327015186674 2.24493377518149 -3.3920401329397207 2.2449337684197195 Z M -3.5183523842164153 1.7683187284627087 L -3.4007080347073977 1.405880877307641 L -2.1812239239431905 1.405880877307641 L -2.063579574434173 1.7683187284627087 L -3.5183523842164153 1.7683187284627087 Z M -1.8134657744617493 2.108638485451954 L -1.8134657744617493 2.174813432050776 C -1.8134987694142484 2.2135494922435703 -1.8449098152183896 2.2449337824720796 -1.8836458894635597 2.2449337684197195 L -2.1898918257108773 2.2449337684197195 C -2.2084888951890163 2.2449337684197195 -2.2263242771182483 2.237546111334526 -2.2394743910564374 2.224395997396339 C -2.2526245049946274 2.2112458834581483 -2.260012162079819 2.1934105015289176 -2.260012162079819 2.174813432050776 C -2.2599985509331373 2.1418108410669174 -2.236973481106122 2.11328464644881 -2.2047169266652533 2.1063071187696094 L -1.8984112117850795 2.0400723935379053 C -1.8776987560531055 2.0356148667221285 -1.85608112757938 2.0407529337330907 -1.8395893233120035 2.0540531502639925 C -1.8230975190446266 2.067353366794898 -1.8134968552760968 2.0873920505999966 -1.8134657744617493 2.1085787068190784 Z" fill="#07607c" transform="matrix(1,0,0,1,0,0)" fill-rule="nonzero"></path><path d=" M -4.741423212953458 0.5671866579928451 L -4.741423212953458 2.835666218545793 L -4.284714457745686 2.835666218545793 L -4.284714457745686 1.0123581370546613 L -2.7909659793252937 1.0123581370546613 L -1.2971577222720203 1.0123581370546613 L -1.2971577222720203 2.835666218545793 L -0.8404489670642494 2.835666218545793 L -0.8404489670642494 0.5671866579928451 L -2.7909659793252937 -0.06885799585672203 L -4.741423212953458 0.5671866579928451 Z" fill="#07607c" transform="matrix(1,0,0,1,0,0)" fill-rule="nonzero"></path><path d=" M -2.7909659793252937 -0.5434405622957927 L -5.181872180017707 0.3059540323046299 L -5.101828590590586 0.5316183714288889 L -2.7909659793252937 -0.28812602126275694 L -0.48004358942712155 0.5316183714288889 L -0.40000000000000036 0.3059540323046299 L -2.7909659793252937 -0.5434405622957927 Z" fill="#07607c" transform="matrix(1,0,0,1,0,0)" fill-rule="nonzero"></path></g></g><defs><clipPath id="SvgjsClipPath1022"><path d=" M -5.181872180017707 -0.5434405622957925 h 4.781872180017706 v 3.379106780841585 h -4.781872180017706 Z"></path></clipPath></defs></svg>